<svg xmlns:svg="http://www.w3.org/2000/svg" xmlns="http://www.w3.org/2000/svg" xmlns:xlink="http://www.w3.org/1999/xlink" xmlns:inkscape="http://www.inkscape.org/namespaces/inkscape" width="1021.557373046875" height="1024.0" id="svgoverlay" version="1.1">
  <defs id="defs4">
    <clipPath id="edgeclip">
      <path id="clippath" d="M249.351303 1022.023071 L251.023346 1023.167603, 252.403229 1023.601685, 253.693497 1023.542908, 255.319138 1023.784851, 255.904083 1023.229370, 257.037201 1023.589600, 258.356598 1023.781860, 259.412506 1023.641174, 261.111145 1023.903748, 262.743500 1023.241760, 264.213318 1022.611938, 266.242035 1023.540100, 268.088165 1023.726013, 268.351837 1022.620667, 270.360474 1023.381165, 272.420105 1023.852356, 273.205475 1022.701599, 275.345032 1022.826782, 277.211487 1022.984924, 278.510712 1023.766174, 280.130188 1023.502014, 281.731293 1023.303711, 283.211639 1023.071472, 284.795105 1023.213501, 286.598236 1023.507568, 288.411285 1023.852173, 289.225708 1022.466858, 291.036560 1022.304749, 292.796631 1022.293152, 294.744690 1023.388428, 295.995361 1022.730713, 297.891083 1023.010803, 299.672852 1023.562500, 300.573822 1022.828247, 302.173645 1022.974121, 303.061676 1022.440552, 304.817902 1023.218750, 305.688965 1022.547363, 307.168793 1023.208618, 308.430634 1023.052307, 310.218079 1023.200500, 311.687073 1022.865051, 313.240967 1022.573669, 315.024323 1023.879028, 316.661316 1023.087097, 318.266510 1022.094727, 319.978058 1022.990356, 321.996490 1023.078613, 323.264160 1022.446289, 324.814941 1023.525024, 326.048309 1022.429810, 327.514557 1023.275879, 328.382538 1021.928345, 329.537811 1022.380249, 330.539337 1023.537354, 331.628693 1023.209106, 332.269501 1022.435669, 333.807007 1023.025574, 335.330658 1023.284180, 336.721680 1023.157654, 337.928558 1023.141785, 338.855988 1022.716675, 340.016754 1023.620911, 341.327026 1023.810425, 341.735565 1022.601624, 343.669464 1022.585815, 345.419861 1023.046570, 347.026855 1022.876038, 349.084290 1023.486206, 349.989838 1022.624878, 351.987946 1023.267212, 353.728455 1023.637878, 355.048340 1022.820435, 356.922272 1023.070740, 359.121063 1023.178528, 360.927490 1022.362610, 363.345734 1023.121216, 365.863281 1023.752625, 368.262939 1023.490356, 370.644684 1023.143494, 372.739716 1023.490662, 374.253387 1023.658508, 375.523682 1023.186584, 376.984375 1022.791992, 378.121277 1023.682983, 378.420441 1022.539490, 379.964844 1022.358643, 381.354462 1023.532715, 382.794098 1023.195984, 384.420929 1023.519714, 386.841644 1023.955200, 389.751923 1023.849304, 391.591400 1021.786072, 393.397644 1022.542480, 395.336151 1022.618652, 397.814148 1021.614563, 401.434570 1022.781067, 404.877197 1023.849609, 407.442200 1022.474304, 410.450317 1023.476868, 412.423218 1022.488403, 413.878052 1023.270691, 415.367523 1023.205994, 416.838470 1023.468079, 417.738068 1022.371887, 419.406494 1022.775330, 420.720367 1022.092346, 422.231964 1023.411255, 423.193176 1022.230957, 425.502747 1023.520874, 426.394470 1021.474182, 429.205933 1022.553955, 431.416138 1022.527466, 433.444519 1023.085693, 433.295715 1021.117920, 435.386627 1022.392090, 436.948578 1023.369446, 437.899658 1022.958374, 439.304626 1020.124878, 442.695190 1020.170715, 444.768494 1023.896545, 447.846436 1021.949158, 450.059784 1019.549744, 451.903961 1020.280457, 454.596344 1020.638000, 457.583618 1020.727356, 461.066437 1021.108765, 463.840454 1019.106995, 465.497406 1018.599304, 467.437897 1019.857117, 468.824921 1023.907776, 469.682831 1021.347656, 471.845093 1023.096008, 472.635437 1020.450989, 474.375641 1020.791748, 476.126373 1020.809082, 477.969421 1021.588013, 479.890320 1023.058044, 480.804901 1019.526428, 483.059937 1021.386414, 485.081970 1020.356812, 486.919037 1019.061157, 487.831970 1023.724731, 489.432007 1023.497986, 490.044861 1015.378357, 491.469391 1015.697510, 492.602783 1021.080383, 494.342163 1022.757446, 496.073242 1023.840149, 497.149078 1015.750488, 499.276001 1023.057068, 500.597748 1011.561218, 502.648193 1022.655579, 503.913788 1012.946716, 505.610291 996.066589, 507.678925 993.640503, 508.744690 946.981262, 510.098267 847.497498, 510.020660 692.867920, 509.424713 553.286133, 510.283173 485.181213, 509.762726 346.925476, 509.826508 202.637939, 510.783966 60.690552, 509.278534 25.452515, 507.549652 17.949097, 505.714783 16.209534, 504.226562 12.581055, 503.418671 23.758850, 501.475739 9.888428, 499.962555 20.403748, 497.754150 8.190918, 495.852081 12.952026, 493.499329 8.754333, 491.304138 0.686279, 490.514648 7.719421, 488.817932 6.338806, 487.180817 6.266846, 486.147888 0.986816, 484.321808 2.282288, 483.096130 1.301575, 481.823517 0.408569, 481.086853 4.812927, 478.935394 2.329224, 477.226288 0.477966, 475.751068 1.658325, 473.764404 0.534485, 473.041260 4.272034, 470.859955 3.369934, 469.149994 5.506470, 466.679382 0.065552, 464.195526 0.133667, 462.974701 4.621033, 459.812347 3.797913, 456.416656 3.369080, 453.031006 3.590759, 449.805756 1.525391, 446.955475 3.681335, 443.856049 4.549316, 441.352112 0.687134, 438.899780 1.805542, 437.653656 1.752686, 435.408813 0.114258, 435.005371 1.526672, 433.235657 0.576538, 431.697205 1.056885, 430.140594 0.945129, 428.515167 0.918274, 427.158661 2.707458, 424.514526 1.468506, 422.775360 1.849854, 420.910828 0.536133, 419.853180 1.023071, 418.445526 0.504517, 417.083740 1.005432, 415.832123 0.250122, 414.433899 0.532104, 412.720459 0.263367, 410.976257 1.307068, 407.944275 0.641113, 405.945129 1.761169, 403.006409 1.369019, 399.918274 0.434509, 397.415924 0.336060, 394.491821 0.851501, 391.908478 0.103333, 390.122803 1.550537, 388.316803 1.468872, 386.425629 1.934814, 385.059235 0.841980, 383.111206 0.711731, 381.370880 1.288452, 379.630005 0.148071, 378.051697 1.170349, 376.725586 0.242310, 375.206512 0.655640, 373.639923 0.817261, 371.783600 0.874207, 369.615295 0.938293, 367.668427 0.935547, 366.152588 1.611206, 364.065948 0.845886, 361.821533 0.104675, 360.762054 0.988342, 358.762024 0.690735, 356.960297 0.482605, 355.657928 0.903320, 354.606873 1.610291, 352.927765 0.897583, 351.090698 0.264771, 350.131470 1.309143, 348.263763 0.306946, 346.734497 0.240417, 344.912170 0.167358, 343.081207 0.110291, 342.339386 1.167542, 340.644135 0.985291, 339.089905 0.069153, 337.920349 0.420593, 336.540649 0.672363, 335.016541 0.714111, 333.195648 0.460449, 331.758636 1.003174, 330.483643 1.197693, 329.187103 0.118469, 327.922028 1.448120, 326.377960 0.592957, 325.260406 1.294434, 323.793518 0.342285, 323.182007 1.025635, 321.397003 0.724854, 319.588470 0.825439, 318.213867 0.062561, 316.573425 0.628296, 315.430817 1.688538, 313.433990 0.302551, 311.973083 0.137695, 311.539276 0.900330, 309.947784 0.481567, 308.703094 0.809143, 306.606110 0.273926, 305.502716 0.577515, 303.920013 0.160706, 302.302032 0.234680, 301.136475 0.262024, 300.818268 1.075745, 299.223602 0.610229, 297.632141 0.069275, 296.602661 0.571716, 295.540436 1.160217, 294.035400 0.206116, 292.598907 0.072571, 291.120361 0.135803, 290.016754 0.425232, 289.585602 1.543640, 287.655243 1.015320, 285.755798 0.757874, 284.163452 0.145142, 282.985657 0.319519, 281.422394 0.492432, 279.826996 0.718933, 278.269135 0.768860, 276.666870 0.210510, 274.536133 0.099304, 273.840485 1.352173, 271.370880 0.888000, 269.621948 0.050537, 269.744324 0.971069, 268.135010 0.974976, 266.674194 1.262512, 264.752563 0.278442, 263.330017 0.797913, 262.354309 1.488464, 260.192505 0.984802, 258.587280 1.030884, 257.104309 0.720093, 257.046204 1.888611, 255.412109 1.579895, 253.740540 1.412170, 252.122818 1.322937, 250.183914 0.431091, 248.547699 0.498840, 247.226517 0.857727, 245.866699 1.075867, 244.159866 0.810791, 242.183319 0.534424, 239.968002 0.184265, 239.174561 1.352295, 236.969543 0.413696, 235.235779 0.480957, 233.821747 0.569641, 232.001877 0.692993, 230.018463 0.155212, 229.511841 1.596069, 228.018219 1.946594, 226.343613 0.732117, 224.579483 0.351746, 223.052002 0.204834, 221.612946 0.292969, 220.049835 0.271179, 218.840469 0.914734, 217.562881 0.204163, 216.257278 0.277710, 214.374603 0.240234, 213.251678 0.669861, 212.592911 1.642578, 210.817139 0.583679, 209.024124 0.169434, 208.539566 1.397522, 207.004242 1.216553, 205.671082 0.883850, 205.095261 1.322510, 203.879562 1.082031, 202.420425 0.897583, 201.086243 0.588013, 200.141373 0.874084, 198.890839 1.083862, 197.651154 0.973145, 196.842682 1.694580, 194.937286 0.791870, 193.693558 1.164185, 192.066574 1.137207, 190.474869 1.041992, 188.723389 0.556396, 187.158478 0.812439, 185.863312 1.089355, 184.261826 0.542603, 183.066544 0.379211, 182.686615 1.206604, 181.098206 0.465149, 180.438446 1.149658, 178.986465 0.107361, 178.673584 0.772400, 178.090683 1.382202, 176.500061 0.849792, 174.711624 0.307373, 173.421783 0.800598, 173.039490 2.163086, 171.661453 2.009583, 170.363678 0.367493, 169.120422 0.885620, 167.874542 1.307068, 166.519379 1.781555, 164.918182 0.326843, 163.880356 0.898987, 162.956543 1.567810, 161.649323 1.603455, 160.410110 1.709290, 159.130020 1.548645, 157.717270 1.219177, 156.143295 0.092224, 155.734650 1.409729, 154.563019 0.761475, 153.865112 1.327576, 152.987061 1.899780, 151.611465 0.730469, 150.821762 2.057800, 149.165466 0.739868, 148.164124 0.994019, 146.839600 0.076050, 145.798370 0.914917, 144.391815 0.798645, 143.810272 1.596680, 142.488083 0.854004, 141.433731 1.227295, 140.045502 0.713196, 139.483200 1.554993, 137.981659 0.695740, 137.497574 2.358887, 136.392548 1.341858, 135.462021 1.755859, 134.257187 1.591736, 133.193619 2.084412, 132.275314 0.623535, 131.019470 0.191345, 129.716843 0.819519, 128.642029 1.079834, 127.750412 2.311218, 126.436852 1.314148, 125.153305 0.700012, 123.938835 0.145935, 123.115509 1.378235, 122.015129 1.673279, 121.430481 0.053406, 120.070213 0.327271, 118.829956 0.589600, 117.814392 1.963867, 116.370102 1.899231, 114.903801 1.966125, 114.550735 0.139771, 113.125595 0.265564, 111.696480 0.327026, 110.304092 0.409607, 108.859566 0.293640, 107.431610 2.297485, 105.802200 2.337769, 105.148964 0.550781, 103.332413 0.594971, 102.174049 1.020935, 100.602211 1.130859, 99.697212 0.137573, 97.687981 0.434204, 95.416161 1.581970, 93.356140 1.465088, 91.735458 0.243530, 89.859322 0.778625, 88.087784 0.515991, 87.051979 0.499878, 85.947701 0.379639, 84.965797 1.592224, 83.398346 0.323425, 83.308769 2.485718, 81.955658 1.973755, 80.449333 0.600159, 80.097733 3.125854, 78.957283 2.873047, 77.904472 3.173401, 77.197746 1.058777, 76.158043 0.434631, 75.018387 0.924133, 74.092888 3.059448, 72.818413 1.069885, 71.474304 2.250671, 70.131241 3.018982, 69.192062 0.813538, 67.795403 2.052002, 66.489143 1.861450, 65.346191 0.452820, 64.393631 1.676392, 62.968937 1.384033, 61.768074 2.911133, 60.995758 1.504944, 60.543674 0.334900, 59.105335 0.855774, 57.367085 2.511536, 55.825150 0.567932, 54.413239 3.021851, 52.896603 1.971497, 51.286907 3.635620, 50.711887 1.580566, 49.633060 2.129272, 48.459408 2.259399, 47.067921 5.153992, 46.480080 2.002930, 44.977501 4.474487, 43.725517 3.197693, 42.665653 1.967896, 41.398788 3.540466, 39.949169 2.464478, 38.467205 1.341370, 36.873138 3.275208, 35.487236 4.697144, 34.355560 5.406494, 33.380287 4.429688, 32.362514 1.277649, 31.267496 0.172424, 30.354181 1.325012, 29.028021 0.645752, 28.843695 4.878601, 27.366152 4.711731, 25.791124 6.832520, 23.758465 2.409546, 22.088388 0.885193, 22.341642 8.604248, 20.549417 5.194214, 18.945904 1.744385, 19.218760 13.011658, 17.463116 9.316101, 16.091867 8.867554, 15.003220 9.688049, 13.443822 2.543884, 11.690052 0.265991, 11.467120 12.970581, 10.120833 18.143188, 7.991138 6.903442, 7.601719 22.559753, 6.159709 24.600769, 4.294248 18.660645, 3.156764 32.081848, 2.029924 35.028320, 1.753170 82.983459, 0.534167 143.618164, 1.010239 223.177429, 1.322786 331.496826, 0.943075 467.616821, 0.000000 489.217041, 0.859719 635.550049, 1.093670 732.787354, 1.006491 876.744141, 0.629141 983.719910, 1.641480 993.414062, 2.660639 1006.091309, 3.215045 975.837036, 4.743110 1017.977539, 6.134260 1019.353027, 6.998552 1003.349548, 8.675900 1018.903137, 10.196619 1023.327637, 10.402197 1004.319397, 12.064103 1010.335144, 13.380930 1011.493347, 14.666873 1021.356323, 15.925794 1020.691345, 17.439953 1023.093872, 17.444263 1012.077820, 19.064117 1015.870667, 20.758968 1023.559692, 20.477381 1016.227722, 21.681841 1017.209351, 22.655050 1020.781921, 23.492094 1020.613281, 24.701578 1023.783997, 25.925079 1023.468445, 27.179239 1022.127686, 27.816963 1018.052490, 29.360544 1020.840210, 30.383003 1022.119995, 30.839174 1019.956177, 31.756536 1020.382874, 32.524055 1018.560791, 33.198212 1021.728271, 34.010368 1023.618164, 34.986835 1023.775757, 36.310558 1021.549377, 37.534924 1021.362549, 38.565777 1017.913086, 39.679085 1020.379089, 40.949402 1021.748169, 42.233582 1022.198792, 43.545238 1022.349548, 44.808430 1022.850281, 46.093773 1022.214294, 47.444519 1020.149414, 47.834461 1023.315247, 48.987053 1021.288574, 49.845047 1021.680969, 50.941040 1021.871216, 52.137405 1022.837769, 53.290970 1022.711426, 54.298435 1023.356201, 55.606003 1020.825500, 57.421577 1022.401123, 59.190041 1021.544128, 60.799290 1021.287659, 61.543419 1023.578857, 61.908886 1023.784058, 62.769993 1021.951721, 63.878880 1022.983948, 65.170555 1021.116394, 66.668266 1023.214233, 68.108513 1022.510132, 69.446518 1021.291626, 70.486252 1023.766785, 71.750305 1022.700806, 72.990601 1021.378723, 74.030937 1023.460388, 75.169991 1022.128479, 76.091408 1021.312195, 76.965515 1022.379395, 78.037971 1023.871948, 79.231567 1023.796997, 79.423767 1020.248901, 80.807304 1022.554871, 81.888603 1022.612244, 82.370750 1020.720093, 83.584885 1022.580688, 84.364922 1022.237244, 85.050354 1020.797729, 86.639664 1022.778198, 87.701477 1021.982727, 88.971153 1023.188904, 90.379951 1022.848206, 92.342453 1021.936584, 93.936218 1023.217590, 95.747711 1023.800354, 97.998505 1022.244629, 99.691666 1022.463867, 101.209763 1022.970215, 102.257111 1023.182739, 103.007759 1022.284485, 104.543579 1022.616821, 106.284195 1022.144287, 107.185890 1023.876221, 108.806198 1022.062622, 110.065308 1022.253357, 111.363281 1022.202454, 112.734337 1022.158264, 114.151199 1022.092834, 115.610191 1021.975281, 116.048073 1023.858337, 117.686890 1023.707703, 119.341789 1022.847534, 120.778664 1022.398376, 122.195976 1022.174133, 122.720695 1023.852478, 123.583000 1022.190002, 124.920738 1022.506592, 126.235390 1023.086182, 127.651093 1023.789795, 128.841873 1023.642517, 129.719467 1022.738770, 130.716934 1021.624817, 131.910934 1022.632141, 133.157150 1023.759155, 134.318283 1022.983154, 135.689789 1023.502319, 136.734100 1023.794189, 137.174530 1022.326050, 138.564072 1023.162415, 139.930634 1023.070007, 141.272980 1023.156494, 142.856857 1023.510437, 144.191605 1023.246399, 145.386200 1022.863586, 146.402847 1022.221497, 147.771927 1023.441284, 148.541992 1023.014404, 149.959259 1023.500793, 151.004730 1022.476562, 152.494308 1023.788635, 153.420929 1023.237976, 154.557632 1022.992554, 155.288528 1021.806824, 156.735153 1022.827637, 158.011414 1023.786682, 159.027878 1023.748596, 160.242844 1023.692383, 161.549210 1023.767212, 162.652359 1023.802917, 163.284576 1022.870483, 164.506729 1022.310425, 166.289810 1023.464233, 167.845001 1023.645447, 168.824142 1022.679871, 170.318359 1022.184875, 171.909805 1023.920471, 173.045181 1022.909180, 173.942429 1021.849365, 175.541702 1022.353027, 176.995102 1023.505310, 177.891708 1023.493347, 177.695236 1021.921509, 179.400391 1023.215515, 179.855103 1022.614319, 181.540848 1023.324829, 182.939865 1022.769775, 184.669952 1023.261108, 185.968369 1023.610107, 186.949112 1022.911255, 188.316544 1022.838440, 189.489517 1023.545227, 190.689438 1023.537048, 192.195541 1023.673706, 193.373962 1023.725037, 193.895004 1022.958557, 195.947083 1023.691467, 197.461914 1023.832214, 198.403717 1023.501221, 199.681549 1023.366150, 201.002380 1023.375305, 202.471375 1023.508301, 204.140701 1023.710083, 205.641281 1023.543152, 207.306595 1023.704895, 207.899826 1022.205750, 209.558212 1023.058350, 210.671524 1022.786072, 212.057327 1023.946533, 212.950745 1023.577393, 213.328918 1022.622375, 214.993530 1022.718079, 216.674118 1022.869080, 218.346146 1023.358765, 219.223297 1022.373413, 220.497910 1022.915527, 221.586182 1022.489563, 223.272324 1022.653809, 224.948563 1022.849548, 226.405975 1022.863647, 228.097717 1023.884766, 228.846054 1022.288452, 230.606964 1022.675354, 232.342422 1023.038513, 233.741821 1023.349670, 234.717316 1022.706543, 236.545456 1022.568420, 238.128922 1023.704773, 238.231766 1022.271606, 240.589478 1022.451660, 242.569275 1022.710144, 244.221924 1023.103271, 245.476669 1023.440125, 246.244156 1022.519104, 248.163971 1022.306396, 249.351303 1022.023071Z M635.753235 1022.182861 L637.984558 1023.125610, 639.424072 1022.574646, 641.080811 1022.232910, 643.196838 1023.845032, 644.440979 1023.443726, 645.967102 1023.619141, 647.898743 1023.993225, 647.149719 1022.613220, 648.612976 1022.869690, 651.014526 1023.938782, 651.270935 1021.843628, 654.224915 1020.938293, 657.395569 1023.123169, 660.848694 1020.856873, 663.307129 1023.002075, 666.428101 1022.980225, 670.063293 1022.942444, 672.897949 1021.315796, 675.136597 1021.558533, 676.477173 1021.786499, 676.861145 1019.906860, 679.531677 1022.154114, 681.816284 1021.942932, 684.922485 1023.903076, 688.553406 1021.798096, 692.211609 1021.690552, 695.799622 1022.018555, 699.556458 1020.807312, 702.405090 1021.530212, 704.996155 1020.801575, 708.553894 1021.559509, 711.713745 1023.178711, 714.190430 1023.742737, 713.827515 1022.016357, 715.745850 1022.534973, 717.473389 1023.104492, 716.559631 1021.648071, 718.763000 1022.864868, 719.572571 1022.894287, 720.750793 1023.098999, 720.598389 1022.102173, 723.205750 1023.352112, 724.124390 1021.587769, 727.333801 1021.852478, 730.538330 1021.799377, 733.632446 1021.649048, 736.208679 1021.763428, 738.004944 1023.794067, 740.675842 1021.419006, 742.309814 1022.566040, 744.536499 1022.134155, 747.180908 1022.257446, 749.651978 1022.724792, 752.079468 1021.179260, 755.053589 1022.653992, 758.166687 1023.694214, 760.357178 1022.021118, 763.343506 1022.039185, 767.418213 1022.639465, 770.107300 1021.057312, 773.262695 1022.892273, 774.781250 1021.985107, 776.536621 1023.794617, 776.678955 1022.642212, 778.122009 1023.127502, 779.652161 1023.385925, 781.340271 1023.551941, 783.149048 1023.285645, 785.239380 1022.085632, 788.313843 1023.666565, 788.903931 1021.505371, 791.683594 1022.082397, 792.188599 1023.883301, 792.584595 1022.394531, 793.094666 1022.605713, 793.665222 1022.811340, 795.293823 1021.730530, 797.569519 1024.000000, 800.865906 1023.344177, 805.480835 1023.668884, 809.515869 1022.839783, 812.156555 1022.214050, 814.091614 1022.580505, 815.267151 1022.936768, 816.183533 1023.777100, 817.787720 1023.162537, 819.933289 1023.820190, 823.286377 1023.285828, 827.220093 1022.824341, 828.026855 1023.881775, 830.145386 1023.064575, 832.642151 1023.442566, 834.678162 1023.876465, 836.545410 1023.904968, 838.432922 1023.922241, 840.150879 1023.973145, 841.854492 1023.943176, 843.741211 1023.613953, 845.630554 1023.934021, 847.184937 1023.958130, 848.611267 1022.485718, 850.829834 1022.403687, 853.257019 1022.364319, 855.901611 1022.606812, 859.123474 1023.185913, 861.870972 1022.121033, 863.798523 1021.828979, 866.466797 1023.876221, 867.746033 1023.994202, 867.964722 1023.072998, 868.446960 1022.317383, 870.087341 1022.677063, 872.050415 1022.915466, 874.313049 1022.820251, 877.066040 1023.204529, 879.434143 1023.951111, 880.299805 1022.895569, 882.345337 1023.437378, 883.800903 1023.459717, 885.301147 1023.641663, 886.934326 1023.727905, 888.721436 1023.508728, 890.647461 1022.974792, 892.315613 1022.428833, 893.821289 1023.066895, 895.384888 1021.095581, 897.381042 1021.481995, 898.259399 1023.797546, 899.958862 1023.606262, 901.325562 1021.771545, 903.751892 1023.353027, 905.924377 1023.263794, 907.586853 1023.046326, 909.231628 1022.816833, 911.018982 1022.660278, 912.967468 1022.574646, 915.195984 1022.563782, 917.040466 1023.680969, 919.094238 1023.172180, 921.043579 1022.737427, 922.842957 1022.329407, 923.849365 1023.629639, 925.063965 1023.920410, 926.527710 1022.969604, 928.024719 1023.688782, 929.863647 1023.865540, 932.236145 1023.834778, 934.715820 1023.907166, 937.241882 1022.862000, 940.434326 1022.997986, 942.331970 1023.439575, 943.468811 1022.769287, 945.205505 1023.596252, 945.583618 1022.126648, 946.886475 1022.306396, 948.506531 1022.590698, 949.854980 1022.485901, 951.550659 1023.371460, 953.354736 1019.942749, 955.509399 1023.059509, 958.038513 1022.191528, 960.283142 1021.948914, 962.184265 1022.108887, 963.685974 1022.267212, 964.767578 1022.065674, 965.735962 1020.778320, 967.010620 1020.927612, 968.235779 1023.037781, 969.508423 1021.321106, 971.085571 1023.123535, 972.599854 1020.493225, 974.358582 1021.983582, 976.012085 1023.689636, 977.491150 1021.086609, 979.149902 1022.849487, 980.795715 1022.065063, 982.048828 1021.708740, 982.948364 1018.783997, 984.646362 1023.210999, 986.113831 1021.352173, 987.632324 1018.830994, 989.246277 1022.933411, 990.716736 1019.510803, 992.145142 1016.255066, 993.799133 1021.172485, 995.535583 1018.094727, 996.762939 1023.992188, 997.276855 1019.628967, 998.559937 1017.701477, 999.923340 1020.365234, 1001.614380 1020.994934, 1003.355408 1021.139160, 1004.651367 1020.925110, 1005.860657 1015.498779, 1007.119202 1015.626038, 1008.164429 1014.335693, 1009.053467 1011.822754, 1009.878784 1015.043152, 1011.469238 1022.337097, 1013.598694 1018.745178, 1015.618042 988.805542, 1016.932007 1004.731934, 1018.722900 953.655884, 1019.955383 991.566772, 1019.983521 886.182617, 1020.994385 789.172546, 1019.503845 653.978638, 1020.106506 591.758484, 1021.557373 470.679626, 1019.694153 515.843018, 1019.097168 433.738159, 1020.623901 332.074890, 1019.371155 183.782471, 1020.335205 135.948853, 1020.847717 29.590881, 1018.878052 60.902405, 1018.062866 6.709534, 1015.918945 22.143372, 1014.822510 5.557068, 1012.384338 20.940063, 1010.035339 21.486511, 1009.273438 9.319458, 1008.548462 0.366455, 1007.357422 3.280212, 1006.198303 2.664734, 1005.204590 1.833252, 1003.942993 6.150146, 1002.196716 5.413879, 1000.385803 3.887634, 998.449524 0.987183, 997.104797 6.497742, 995.432556 2.241028, 993.904907 5.073059, 992.325867 0.139771, 990.846741 3.245544, 989.324036 6.230591, 987.728943 1.740906, 986.218323 3.774109, 984.745361 5.125061, 983.316101 0.788757, 982.011963 1.847107, 980.591003 2.727417, 979.124573 4.149841, 977.597168 1.618286, 976.057556 3.894470, 974.399780 2.199524, 972.728333 0.652466, 971.290527 2.856750, 969.716980 1.150208, 968.386047 2.810425, 967.005005 0.197937, 965.833923 0.979980, 964.746399 1.710754, 963.369080 2.947327, 961.561523 2.414795, 959.521301 2.469360, 957.195068 2.842285, 954.783630 3.214172, 953.457275 0.261902, 952.506042 2.887878, 950.170837 1.675537, 948.574402 1.721741, 946.780701 0.635254, 946.392761 2.470032, 944.879517 1.058655, 943.797302 1.061340, 942.283752 0.917236, 939.948364 1.023376, 936.893982 1.480347, 933.397949 2.150696, 930.320679 1.587036, 928.114502 1.429993, 926.125244 1.135742, 923.974854 1.452026, 922.425049 0.212341, 920.585571 0.717407, 918.589905 1.062073, 916.611572 1.330750, 915.398315 0.220093, 913.663025 0.078735, 911.670227 0.032288, 909.828918 0.022705, 908.197754 0.155823, 906.552612 0.480225, 905.023193 0.681824, 903.387085 1.607178, 901.604492 0.622864, 899.644348 1.496216, 897.527832 2.014343, 895.976685 0.028076, 893.801819 1.565796, 892.117371 0.209717, 890.383606 0.754883, 888.666687 0.992493, 887.026123 0.940369, 885.562012 0.750977, 884.276672 0.484741, 883.717102 1.121155, 881.578247 0.462524, 880.503113 1.859924, 878.240662 1.498352, 875.966492 1.131836, 873.815918 0.913635, 871.979797 0.847839, 870.044189 0.222656, 869.361511 1.088745, 868.649475 1.989197, 866.981750 2.150635, 864.499329 0.167847, 862.230835 1.245300, 859.905396 3.085571, 856.819702 1.728455, 853.865051 0.962219, 851.256287 0.529236, 849.066589 0.285706, 847.801453 2.057495, 846.370972 1.550232, 844.923645 1.330566, 843.261047 1.236572, 841.449707 1.050842, 839.872864 0.758911, 838.554443 1.096130, 836.216003 0.803040, 833.555847 0.562988, 830.647644 0.011108, 828.457275 0.725281, 826.291626 0.649963, 825.087219 0.055481, 821.962036 0.476501, 819.428833 0.946411, 817.723511 0.284241, 816.875916 0.791443, 815.977478 0.907227, 814.762512 0.142151, 812.128601 0.022400, 808.859253 0.644226, 806.326599 2.296509, 803.091187 1.445129, 800.242981 1.808838, 797.455750 2.126343, 795.131470 0.337646, 793.565979 0.553650, 792.711426 0.612488, 792.004517 1.328430, 790.848694 0.152527, 789.414978 1.452698, 786.434509 0.425964, 784.444885 1.156616, 781.682556 0.765381, 779.757385 0.339294, 779.021545 0.926697, 777.595093 0.311096, 776.950378 1.440002, 775.551758 0.498047, 774.085693 1.625549, 771.355103 0.072327, 769.765686 1.393494, 767.587463 1.634033, 764.794434 0.834045, 761.431580 0.332581, 759.109314 2.514832, 755.657227 1.924561, 751.966736 1.049805, 748.370667 1.488586, 745.405823 1.283813, 742.839417 1.184082, 740.495239 0.814209, 738.458801 3.033508, 736.472290 2.243347, 735.186951 0.256836, 732.392944 0.475891, 729.376343 0.464966, 726.307312 0.114136, 725.575684 1.678223, 722.673401 0.000061, 723.806335 1.515930, 721.704956 0.431213, 721.106384 0.630859, 719.460144 0.005859, 720.138245 1.228271, 718.281006 0.285095, 717.129944 0.611877, 716.833923 2.496338, 713.746826 1.673462, 710.539124 0.829529, 707.321045 0.195251, 704.150757 0.146790, 700.992676 0.164124, 698.206787 0.077820, 695.932495 2.127686, 693.503662 0.707520, 690.847046 1.315002, 688.042114 2.278137, 686.244141 3.816589, 684.164673 3.926331, 682.086304 1.167480, 680.344238 1.747742, 678.291931 0.360901, 676.825745 0.720703, 675.021729 0.733276, 672.805176 0.740601, 671.291321 2.401245, 667.684814 1.288696, 664.034973 1.062012, 660.669495 0.444031, 657.249146 1.831604, 654.183167 0.167664, 653.659424 1.380188, 650.290283 0.450623, 650.419250 1.405701, 648.131531 1.186340, 646.139587 0.535095, 645.087036 0.547974, 644.922668 1.409607, 643.201538 1.160400, 641.435120 0.063782, 639.535034 0.634644, 637.312683 0.450256, 635.294373 0.378601, 633.170166 0.585083, 631.676636 1.783325, 629.912109 1.110474, 628.154480 0.497498, 626.725403 0.108826, 625.405884 0.830200, 623.706604 1.625916, 622.259827 0.155640, 620.771240 0.532837, 619.989075 1.850891, 618.132935 1.102173, 616.908752 2.488403, 614.871033 1.272766, 613.848938 2.158081, 612.254272 1.507874, 610.657654 0.765625, 609.686951 1.336426, 608.380188 2.277039, 606.742126 3.174744, 604.408630 0.037659, 604.497803 1.939880, 602.384277 0.211121, 601.533630 1.039124, 600.936340 2.597473, 599.261719 2.450195, 597.465088 1.853821, 595.536804 0.887573, 595.463257 2.446167, 592.941772 0.158142, 591.852600 0.731262, 591.195496 1.894897, 588.444214 0.085205, 586.904663 0.733521, 585.203064 1.891235, 583.991089 3.002502, 582.390381 2.379883, 580.621582 1.625610, 578.629517 0.504761, 577.133118 0.994446, 575.246094 0.195862, 574.052429 1.444580, 572.544312 1.177673, 570.529541 0.052429, 570.167114 2.151306, 568.893860 3.405640, 567.087402 3.027771, 565.466736 2.352051, 563.794067 1.731750, 562.119568 1.064087, 560.731812 0.131653, 559.520081 2.009705, 558.042053 1.967163, 557.016907 4.255249, 555.681396 2.060425, 554.279297 2.284241, 552.738831 2.392944, 551.289124 3.180603, 549.808044 5.176514, 548.512817 1.998657, 547.635986 0.031311, 546.898987 3.832214, 545.536987 1.932617, 544.193298 4.264221, 542.643372 3.947754, 540.559143 4.861206, 538.847534 2.961670, 537.112793 2.946655, 535.429443 4.836243, 534.824463 0.912781, 533.991882 5.995239, 532.877380 6.804626, 532.165405 5.581421, 531.968445 0.049500, 530.617493 3.899231, 529.887451 0.831360, 527.878723 15.012329, 527.782715 1.331909, 525.929443 10.768250, 525.237671 6.300293, 524.095642 21.585571, 522.774780 15.874817, 521.429871 8.322998, 520.083679 23.650330, 518.720947 10.689575, 517.403809 32.081360, 515.958435 12.098450, 514.428528 0.042297, 513.632568 43.083191, 512.586670 75.345459, 511.788513 171.035645, 512.552490 270.158569, 510.783966 360.227112, 511.518951 512.626099, 511.295837 647.435791, 511.466187 803.822449, 512.458374 885.990112, 511.425873 1000.039734, 512.971313 991.976990, 514.472595 966.389709, 515.399048 996.100159, 516.661560 990.330017, 517.450500 1019.039673, 518.778931 1000.750549, 520.119019 1019.556152, 521.567261 1011.693054, 522.924316 1018.848633, 524.570618 1023.251343, 526.518066 1017.797607, 527.164429 1021.365662, 528.434509 1009.809021, 529.647339 1008.750061, 529.493652 1018.199097, 531.214722 1011.019348, 531.830994 1015.835632, 533.186707 1016.009644, 533.722290 1022.386169, 536.269348 1018.067078, 538.559692 1018.345093, 540.353455 1019.622925, 542.265137 1020.301697, 544.428101 1021.067688, 546.647827 1020.766479, 548.378845 1020.302917, 550.025208 1022.181152, 551.775513 1021.573181, 553.342285 1021.469543, 554.951965 1021.841675, 556.718140 1023.053467, 558.234863 1022.098083, 559.658691 1020.337158, 561.348145 1020.816528, 562.930786 1021.474487, 564.616272 1021.737305, 566.096985 1023.790894, 567.402710 1023.714844, 568.918640 1023.765320, 569.045349 1020.934387, 570.994507 1021.031616, 573.156921 1022.410339, 574.341980 1019.347961, 576.523132 1022.079041, 577.760315 1021.170654, 579.381104 1023.306396, 580.809082 1023.656555, 582.798096 1023.913208, 584.306091 1022.387146, 586.032837 1022.166016, 587.309265 1021.928833, 589.382568 1023.139038, 590.028503 1021.366699, 591.709839 1021.314941, 593.819763 1023.813232, 593.291199 1021.833618, 594.935486 1022.512085, 596.716980 1023.268738, 598.318787 1023.952148, 598.673584 1022.354309, 600.006592 1021.871521, 601.087036 1021.594543, 602.960510 1023.513611, 602.256165 1021.512451, 603.634399 1021.482117, 606.006958 1023.988037, 607.457092 1023.381287, 608.844177 1022.659424, 610.743164 1023.346741, 612.669861 1023.788025, 614.092896 1022.642822, 616.134338 1023.984131, 617.427734 1022.811035, 619.264832 1023.804626, 620.570251 1022.496765, 622.480591 1022.065125, 623.992249 1023.564148, 625.633301 1022.990906, 627.345825 1022.555237, 629.224243 1023.355774, 631.024658 1023.960449, 631.920105 1022.402710, 633.787659 1022.639404, 635.753235 1022.182861Z "/>
    </clipPath>
    <filter id="dropshadow">
      <feGaussianBlur in="SourceAlpha" stdDeviation="2"/>
      <feMerge>
        <feMergeNode/>
        <feMergeNode in="SourceGraphic"/>
      </feMerge>
    </filter>
  </defs>
  <g inkscape:label="rois" inkscape:groupmode="layer" id="rois" transform="translate(0,0)" style="display:inline;" class="display_layer">
    <g inkscape:label="shapes" inkscape:groupmode="layer" id="rois_shapes" transform="translate(0,0)" style="display:inline;" clip-path="url(#edgeclip)">
      <g id="dag_V1" style="display:inline;" inkscape:label="dag_V1" inkscape:groupmode="layer">
        <path style="stroke:white;fill:none;display:inline;filter:url(#dropshadow);stroke-width:2;stroke-opacity:1;fill-opacity:0" d="M 194.1146,315.8276 L 194.7909,316.5179 L 195.3121,317.5551 L 196.1205,318.4655 L 196.3118,320.1995 L 196.6841,321.4176 L 195.6197,321.9028 L 194.6110,323.2327 L 193.4052,324.4186 L 191.8493,326.2125 L 189.9305,328.7131 L 188.1687,330.4017 L 186.9397,330.2217 L 186.1008,330.3613 L 184.7062,330.8505 L 184.4263,331.9742 L 182.4395,332.2534 L 180.7714,332.2186 L 180.6110,333.3553 L 179.4900,332.2311 L 178.3951,330.8416 L 177.3698,330.9332 L 176.4393,330.9299 L 175.6644,330.9648 L 174.9015,330.8326 L 173.7598,330.8028 L 172.8322,331.1934 L 171.7459,330.8255 L 170.7697,330.8685 L 170.3885,331.4835 L 169.3200,331.1514 L 168.2248,330.8606 L 167.1890,330.8996 L 166.2726,331.3785 L 165.3019,332.3318 L 164.7524,333.8981 L 163.9325,334.8316 L 163.0161,336.0392 L 162.1912,337.5052 L 161.2469,338.7589 L 160.2596,339.9226 L 159.3764,340.6176 L 158.7092,340.5433 L 157.6789,342.6705 L 156.7256,343.4456 L 155.7889,345.2072 L 154.6718,346.8224 L 153.7075,347.8022 L 152.7789,348.6249 L 151.9015,349.1341 L 151.1306,351.1517 L 150.1492,351.6856 L 149.1568,352.3865 L 148.6927,354.6765 L 147.6676,355.0399 L 147.7152,356.7005 L 147.1863,357.3556 L 146.2085,357.8224 L 144.7435,357.8301 L 143.5376,358.5181 L 142.5186,358.9497 L 141.9894,358.9797 L 141.3723,358.8941 L 140.0751,358.2534 L 138.8778,357.6142 L 138.3698,356.4817 L 137.9766,355.2128 L 137.6057,353.9093 L 138.5332,352.4693 L 138.1609,350.8748 L 137.8326,349.3957 L 137.8177,348.0913 L 137.7793,346.8050 L 137.3185,345.7962 L 138.4852,344.3454 L 138.3271,342.7841 L 137.4527,341.7069 L 137.2436,340.5953 L 137.1766,339.1981 L 136.2305,337.7646 L 136.3789,335.8583 L 136.5459,333.9055 L 136.8222,332.1785 L 137.1622,330.8990 L 136.7330,329.9122 L 137.6282,328.6304 L 137.0692,327.2408 L 136.5099,326.0307 L 136.8189,324.7695 L 137.2079,323.2886 L 137.9938,322.3650 L 139.0761,322.2839 L 139.2184,321.0374 L 139.3913,319.9557 L 140.3620,319.6163 L 141.5264,319.2915 L 141.7432,317.9592 L 142.1390,316.7153 L 142.3936,315.6371 L 143.3054,314.9383 L 144.1364,314.1353 L 144.2357,312.9131 L 144.1039,311.4676 L 143.6747,309.9565 L 144.4880,308.9263 L 144.0762,307.4515 L 144.0710,306.1403 L 145.0197,305.3142 L 145.1089,304.1124 L 145.2355,302.8716 L 145.1940,301.3687 L 145.7454,300.3004 L 146.5103,299.1176 L 147.8148,298.2205 L 149.0728,297.5070 L 149.8060,296.2275 L 150.8225,295.0635 L 152.0193,294.8531 L 153.0981,294.8872 L 153.5939,294.0085 L 154.5284,294.3074 L 155.5304,294.1802 L 156.4751,292.9236 L 157.1435,291.7380 L 157.7259,290.4565 L 158.8152,290.8196 L 159.4672,289.4586 L 160.6671,289.7917 L 161.3546,288.5243 L 162.1635,287.4277 L 163.0901,287.4537 L 163.7356,286.1490 L 164.6148,285.8424 L 165.0757,284.6867 L 166.2635,285.6519 L 167.4816,286.1849 L 168.3179,285.3907 L 168.9249,286.4248 L 169.7503,286.0439 L 170.6450,286.7652 L 171.5796,285.5911 L 171.9377,286.4309 L 172.6560,285.8815 L 173.1624,286.2537 L 173.2184,287.4629 L 173.5315,288.4598 L 174.3549,288.7192 L 174.8324,289.3538 L 175.2259,290.2136 L 176.3175,289.3361 L 176.8318,290.0728 L 177.4459,290.6003 L 178.2357,290.6839 L 178.4306,291.5774 L 178.4073,292.9306 L 178.8176,293.5879 L 179.3436,293.9155 L 179.5798,294.8629 L 180.7960,294.8961 L 180.8765,296.1779 L 181.3587,297.3027 L 182.1496,298.2649 L 183.0712,299.1604 L 184.0904,300.1633 L 185.4384,300.9752 L 186.0942,302.3646 L 186.9618,303.4252 L 187.9883,303.8245 L 188.4629,304.8713 L 189.4084,305.2609 L 189.5453,306.1304 L 189.3661,307.3336 L 188.8319,308.8235 L 189.0254,309.8381 L 189.0503,310.6904 L 188.5726,311.6989 L 188.2050,312.5142 L 188.8344,313.0233 L 189.0660,313.8334 L 189.6797,314.4321 L 191.0016,314.7242 L 192.3463,315.1948 L 193.5268,315.1167 Z"/>
      </g>
      <g id="dag_V1" style="display:inline;" inkscape:label="dag_V1" inkscape:groupmode="layer">
        <path style="stroke:white;fill:none;display:inline;filter:url(#dropshadow);stroke-width:2;stroke-opacity:1;fill-opacity:0" d="M 686.2991,235.2662 L 686.4370,234.1275 L 687.3392,233.9528 L 688.0151,233.9080 L 688.7595,233.3845 L 689.9513,233.2841 L 690.2250,232.2319 L 691.2509,231.4384 L 692.2724,230.3868 L 693.1851,229.6633 L 693.5007,228.4076 L 694.6143,228.3492 L 695.6013,227.7823 L 696.5655,227.1351 L 697.4615,226.1259 L 698.2307,224.9586 L 698.5209,223.5189 L 698.1000,221.5503 L 698.4149,219.7711 L 699.1105,218.5173 L 699.2308,217.0632 L 699.8447,216.6070 L 699.9528,215.6489 L 700.2250,214.6300 L 700.5781,213.7141 L 700.2320,212.2449 L 701.0908,211.8374 L 701.4890,210.6431 L 702.6759,210.3167 L 703.0543,209.2374 L 703.2106,208.4275 L 703.4457,207.8253 L 703.9068,207.1519 L 703.5225,205.9423 L 703.5833,205.0704 L 703.7568,204.1853 L 704.9019,203.8717 L 704.2267,202.5200 L 704.8378,201.7458 L 705.1719,200.8717 L 705.4705,199.9661 L 705.4201,198.9195 L 705.1343,197.6095 L 704.2748,196.1924 L 703.0760,195.2445 L 701.6783,194.3329 L 700.2520,193.4210 L 698.8990,192.2772 L 697.6614,190.9022 L 696.4465,189.6160 L 695.1829,188.2187 L 694.0126,186.5925 L 693.0290,185.8461 L 692.4117,186.2318 L 690.6718,184.2787 L 689.2026,182.2523 L 688.0554,181.9805 L 687.0364,181.9744 L 685.9839,182.0332 L 684.5483,181.3487 L 683.6890,181.7593 L 682.7355,181.8436 L 681.5857,181.4763 L 680.6535,181.6139 L 679.8036,181.7910 L 678.9522,182.1712 L 678.0349,183.0202 L 676.7866,181.3257 L 675.5395,181.4803 L 674.6564,179.8812 L 673.2772,178.9131 L 672.1613,177.4197 L 670.9362,177.2861 L 669.6566,176.9535 L 668.8987,175.0533 L 667.8762,173.4014 L 667.3206,171.9987 L 666.8758,170.6844 L 665.4823,170.9539 L 664.2120,171.2370 L 663.0690,171.2589 L 661.4953,173.6771 L 659.8629,175.1034 L 659.0071,174.3136 L 658.8897,172.7089 L 657.7079,174.4934 L 656.7132,174.2883 L 657.0751,172.4752 L 655.7930,173.5412 L 655.4166,171.8485 L 655.3294,169.9724 L 654.2610,169.6481 L 653.4926,168.9503 L 653.8386,167.1833 L 654.8222,165.0625 L 654.8495,163.7955 L 654.6444,162.7515 L 653.5349,164.4454 L 652.2207,164.8271 L 650.9830,165.2405 L 649.5738,164.3873 L 647.3589,163.1285 L 646.2228,163.8986 L 644.3772,163.3845 L 643.2499,163.8212 L 642.1641,164.2509 L 642.1810,165.5200 L 643.6910,166.7887 L 643.9310,168.3052 L 645.0479,169.9099 L 646.3075,171.4530 L 647.0054,172.9919 L 647.6044,174.9847 L 648.3896,177.6708 L 649.3698,179.9937 L 649.9493,182.0003 L 650.8550,182.8290 L 651.0560,184.3669 L 650.9622,185.7826 L 650.8260,186.9019 L 650.6996,187.9177 L 652.2945,187.4471 L 652.2654,188.6965 L 652.1330,189.7941 L 652.2104,190.6587 L 652.7435,191.4725 L 651.9589,192.9728 L 651.6744,194.4285 L 651.7809,195.6144 L 651.5652,196.7921 L 651.4694,198.1638 L 652.0650,199.3766 L 653.0400,200.4211 L 654.4992,201.6464 L 656.1649,203.1860 L 657.5005,204.3216 L 657.6974,206.0980 L 657.7004,207.8204 L 657.5735,209.5158 L 658.5271,210.4818 L 659.8085,211.1129 L 659.2944,212.4286 L 659.2650,213.5513 L 660.4254,214.4352 L 661.7069,215.5596 L 662.9100,216.8068 L 663.9531,218.0984 L 664.7673,219.5229 L 664.6511,221.1022 L 666.0201,221.6551 L 666.6460,222.3452 L 667.1982,222.8516 L 668.0477,223.4927 L 668.5148,224.7131 L 669.3018,225.8906 L 670.6804,226.0433 L 671.3115,227.4224 L 672.6855,228.1953 L 674.0251,228.7173 L 674.5026,229.9261 L 675.7581,231.0776 L 676.9571,232.4600 L 678.1069,232.4263 L 679.0726,233.8219 L 679.8439,234.9775 L 680.6537,235.0801 L 681.6346,235.4682 L 682.6859,236.9076 L 683.3982,236.3238 L 683.3867,234.7724 L 684.4622,235.1509 L 685.5658,235.4081 Z"/>
      </g>
      <g id="dag_V2" style="display:inline;" inkscape:label="dag_V2" inkscape:groupmode="layer">
        <path style="stroke:white;fill:none;display:inline;filter:url(#dropshadow);stroke-width:2;stroke-opacity:1;fill-opacity:0" d="M 212.8812,297.6203 L 212.8977,296.2805 L 211.8478,295.7790 L 211.6458,294.4852 L 211.4951,293.2907 L 210.4830,292.7961 L 209.9269,291.7202 L 208.8661,290.5650 L 207.7952,290.4154 L 207.1681,289.3148 L 206.5734,288.1479 L 205.9964,286.9235 L 205.0378,286.4044 L 204.0490,286.0150 L 202.9003,285.4902 L 202.3482,284.6749 L 201.9374,283.9564 L 201.6116,282.8945 L 200.2645,282.5671 L 198.9341,282.3562 L 198.1614,281.6188 L 197.3516,280.8058 L 196.6922,279.8788 L 196.2514,278.9274 L 194.6897,278.7083 L 193.3307,278.2711 L 192.0172,277.8275 L 191.0016,277.9479 L 189.9905,278.1473 L 188.6788,277.8256 L 187.1432,277.6725 L 185.4128,277.8801 L 183.9923,277.8024 L 182.9299,278.0101 L 182.3213,278.3336 L 181.5653,278.1198 L 180.5638,277.9069 L 179.4620,278.7680 L 178.2115,279.6616 L 177.1512,279.2212 L 176.4083,280.3385 L 175.5764,281.0476 L 174.7110,282.4911 L 173.7117,284.0384 L 174.2463,284.8706 L 174.1436,286.5776 L 174.7856,286.9268 L 175.6565,287.1692 L 175.9533,288.3465 L 177.2031,287.2695 L 177.6483,288.1021 L 178.2294,288.7193 L 178.9854,289.0197 L 179.8937,289.2129 L 179.8548,290.3326 L 179.2913,291.6354 L 179.5665,292.2254 L 179.9515,292.7630 L 180.3949,293.2371 L 180.9071,293.7056 L 182.2070,293.2546 L 182.1094,294.7791 L 182.3094,296.0798 L 182.7372,297.2042 L 183.4100,298.1786 L 184.2053,299.0898 L 185.0103,299.8691 L 186.1278,300.0335 L 186.9347,301.2664 L 188.0747,302.4781 L 189.2295,303.4814 L 189.9808,304.2027 L 190.5196,304.8789 L 190.6051,305.9521 L 190.4133,307.2504 L 190.2859,308.3790 L 190.4458,309.3278 L 189.9050,310.6864 L 189.5529,311.7526 L 190.8667,311.6133 L 190.7433,312.5919 L 191.1411,313.4316 L 192.2420,313.9561 L 193.7049,313.7675 L 194.6728,314.2756 L 195.1706,314.9763 L 196.0730,315.1530 L 196.3002,316.6201 L 196.9695,316.9064 L 197.0474,318.6011 L 197.3712,320.1848 L 197.9526,318.3405 L 198.7781,317.4659 L 199.6409,316.3911 L 200.1280,317.2695 L 200.8612,316.5317 L 201.4667,316.7054 L 202.2808,316.0370 L 203.1102,316.7362 L 204.0877,316.1554 L 205.0173,315.5710 L 206.2985,315.1832 L 207.5091,315.1382 L 208.8775,314.3934 L 210.1689,314.1815 L 211.3291,313.0801 L 212.5218,312.2466 L 212.9712,312.9761 L 213.4675,312.1918 L 214.3398,312.4783 L 214.9479,311.4637 L 215.0208,310.2315 L 215.1315,308.8015 L 215.3966,307.2294 L 214.7635,306.1288 L 214.5779,304.2947 L 214.8484,302.8036 L 214.4054,301.7576 L 214.2189,300.3786 L 213.9350,299.0775 L 213.6603,298.0112 Z"/>
      </g>
      <g id="dag_V2" style="display:inline;" inkscape:label="dag_V2" inkscape:groupmode="layer">
        <path style="stroke:white;fill:none;display:inline;filter:url(#dropshadow);stroke-width:2;stroke-opacity:1;fill-opacity:0" d="M 143.0299,275.4736 L 144.2941,275.8150 L 145.5023,276.1425 L 146.6613,276.4504 L 147.6985,276.9224 L 148.7596,277.6149 L 150.1189,278.1083 L 151.3735,278.1963 L 152.3294,279.0071 L 153.1582,279.9238 L 154.2727,280.2733 L 155.5193,280.7031 L 156.0751,282.3113 L 156.8223,284.0670 L 157.5545,285.5807 L 158.2647,286.1143 L 158.9466,286.5374 L 160.0219,287.8524 L 158.9306,287.8214 L 158.2801,288.8552 L 157.2874,288.9255 L 156.6629,289.7186 L 155.9613,290.7531 L 155.3986,292.3532 L 154.2540,293.0374 L 152.6653,292.3092 L 152.3394,293.5612 L 151.0779,293.3101 L 149.7524,293.6841 L 149.7973,294.9409 L 148.7911,295.1787 L 148.1976,296.7184 L 146.7500,297.6531 L 145.6294,298.3876 L 144.9992,299.6124 L 143.9304,300.4403 L 144.0321,301.9350 L 143.9168,303.3584 L 143.5919,304.9367 L 142.9169,306.6656 L 143.0901,308.3408 L 142.1086,309.1948 L 142.5470,310.7165 L 142.6823,312.1304 L 142.5829,313.5132 L 141.9745,314.6726 L 140.9098,315.5170 L 140.8444,316.8549 L 140.2343,318.0081 L 139.0831,318.7083 L 138.0629,319.6007 L 138.0065,321.1472 L 136.8996,321.7384 L 135.9894,322.5163 L 135.7201,323.8226 L 135.3988,325.3820 L 135.4681,327.0279 L 136.0796,328.5292 L 135.4512,330.1774 L 136.1404,331.2532 L 135.6403,332.6184 L 135.3330,334.3378 L 135.2856,336.2800 L 135.2952,337.7466 L 136.0017,339.2908 L 136.0648,341.1889 L 136.8762,342.5383 L 136.9474,343.7857 L 136.3535,345.0463 L 135.2813,346.3030 L 136.2474,346.9945 L 136.3390,348.0772 L 136.4759,349.3784 L 136.6103,350.9304 L 137.0477,352.4509 L 136.1684,353.8102 L 136.4042,355.1702 L 136.9878,356.3140 L 137.2285,357.7148 L 135.7184,358.0475 L 134.3209,357.6560 L 133.1086,357.1204 L 131.8804,357.0955 L 130.3732,356.8380 L 128.6509,356.4849 L 127.2660,355.5918 L 125.9707,355.2948 L 124.6255,354.7250 L 123.2770,353.9990 L 122.0911,353.4995 L 121.1590,352.5374 L 119.9061,352.7456 L 118.6518,352.9592 L 117.3103,353.1908 L 115.8844,353.2344 L 115.0907,353.9323 L 114.1503,354.3331 L 113.3514,355.5088 L 112.0121,355.4191 L 111.4568,353.6367 L 111.1471,351.8651 L 110.7996,350.7889 L 110.8165,349.3801 L 111.5015,347.4139 L 112.0564,345.3607 L 111.6435,342.4554 L 111.8619,340.4181 L 111.5569,338.4720 L 111.8573,336.0827 L 112.4335,333.1901 L 113.1350,330.9528 L 113.5381,328.4875 L 114.4139,326.7603 L 114.6915,325.1673 L 115.1757,323.6155 L 115.2351,321.9435 L 115.5061,320.4802 L 116.1562,319.0954 L 117.2528,317.5974 L 118.6304,316.0128 L 118.4922,314.6431 L 119.7969,313.0938 L 120.8153,311.4363 L 121.7137,309.4574 L 121.6869,307.9002 L 122.5010,306.1615 L 123.6520,304.4122 L 124.6818,302.9102 L 125.6834,301.4071 L 126.5948,299.5348 L 126.9288,297.3585 L 126.7761,295.2975 L 127.6954,293.8219 L 128.4478,292.0506 L 128.7383,290.5240 L 129.0255,289.2415 L 129.7191,287.5206 L 130.8414,286.9050 L 132.0334,286.5328 L 132.8485,284.6346 L 133.8578,282.6334 L 135.1781,281.5163 L 135.7995,280.2519 L 136.2981,278.9208 L 137.4245,277.9699 L 138.8651,276.7001 L 140.4907,275.6026 L 141.9725,274.8914 Z"/>
      </g>
      <g id="dag_V2" style="display:inline;" inkscape:label="dag_V2" inkscape:groupmode="layer">
        <path style="stroke:white;fill:none;display:inline;filter:url(#dropshadow);stroke-width:2;stroke-opacity:1;fill-opacity:0" d="M 704.6431,243.0456 L 703.1085,243.3396 L 702.2325,243.9626 L 700.4718,243.5421 L 698.8483,243.3209 L 697.5788,243.4803 L 696.6195,244.4289 L 695.1054,244.6693 L 693.3822,245.0707 L 691.7053,245.2953 L 690.5004,244.3508 L 689.4890,243.3300 L 689.1202,242.0132 L 688.7158,240.4993 L 687.6742,238.9573 L 686.6957,236.9222 L 687.0828,235.8439 L 687.4150,234.9656 L 687.8341,234.4462 L 688.6385,234.4739 L 689.8126,234.4471 L 690.9138,234.2733 L 691.2386,233.1799 L 692.5884,233.3271 L 692.8022,231.9966 L 693.8316,231.4959 L 694.4977,230.1285 L 695.5453,229.5640 L 696.4701,228.9680 L 697.5290,227.9957 L 698.2744,226.5607 L 699.1481,226.0002 L 699.2687,224.5753 L 699.2088,223.0077 L 699.0886,221.4766 L 699.6353,220.4982 L 700.4853,219.7548 L 700.4212,218.0229 L 700.7670,216.7181 L 700.7898,215.6990 L 701.3132,214.9218 L 701.4569,213.3541 L 702.1740,212.2933 L 703.0710,211.6248 L 704.1003,210.9554 L 705.2083,210.5186 L 704.6089,209.2502 L 705.5403,208.9122 L 706.4022,208.6029 L 705.3154,207.3353 L 705.5599,206.6934 L 705.7841,205.9463 L 706.1884,205.2822 L 707.0801,204.8744 L 706.1030,203.7094 L 706.7326,203.0895 L 706.9657,202.1583 L 707.3010,201.2990 L 707.7455,200.3983 L 707.1622,199.0882 L 709.8442,201.1238 L 710.7141,202.0175 L 711.3150,203.1371 L 712.2930,204.4467 L 714.0864,205.8694 L 714.9160,207.0394 L 716.6001,207.8936 L 718.4316,208.4221 L 719.8297,209.5410 L 721.3740,210.7522 L 723.0685,211.7032 L 723.9223,212.3179 L 724.8766,212.9550 L 726.0574,213.8696 L 726.8120,214.8862 L 727.1580,216.0200 L 728.6507,216.1050 L 727.7699,217.0013 L 726.7686,217.9077 L 725.6664,218.7732 L 725.6533,219.8741 L 724.1160,220.9640 L 723.0171,222.1536 L 722.3051,223.1926 L 721.7020,224.3048 L 720.7755,224.9973 L 719.6448,225.8259 L 718.5974,226.5345 L 718.0720,227.7227 L 717.6409,228.8246 L 716.5896,229.4955 L 715.7094,230.6039 L 714.9274,231.6781 L 714.5615,233.1198 L 713.7615,234.1375 L 712.9494,235.2604 L 712.4435,236.5367 L 711.1417,237.4764 L 709.6551,238.4705 L 708.5140,239.8565 L 706.9904,240.9896 L 706.0091,242.0624 Z"/>
      </g>
      <g id="dag_V2" style="display:inline;" inkscape:label="dag_V2" inkscape:groupmode="layer">
        <path style="stroke:white;fill:none;display:inline;filter:url(#dropshadow);stroke-width:2;stroke-opacity:1;fill-opacity:0" d="M 655.2952,245.0788 L 655.9034,244.3743 L 656.8649,243.8028 L 658.0477,243.2399 L 658.6198,242.1376 L 657.5964,240.9969 L 657.1536,239.9393 L 657.0911,238.7587 L 657.5800,236.9862 L 658.1861,235.1210 L 658.6949,233.0430 L 658.9787,231.2499 L 658.9001,229.7355 L 658.5910,228.4211 L 658.3801,227.0159 L 658.2649,225.6026 L 658.9605,225.4302 L 660.4485,225.3313 L 662.1566,225.3388 L 663.7022,224.8378 L 665.4370,224.3890 L 666.9813,224.1902 L 665.8784,223.1065 L 664.4451,222.4551 L 663.0267,221.8524 L 663.2789,220.5544 L 663.2412,219.3295 L 662.3266,218.2706 L 661.1450,216.9806 L 659.7518,215.7443 L 658.4637,214.6189 L 657.2082,213.5139 L 657.4023,212.0580 L 656.4307,211.1636 L 655.3291,210.6218 L 656.1768,209.1337 L 656.0933,207.5987 L 656.5273,205.3994 L 655.2878,204.4127 L 654.1143,202.9977 L 652.5817,201.6416 L 651.2305,200.6721 L 650.8574,199.3990 L 650.4271,198.3962 L 650.6564,197.3958 L 650.5953,195.9909 L 650.6243,194.2198 L 651.3385,192.2999 L 651.0521,191.5165 L 651.2344,190.2574 L 651.0049,189.4384 L 650.1475,189.2274 L 648.8221,189.4095 L 648.4745,188.6223 L 649.0983,187.2769 L 649.3178,186.1046 L 648.7932,185.3315 L 649.6401,183.7883 L 648.2670,183.3240 L 648.8589,181.6281 L 648.2020,180.2773 L 647.2839,178.6612 L 646.7892,176.2152 L 646.0550,174.1044 L 645.3026,172.6103 L 644.2045,171.2514 L 642.9266,170.1940 L 643.4984,169.3488 L 642.0364,168.8740 L 642.1945,167.1837 L 640.6528,165.9051 L 640.7728,164.4285 L 639.3964,164.8436 L 638.5087,164.4997 L 637.3987,164.7552 L 636.1054,165.7480 L 635.0056,164.3152 L 633.6651,164.1444 L 632.2565,163.7485 L 630.8447,163.6425 L 629.3950,163.6030 L 627.9076,163.5587 L 627.0672,164.8646 L 625.1187,163.7755 L 623.3999,163.4243 L 622.5817,165.4510 L 621.9569,166.9648 L 621.6326,167.7999 L 621.8818,169.3152 L 622.2774,171.7158 L 621.6316,173.5990 L 621.1245,175.2369 L 621.2859,177.3531 L 621.4725,179.1924 L 622.4337,180.7931 L 623.9150,182.3604 L 624.0866,183.9733 L 624.4202,185.5483 L 624.6898,187.1931 L 625.5963,188.8438 L 625.2913,190.4662 L 625.2117,192.0368 L 625.4487,193.7198 L 625.0483,195.1880 L 625.8596,196.5550 L 626.5013,198.3895 L 627.5863,199.8170 L 627.5345,201.1191 L 628.6733,202.2267 L 629.5491,203.8638 L 630.6830,205.3746 L 631.6326,207.0401 L 632.2762,208.6348 L 632.0308,210.8639 L 632.3394,212.7981 L 632.7801,214.4715 L 632.4792,217.0522 L 632.8289,219.7861 L 633.9381,221.1626 L 634.8969,223.3766 L 636.2355,225.7646 L 637.3577,227.9309 L 638.7672,229.8259 L 640.1219,232.4853 L 641.5909,234.0048 L 643.0942,235.5337 L 644.4047,237.5698 L 646.4852,240.2270 L 648.6890,242.7613 L 650.3286,244.6008 L 651.4106,244.4087 L 653.0229,245.0809 L 654.9684,245.9786 Z"/>
      </g>
      <g id="dag_V3." style="display:inline;" inkscape:label="dag_V3." inkscape:groupmode="layer">
        <path style="stroke:white;fill:none;display:inline;filter:url(#dropshadow);stroke-width:2;stroke-opacity:1;fill-opacity:0" d="M 110.9008,343.4067 L 110.4729,341.0784 L 111.0474,339.7857 L 110.9470,337.0930 L 111.3295,333.5017 L 112.3565,330.5759 L 112.5715,328.0693 L 113.4445,325.9637 L 114.0733,323.8728 L 114.3739,322.3483 L 114.4830,320.7886 L 114.6736,319.2884 L 115.3930,317.7113 L 117.0169,316.1849 L 117.1399,314.5349 L 118.4856,313.3843 L 119.3266,311.9596 L 120.2868,310.4977 L 120.5058,309.0500 L 120.9559,307.2510 L 121.4918,305.7301 L 122.4618,304.3920 L 123.4991,302.7839 L 124.5791,300.9891 L 125.5733,299.6158 L 125.9111,297.4524 L 125.6833,295.1328 L 126.1755,293.5984 L 126.8803,293.1522 L 127.4165,291.6402 L 128.0689,289.7350 L 128.6012,287.5527 L 129.2122,285.6453 L 130.3140,285.4070 L 131.5056,285.0607 L 132.3505,283.2828 L 133.0899,281.3524 L 134.5253,280.7344 L 135.2643,279.1835 L 135.6193,278.0615 L 136.2914,277.4844 L 136.3218,276.1353 L 136.4729,274.7414 L 135.6221,274.1314 L 135.2729,272.9081 L 134.2962,272.5477 L 134.2602,271.1912 L 132.9811,271.3704 L 131.9127,272.0983 L 130.3570,272.4016 L 128.4733,273.1542 L 126.6475,273.9443 L 124.8915,274.6309 L 123.3324,274.5535 L 121.9103,276.1301 L 121.0326,277.7467 L 119.6621,279.0993 L 118.2574,279.9548 L 116.8353,281.7882 L 115.0613,283.7476 L 113.5293,285.5159 L 112.0932,287.5024 L 110.8426,290.1451 L 109.6668,293.1665 L 108.9521,296.6906 L 108.4326,299.8596 L 108.0193,302.1108 L 108.1128,304.5504 L 108.1788,306.6406 L 107.5545,308.1925 L 107.0432,310.2742 L 106.6924,312.2811 L 106.1405,314.4694 L 105.4063,316.4603 L 104.2834,318.5587 L 103.0996,321.3562 L 102.0287,323.8926 L 100.7103,325.9487 L 99.8893,329.0864 L 99.0050,332.6638 L 98.3986,335.5781 L 97.3242,338.5928 L 97.3159,340.9602 L 96.3410,344.3565 L 95.5088,347.6638 L 94.8214,350.4725 L 94.8803,352.7728 L 94.1863,355.0132 L 94.2228,357.5244 L 94.5612,359.9350 L 94.0486,362.1246 L 93.6788,364.8315 L 94.6713,364.1732 L 95.7366,363.6599 L 96.1622,361.8694 L 97.1589,361.6347 L 97.8464,359.9914 L 99.0719,360.0536 L 100.2105,360.2703 L 101.4122,359.5764 L 102.8830,359.2951 L 103.8860,358.1539 L 104.5226,356.8499 L 105.5320,356.4612 L 106.7772,356.8679 L 107.7569,356.9633 L 108.7001,355.8656 L 110.3124,355.1553 L 110.1854,353.1441 L 110.3253,351.7113 L 109.9562,350.6413 L 109.4861,348.6915 L 110.1342,347.1441 L 110.5985,345.2075 Z"/>
      </g>
      <g id="dag_V3." style="display:inline;" inkscape:label="dag_V3." inkscape:groupmode="layer">
        <path style="stroke:white;fill:none;display:inline;filter:url(#dropshadow);stroke-width:2;stroke-opacity:1;fill-opacity:0" d="M 215.2831,300.3640 L 214.9391,299.0779 L 214.6644,297.6693 L 213.8390,296.8271 L 213.8910,295.5330 L 212.8011,295.0069 L 212.6991,293.7697 L 212.4477,292.6180 L 211.2104,292.1739 L 210.9410,291.0688 L 209.9416,290.5782 L 209.4870,289.3582 L 208.2419,289.2654 L 207.6952,288.0742 L 207.1766,286.8397 L 206.8925,285.3929 L 205.9123,285.6547 L 205.2048,284.8934 L 204.0073,284.6229 L 202.9346,284.2505 L 202.5984,283.3366 L 202.6823,282.3692 L 201.4160,281.7007 L 199.7545,281.5554 L 199.0401,280.5991 L 197.9911,279.9517 L 197.9495,278.9342 L 197.4085,277.9045 L 195.8483,278.0135 L 194.5752,277.6377 L 193.4192,277.1718 L 192.4384,276.5956 L 191.1144,277.1766 L 189.9685,276.8810 L 188.6512,276.6558 L 187.3276,276.3908 L 186.1028,276.9565 L 184.6933,276.7018 L 183.0708,276.8082 L 182.2808,277.3085 L 181.9241,275.9249 L 182.1199,274.5718 L 182.9252,273.9697 L 183.4385,273.6132 L 184.2222,273.1451 L 184.2948,272.3232 L 185.2658,271.2216 L 185.8178,269.8439 L 186.4870,268.5482 L 186.3751,267.3004 L 187.3998,266.4492 L 188.2059,265.7375 L 188.2962,264.8967 L 189.4142,264.4764 L 190.7721,264.6519 L 192.3992,264.2874 L 193.9504,264.0641 L 194.8041,264.8428 L 196.1583,265.1514 L 197.8927,265.4189 L 199.5157,265.0322 L 200.9798,264.8988 L 202.1440,264.8691 L 203.3241,265.3049 L 204.0834,266.1321 L 205.2616,266.4877 L 206.7301,266.4141 L 207.8416,266.5968 L 209.1138,266.3203 L 210.4400,266.8072 L 211.3092,267.9088 L 212.5655,267.7850 L 213.2638,268.8367 L 213.9567,269.8685 L 214.3885,270.9007 L 215.3763,271.6133 L 215.9858,272.9706 L 217.1872,273.3793 L 218.4325,273.8792 L 218.9539,275.1154 L 220.2113,276.1229 L 220.3839,277.4091 L 221.1708,278.2848 L 221.9642,279.3210 L 222.4468,280.4078 L 222.6672,281.4802 L 222.9419,282.8072 L 222.9272,284.0399 L 223.2922,285.1068 L 223.8653,286.5157 L 224.0947,288.3613 L 224.4396,289.4312 L 224.7318,290.6562 L 225.4877,291.8969 L 226.0348,293.0492 L 226.1058,294.6393 L 226.0745,296.5961 L 226.6037,298.0962 L 227.3025,299.1321 L 227.0156,300.8278 L 226.3806,302.1759 L 225.8448,301.3137 L 224.7657,302.0518 L 223.8195,302.7469 L 223.0953,303.4360 L 222.3577,303.5184 L 222.2129,304.4312 L 221.5247,304.5475 L 220.5778,305.4597 L 219.6542,305.8878 L 219.1373,307.5676 L 218.1947,308.2659 L 217.5656,309.3513 L 217.0781,310.3335 L 216.3125,311.5784 L 215.3614,312.5038 L 215.6964,310.8485 L 215.7912,309.3237 L 215.8484,308.0475 L 216.3276,306.7642 L 215.8999,305.6168 L 215.4361,304.6411 L 215.5824,303.3044 L 215.6686,301.7273 Z"/>
      </g>
      <g id="dag_V3." style="display:inline;" inkscape:label="dag_V3." inkscape:groupmode="layer">
        <path style="stroke:white;fill:none;display:inline;filter:url(#dropshadow);stroke-width:2;stroke-opacity:1;fill-opacity:0" d="M 636.2449,227.6965 L 634.9136,225.3183 L 633.4246,222.6530 L 632.0222,220.8458 L 631.8495,218.7177 L 631.4156,217.1402 L 631.8205,215.0451 L 631.2962,213.3712 L 630.8106,211.2141 L 631.1819,209.1238 L 630.2873,207.3347 L 629.5203,205.7533 L 628.3655,205.0483 L 628.1874,203.5143 L 627.2628,202.5205 L 626.1419,201.4437 L 626.2366,200.0084 L 624.7880,198.8733 L 624.8510,197.4969 L 623.8796,196.0031 L 623.9693,194.4253 L 623.4561,192.8939 L 623.6998,191.1139 L 623.9074,189.5903 L 623.8542,188.3401 L 622.8266,187.2897 L 623.0856,186.0989 L 622.6703,184.6108 L 622.2034,182.6035 L 621.0572,180.4282 L 620.4272,178.1644 L 620.1323,175.5057 L 620.4891,172.9630 L 621.0970,170.8680 L 620.8719,168.3921 L 620.8184,166.5719 L 619.8640,165.4457 L 618.8649,164.2473 L 617.8057,164.8035 L 616.8207,166.1009 L 616.3832,168.7272 L 615.2518,169.3644 L 615.0059,171.6704 L 614.2368,172.7902 L 613.3357,174.1428 L 612.4120,174.7369 L 611.9012,176.1313 L 611.0193,177.4236 L 611.7699,179.9133 L 611.1734,181.5807 L 610.7186,183.6459 L 611.4703,186.5121 L 612.4830,189.1221 L 613.4739,191.3611 L 614.3422,193.1343 L 614.2825,194.6758 L 613.9449,196.3500 L 614.6632,197.8441 L 614.5416,199.5989 L 614.2875,201.8461 L 615.1511,203.4540 L 614.8668,206.1030 L 614.8546,208.7418 L 614.8755,211.3517 L 615.9316,212.2712 L 616.1659,214.6918 L 616.4907,217.0290 L 616.8472,219.3129 L 617.2460,221.4763 L 617.7777,223.2289 L 619.0276,223.8357 L 620.6904,224.3573 L 622.1255,225.7188 L 623.3513,227.2046 L 624.5245,228.9077 L 625.6686,230.9869 L 626.4207,233.2032 L 626.7977,235.2278 L 627.0776,236.9316 L 627.4522,237.8043 L 628.2346,238.6458 L 629.1588,240.1331 L 630.2086,240.8364 L 630.6396,242.8934 L 631.5389,244.1780 L 632.7570,244.1840 L 633.7857,245.3417 L 635.3226,245.8438 L 636.3011,247.1390 L 637.2680,248.7732 L 638.5934,249.1287 L 639.5087,250.4758 L 640.6533,250.7225 L 641.6216,252.1517 L 642.9202,252.8192 L 644.4674,253.9272 L 646.3412,255.1574 L 647.7236,255.3885 L 649.4181,256.6531 L 651.3677,258.7552 L 653.1180,260.5505 L 654.2447,260.4335 L 655.5713,261.3939 L 655.9013,260.3234 L 655.6843,258.9341 L 656.4262,258.1802 L 655.4835,256.3492 L 654.7237,254.4225 L 654.1822,252.4897 L 654.7496,251.6219 L 655.4586,251.0488 L 654.4483,249.0748 L 653.5674,247.3020 L 652.6909,245.7551 L 651.7357,245.8921 L 651.0151,246.5110 L 649.2255,244.5512 L 647.9489,242.6414 L 647.1606,242.5032 L 645.3796,239.6406 L 644.1215,238.5198 L 643.3138,237.1387 L 642.4218,235.9877 L 640.9379,234.6856 L 639.0567,232.2437 L 637.5746,229.9832 Z"/>
      </g>
      <g id="dag_V3." style="display:inline;" inkscape:label="dag_V3." inkscape:groupmode="layer">
        <path style="stroke:white;fill:none;display:inline;filter:url(#dropshadow);stroke-width:2;stroke-opacity:1;fill-opacity:0" d="M 692.4225,251.4649 L 691.4210,250.7324 L 690.1837,250.1771 L 689.1819,249.5942 L 689.1526,248.2323 L 687.9081,247.9987 L 688.7078,246.7841 L 688.7149,245.4654 L 689.1225,244.3416 L 689.9439,245.6823 L 691.2646,246.5292 L 692.9193,246.2037 L 694.5441,245.9144 L 696.1517,245.6313 L 697.7267,244.4851 L 699.4645,244.3792 L 701.2614,244.7149 L 703.0408,244.9984 L 704.1135,244.2507 L 705.6384,243.8338 L 706.6617,242.9133 L 707.9852,241.5331 L 709.4933,240.3043 L 710.3264,238.9888 L 711.8151,238.3381 L 712.7740,237.2607 L 713.5050,236.3143 L 713.9515,235.3634 L 714.8522,234.9019 L 715.8077,234.2233 L 715.9358,232.8286 L 716.1503,231.6238 L 716.9359,230.7944 L 717.8518,229.9024 L 718.6284,228.9020 L 719.3277,227.5315 L 720.4694,226.5989 L 721.6033,225.8284 L 722.6301,224.4977 L 723.6163,223.0462 L 724.3005,221.8843 L 725.5457,221.0016 L 726.8451,219.9856 L 726.8617,218.9216 L 728.1802,218.0342 L 728.9135,216.9961 L 729.6786,217.6100 L 730.5265,218.4653 L 731.3907,219.7122 L 732.4622,220.7931 L 733.5051,220.3342 L 734.0723,219.5920 L 734.5488,220.9286 L 735.4157,220.6561 L 735.4759,219.0670 L 736.3584,218.8899 L 737.4794,218.7204 L 738.7739,219.0429 L 739.9744,219.3427 L 740.9267,218.6569 L 742.1047,218.5043 L 743.2629,218.7823 L 744.3657,219.4459 L 745.3564,219.8290 L 744.6508,220.8657 L 744.2617,222.0999 L 743.1692,222.7056 L 741.8397,223.2796 L 741.5389,224.6543 L 741.0228,226.0520 L 739.9919,227.6010 L 738.6189,228.4253 L 737.6547,229.1852 L 736.8604,229.9418 L 736.1175,231.0208 L 735.5739,232.7796 L 734.7174,234.7397 L 733.5213,236.1277 L 732.3564,237.1580 L 731.7935,238.5709 L 731.2253,239.5495 L 729.9628,239.7487 L 728.6240,239.9111 L 728.0690,240.6306 L 727.2220,241.4465 L 726.2797,242.4008 L 725.5333,243.5231 L 724.0715,244.0540 L 723.0296,245.4289 L 721.7037,246.3470 L 720.5661,247.2287 L 719.4454,248.1078 L 718.2672,248.9990 L 716.8068,249.3835 L 716.4269,250.4771 L 714.9603,250.7519 L 714.3862,251.8268 L 713.7844,252.8704 L 713.2361,253.8965 L 711.7887,254.0362 L 710.2977,254.3353 L 709.3236,255.1508 L 708.8530,254.3210 L 707.3843,254.3591 L 706.1993,253.7874 L 705.1331,254.4134 L 704.0057,254.4496 L 702.6690,254.5586 L 701.3101,254.8796 L 700.6075,253.9487 L 699.8103,253.0845 L 698.9922,252.4099 L 697.8918,252.3265 L 696.6237,252.0441 L 695.2395,251.6727 L 693.8096,251.4246 Z"/>
      </g>
      <g id="dag_V3ab" style="display:inline;" inkscape:label="dag_V3ab" inkscape:groupmode="layer">
        <path style="stroke:white;fill:none;display:inline;filter:url(#dropshadow);stroke-width:2;stroke-opacity:1;fill-opacity:0" d="M 223.1356,280.8546 L 223.1855,281.9152 L 223.6153,282.9265 L 223.4913,284.0485 L 223.8760,285.1671 L 224.4959,285.9526 L 224.7177,287.4789 L 224.8774,289.0596 L 225.5568,290.2294 L 226.3118,291.7415 L 226.6901,293.5517 L 226.9707,295.3409 L 227.0275,296.8318 L 227.5619,297.7045 L 228.2112,298.5336 L 228.0036,299.9863 L 227.8848,301.2991 L 228.6223,300.9218 L 229.4618,300.3836 L 230.2563,298.9418 L 230.9807,297.4311 L 230.5665,296.1905 L 231.3301,295.1097 L 231.5784,293.9236 L 231.9189,292.7719 L 231.5504,291.7314 L 232.1665,290.5300 L 232.5321,289.1096 L 232.7486,287.4912 L 232.0738,285.9556 L 232.5860,284.3970 L 232.9389,283.3718 L 232.3594,282.6422 L 232.6326,281.0279 L 232.0793,279.7274 L 232.5964,278.3392 L 233.1152,277.0236 L 233.5260,275.3643 L 234.2325,274.2448 L 234.2918,272.8749 L 234.2348,271.4166 L 233.9307,270.1519 L 233.9606,269.1255 L 233.8496,267.7346 L 233.6385,266.2729 L 232.7032,264.4739 L 233.2060,263.7200 L 232.9621,262.2334 L 232.0292,260.5583 L 231.6901,259.1453 L 232.3806,258.3501 L 232.4576,257.2972 L 232.5876,256.4583 L 232.0245,255.6449 L 232.8148,254.7794 L 232.6380,253.6481 L 232.3307,252.4798 L 233.2632,251.8939 L 233.3075,250.7325 L 234.6583,250.6110 L 235.0321,249.6455 L 234.6127,248.4612 L 233.3370,247.3622 L 232.3575,246.4203 L 232.0720,245.3962 L 231.6157,247.3199 L 230.4418,248.1990 L 229.2670,248.8323 L 227.9806,249.3397 L 226.7796,249.8057 L 225.2933,249.6436 L 224.1099,250.1597 L 223.9020,251.4998 L 223.6449,252.5759 L 222.8976,252.8336 L 222.6080,253.7104 L 221.7694,254.2766 L 222.0653,255.7782 L 222.0642,257.1541 L 221.8161,258.5771 L 222.0708,260.2334 L 221.7226,261.5618 L 221.5466,262.5869 L 222.0222,263.6718 L 222.5020,265.0289 L 223.0928,266.4382 L 222.6039,267.2484 L 222.7736,268.4855 L 222.9727,269.9183 L 223.1984,271.1563 L 222.8966,272.0812 L 222.5719,273.1752 L 222.2624,274.4902 L 222.7335,276.0205 L 221.8104,276.4266 L 221.5525,277.3160 L 222.4343,278.3569 L 222.9516,279.5385 L 227.2418,302.3348 Z"/>
      </g>
      <g id="dag_V3ab" style="display:inline;" inkscape:label="dag_V3ab" inkscape:groupmode="layer">
        <path style="stroke:white;fill:none;display:inline;filter:url(#dropshadow);stroke-width:2;stroke-opacity:1;fill-opacity:0" d="M 735.5602,270.0497 L 736.8419,269.0311 L 737.7033,268.2807 L 737.8421,267.4795 L 737.9305,266.4049 L 739.1700,265.2819 L 739.3101,263.6740 L 739.8883,261.8737 L 740.9600,260.8340 L 741.5270,259.3600 L 740.9463,258.2159 L 741.2944,256.7849 L 742.2869,255.8355 L 743.5261,254.7471 L 743.5262,253.2258 L 744.7410,252.8436 L 744.7056,251.9340 L 745.4929,250.7198 L 746.2508,249.4600 L 747.3506,248.1257 L 747.5650,246.8284 L 747.7408,245.7428 L 748.4343,244.3621 L 749.2320,242.6311 L 750.3677,240.9792 L 750.4471,239.8025 L 751.6404,238.1201 L 752.1466,236.5298 L 752.3948,235.2491 L 752.5277,233.8063 L 753.6672,232.8092 L 754.6150,231.1171 L 754.9877,229.6682 L 755.2214,228.3234 L 756.0748,227.7494 L 756.1956,226.4885 L 756.6524,224.8920 L 755.8080,225.2753 L 755.4276,224.1873 L 754.2697,224.6087 L 754.1853,223.6063 L 753.1483,224.1404 L 752.7996,222.8787 L 751.3737,222.8252 L 750.2090,222.0717 L 748.6913,222.4731 L 748.1284,220.8283 L 747.0316,220.6388 L 745.9942,220.8295 L 745.4863,222.1929 L 744.3745,223.1777 L 743.0723,224.0190 L 742.8642,225.4830 L 741.7393,227.0906 L 740.8254,228.6783 L 739.4359,229.2563 L 738.4133,229.6579 L 737.7462,230.5964 L 736.9472,231.1429 L 736.4982,232.4297 L 735.8425,234.3144 L 735.0591,236.3071 L 734.1586,236.6224 L 733.1562,237.8845 L 732.4337,239.2347 L 731.8701,239.8781 L 730.8536,240.2263 L 729.5059,240.5137 L 728.7984,241.4223 L 727.8549,242.4069 L 727.0220,243.4577 L 726.3945,244.5460 L 725.2389,244.6331 L 724.4872,245.4496 L 723.9608,246.5538 L 722.8148,246.7283 L 721.9260,247.5345 L 720.8478,248.3790 L 721.2458,249.4941 L 721.5587,250.3123 L 721.9330,251.2539 L 721.5370,252.6482 L 721.5156,253.9972 L 722.2537,255.1938 L 722.4385,256.7364 L 722.2668,258.1003 L 721.9974,259.3975 L 722.7735,260.2574 L 723.5757,261.0724 L 724.3694,261.9277 L 724.0423,263.7609 L 724.5019,265.3428 L 724.9902,266.7861 L 725.3211,268.1583 L 726.0320,268.6833 L 726.0471,269.5190 L 727.0446,270.0313 L 726.8481,271.1479 L 727.5297,271.6471 L 727.7254,272.3854 L 728.8023,272.5917 L 728.6277,273.6414 L 729.8437,273.8269 L 731.7149,272.9503 L 732.3286,271.7350 L 734.2990,271.0562 Z"/>
      </g>
      <g id="dag_hV4" style="display:inline;" inkscape:label="dag_hV4" inkscape:groupmode="layer">
        <path style="stroke:white;fill:none;display:inline;filter:url(#dropshadow);stroke-width:2;stroke-opacity:1;fill-opacity:0" d="M 86.1822,344.3052 L 86.0755,347.6104 L 86.0967,350.6288 L 86.3445,353.3439 L 86.7245,356.1900 L 86.8224,359.4607 L 87.0298,362.5185 L 86.4772,365.2007 L 85.8890,367.8271 L 86.4556,370.5907 L 86.0639,372.6836 L 86.4555,375.2598 L 86.9200,378.0953 L 87.2651,380.5999 L 88.1255,382.2081 L 89.3156,381.0727 L 90.1188,378.9070 L 90.8820,377.5397 L 92.0285,377.8009 L 92.8815,375.8919 L 93.4989,373.4612 L 94.2148,370.5928 L 94.4104,367.0057 L 93.5758,367.7687 L 92.7409,366.4058 L 92.9408,362.5945 L 93.5308,359.7557 L 93.2920,356.4167 L 93.9161,352.5633 L 94.4108,348.9362 L 95.1902,345.4755 L 96.2160,341.9801 L 96.2691,339.4673 L 97.5587,335.8265 L 98.2868,332.1989 L 98.8879,328.7288 L 100.1294,324.9837 L 101.6828,322.8823 L 102.7039,320.0208 L 103.5442,317.5452 L 104.5547,316.4200 L 105.0381,314.7763 L 105.2126,313.1442 L 105.6718,311.8943 L 106.1374,310.1250 L 106.5915,308.5245 L 106.5328,306.2687 L 107.2982,305.0260 L 107.3602,302.4080 L 107.6129,299.7346 L 108.1975,297.0154 L 108.8022,294.6046 L 109.1899,291.9363 L 110.1524,290.2543 L 111.2904,287.2177 L 112.9234,284.7196 L 114.4693,282.8870 L 115.9609,281.3357 L 117.5135,279.6511 L 119.0077,278.2463 L 120.4315,277.1578 L 120.9853,275.6832 L 122.0296,274.4392 L 123.2038,272.9844 L 124.5920,273.0777 L 125.8887,273.0732 L 127.4603,272.3405 L 129.4580,271.2919 L 131.5898,270.7764 L 132.7160,269.7770 L 132.7500,268.3911 L 132.7321,267.2070 L 133.2725,265.9492 L 133.9230,264.2089 L 134.7306,262.2950 L 135.2039,260.4596 L 133.8716,261.3155 L 132.4919,261.7381 L 131.3260,262.5316 L 129.8941,262.7751 L 128.6135,262.2605 L 127.3747,262.3917 L 126.0306,262.2620 L 124.6025,262.2438 L 123.2317,263.1946 L 122.0014,263.9305 L 120.6557,262.7475 L 119.1002,262.6200 L 117.6384,262.9641 L 116.1801,264.4951 L 114.9666,265.2481 L 114.1800,267.0972 L 112.8431,268.3208 L 111.6280,268.8586 L 110.5514,270.1269 L 109.4873,271.7292 L 108.4670,271.9080 L 107.0197,273.8577 L 105.4900,275.2776 L 104.6504,276.4644 L 103.8536,277.8553 L 102.7992,280.5345 L 101.5041,283.0593 L 100.4765,285.1746 L 99.5040,286.2659 L 99.0909,288.9702 L 98.1021,290.4183 L 97.0762,292.8848 L 96.4857,296.6025 L 96.0182,299.9994 L 95.1514,299.9443 L 94.3640,301.5712 L 93.8931,304.8263 L 93.3751,307.8775 L 92.7268,310.8471 L 91.9982,313.6918 L 90.9536,315.6944 L 89.7190,317.6026 L 89.0658,320.7631 L 88.3108,324.1594 L 87.6513,327.4244 L 87.1265,330.7443 L 86.5200,334.2996 L 86.3949,337.4118 L 86.2770,340.8857 Z"/>
      </g>
      <g id="dag_hV4" style="display:inline;" inkscape:label="dag_hV4" inkscape:groupmode="layer">
        <path style="stroke:white;fill:none;display:inline;filter:url(#dropshadow);stroke-width:2;stroke-opacity:1;fill-opacity:0" d="M 610.1455,228.5970 L 609.1823,225.4532 L 608.3641,222.3620 L 607.6990,219.3827 L 607.0277,216.2160 L 605.9748,214.0309 L 605.2959,211.3143 L 605.3284,208.3014 L 605.3289,205.8813 L 604.6630,203.6700 L 603.8924,201.0499 L 603.3864,198.4292 L 603.9627,196.4200 L 602.7582,193.4248 L 601.9200,190.5136 L 601.0287,187.7667 L 601.1768,185.1776 L 601.3802,182.7286 L 600.4213,180.3331 L 601.5526,180.3829 L 603.0403,180.4634 L 604.1190,179.3203 L 605.2847,179.8866 L 606.4153,180.5248 L 607.6807,179.8630 L 608.9953,179.5574 L 610.2604,179.1490 L 609.9863,181.1177 L 609.0911,181.8491 L 609.6292,184.6349 L 610.8401,187.7162 L 611.9387,190.3390 L 613.0516,192.6659 L 612.8435,194.3456 L 612.6523,196.2042 L 613.5701,198.0901 L 613.1747,200.2104 L 613.0797,202.5753 L 613.8309,204.7060 L 613.8553,207.6585 L 613.9374,210.3664 L 613.9437,212.9780 L 614.9479,213.9271 L 615.1764,216.3745 L 615.5429,218.7549 L 615.9471,221.1365 L 616.4587,223.7212 L 617.8077,225.3069 L 619.4156,225.9434 L 620.8695,226.6569 L 622.1464,227.3880 L 623.0199,229.1282 L 624.2839,230.4185 L 624.9034,232.2697 L 625.4092,234.4217 L 625.8072,236.5025 L 626.1871,238.2087 L 626.9144,238.2255 L 627.3917,239.0583 L 628.3165,240.4692 L 629.4814,242.3858 L 630.2296,244.6742 L 630.9613,246.4875 L 632.1491,245.9949 L 632.9628,247.3187 L 634.6028,247.0525 L 635.5906,248.6740 L 636.9142,250.3691 L 638.2508,250.5093 L 639.3320,252.0582 L 640.4872,251.9586 L 641.3262,253.3126 L 642.3965,253.9775 L 643.7811,254.8541 L 645.4146,255.8740 L 647.1924,257.1134 L 648.2411,256.8064 L 650.0670,258.5565 L 651.8780,260.5439 L 653.2703,261.9582 L 654.4982,262.2473 L 655.8195,262.8293 L 657.1700,262.6553 L 656.9581,263.7156 L 657.9719,265.1140 L 657.9903,266.3216 L 658.1862,267.8631 L 658.4030,269.5348 L 657.9127,270.5168 L 658.2484,272.0432 L 658.6320,273.6878 L 657.6665,274.1528 L 656.6077,274.3998 L 656.6550,275.9532 L 655.4155,275.7785 L 654.3902,275.5576 L 653.2766,274.3245 L 652.2699,274.7659 L 650.6433,272.8337 L 649.3896,270.4577 L 648.5471,268.7604 L 648.0632,267.6805 L 646.8907,267.5621 L 645.5443,268.1372 L 643.5135,268.0384 L 641.3181,267.7787 L 639.1547,266.8056 L 637.5199,265.8173 L 636.3121,264.5707 L 635.2218,264.5289 L 633.6620,263.3348 L 632.0850,262.1137 L 630.4679,260.7167 L 628.8069,259.9094 L 627.6263,258.9962 L 626.8253,257.0970 L 625.3197,256.2154 L 624.5998,254.3407 L 623.2500,254.2962 L 621.6506,252.6285 L 619.5846,250.6021 L 617.9225,248.5104 L 616.7993,247.2813 L 615.3679,245.8674 L 613.8431,244.2000 L 612.5096,240.1599 L 611.1905,236.8586 L 610.1515,233.6719 L 609.7485,230.6172 Z"/>
      </g>
      <g id="dag_LO" style="display:inline;" inkscape:label="dag_LO" inkscape:groupmode="layer">
        <path style="stroke:white;fill:none;display:inline;filter:url(#dropshadow);stroke-width:2;stroke-opacity:1;fill-opacity:0" d="M 182.5353,259.8979 L 181.9219,261.1043 L 181.1762,262.1921 L 180.6626,263.4904 L 181.0458,264.3938 L 181.6570,265.3162 L 182.3641,266.1902 L 183.1873,266.9238 L 184.0652,267.5610 L 185.1109,268.0649 L 185.2878,267.0897 L 186.0716,266.2693 L 187.0920,265.4556 L 187.2298,264.3739 L 188.6059,263.8669 L 189.9362,263.5557 L 191.3732,263.3875 L 192.9179,263.2113 L 194.5091,263.0587 L 195.6622,263.9714 L 197.0725,264.4872 L 198.4027,264.2562 L 200.0027,263.8908 L 201.5611,264.0370 L 202.8431,264.2884 L 204.1825,264.4317 L 204.7885,265.3839 L 206.2676,265.4332 L 208.0192,265.3923 L 209.7326,264.7780 L 210.0672,265.8419 L 210.9495,265.6294 L 211.8002,266.6937 L 213.2096,266.6334 L 213.6450,267.8677 L 214.5542,268.7887 L 215.1275,270.1541 L 216.2736,270.5897 L 216.7042,271.9466 L 217.9311,272.4589 L 219.2197,273.0873 L 219.8542,274.5273 L 221.3171,275.2427 L 220.6712,273.7382 L 221.2644,272.8036 L 221.6577,271.6035 L 222.1684,270.5737 L 221.8539,269.0372 L 221.7487,267.5555 L 221.7959,266.0643 L 221.3186,264.5165 L 220.9281,263.2226 L 220.5114,261.8672 L 220.8290,260.5986 L 221.0695,259.4919 L 220.4703,258.5245 L 220.9638,257.3891 L 221.3333,256.3497 L 221.0550,255.1053 L 220.5704,253.5715 L 221.1637,252.7876 L 221.7998,252.1995 L 222.6644,251.5513 L 223.0622,250.3273 L 223.3150,249.5101 L 223.6962,248.6603 L 224.8697,248.0831 L 223.6733,247.2839 L 222.5444,247.2659 L 221.3073,246.4725 L 220.4371,245.4695 L 219.3643,245.0626 L 218.0842,244.4739 L 216.9110,243.8701 L 215.6621,242.6516 L 213.9541,241.9553 L 212.6368,241.2058 L 211.4892,241.4127 L 210.3183,240.6024 L 208.9140,239.9011 L 207.5033,239.3177 L 205.7107,239.0122 L 203.4749,238.7722 L 201.7053,238.3419 L 200.8761,238.1644 L 199.7999,237.5648 L 198.2525,236.8878 L 196.4185,236.3350 L 194.7856,236.2250 L 193.4499,236.1807 L 192.0598,236.1129 L 190.4746,235.1589 L 189.1494,235.0946 L 187.9131,235.3197 L 186.5927,235.5286 L 184.9490,234.9165 L 183.6079,234.1840 L 183.2267,235.1271 L 182.3478,235.4179 L 180.7425,235.2643 L 179.8604,236.2289 L 180.4474,237.3519 L 181.1756,238.5417 L 181.7505,239.6458 L 181.3273,240.5704 L 181.6353,241.8644 L 182.7014,242.5085 L 183.0812,243.4682 L 183.3422,244.4891 L 183.3949,245.5997 L 183.4931,246.7716 L 183.7931,248.0168 L 182.0250,248.4901 L 181.8076,249.5270 L 182.6976,250.7091 L 182.6995,252.0985 L 182.9581,253.5942 L 182.5766,255.0214 L 182.2506,256.6049 L 182.4346,258.2883 Z"/>
      </g>
      <g id="dag_LO" style="display:inline;" inkscape:label="dag_LO" inkscape:groupmode="layer">
        <path style="stroke:white;fill:none;display:inline;filter:url(#dropshadow);stroke-width:2;stroke-opacity:1;fill-opacity:0" d="M 680.9937,269.7357 L 681.3918,268.4003 L 682.0851,267.2750 L 681.3135,266.0223 L 681.3032,265.0724 L 681.2635,264.2750 L 681.0349,262.9965 L 681.2048,261.7762 L 682.3308,261.2598 L 683.6275,261.1286 L 684.9155,260.6216 L 686.3983,261.3812 L 687.9370,262.0772 L 689.1911,261.5610 L 689.9600,260.6683 L 689.2333,259.5418 L 690.1255,258.7578 L 689.9907,257.6307 L 689.9759,256.2817 L 689.1392,254.8093 L 688.4943,252.8561 L 689.3835,252.3374 L 690.1278,251.4664 L 691.2120,251.9897 L 692.0137,252.4895 L 693.0018,252.5107 L 694.2896,252.7537 L 695.6328,253.1210 L 696.9956,253.6982 L 698.4683,253.5258 L 699.1973,254.4849 L 699.9313,255.3759 L 700.7114,256.2024 L 702.0207,255.7348 L 703.2918,255.4799 L 704.6295,255.3434 L 705.9492,254.9505 L 706.8417,255.4615 L 708.1003,255.2869 L 708.7775,256.1260 L 710.3473,255.7005 L 711.4116,254.9547 L 712.8526,255.0162 L 714.1478,254.6512 L 714.7724,253.7562 L 715.4166,252.7059 L 715.9781,251.5936 L 717.5035,251.3377 L 717.8495,250.2175 L 719.0906,250.0118 L 719.8571,249.2368 L 720.4829,250.4394 L 720.6229,251.5661 L 719.9655,252.3575 L 720.5883,253.3245 L 720.3884,254.3475 L 721.3065,254.7411 L 721.0081,255.4111 L 721.5493,256.2580 L 721.3736,257.3434 L 721.1099,258.5831 L 720.9650,259.6805 L 721.5125,260.7586 L 722.4507,261.6175 L 723.2137,262.6054 L 722.6250,264.1290 L 723.2144,265.3403 L 723.6907,266.6392 L 723.9987,267.9212 L 724.0873,269.1116 L 724.9622,269.3869 L 724.5879,270.4353 L 725.5347,271.1223 L 726.3394,272.4449 L 727.4447,273.3638 L 726.1323,273.8681 L 725.0499,274.4126 L 724.5315,275.6131 L 722.9470,275.8256 L 721.0469,276.2167 L 719.0812,277.7985 L 717.4416,278.4420 L 716.0974,278.5974 L 714.8299,278.9140 L 713.9822,278.8727 L 712.6855,279.2847 L 710.6895,280.0066 L 708.5202,280.8028 L 707.2454,281.5479 L 706.4032,282.5365 L 705.1407,283.8586 L 703.9224,283.7466 L 702.6312,283.2823 L 701.1157,282.8680 L 699.1180,282.7754 L 698.1223,284.4044 L 696.1375,284.9634 L 694.0673,285.5770 L 692.8509,286.5529 L 691.8826,286.8893 L 690.6686,286.9267 L 688.9197,286.6577 L 687.8939,287.5849 L 686.6826,288.4210 L 685.0049,288.2381 L 683.9319,287.3642 L 682.4769,287.6946 L 681.4208,286.7238 L 680.1718,285.8806 L 679.4601,284.6189 L 678.8456,283.2956 L 678.9955,281.7919 L 678.5504,280.6394 L 678.9891,279.4904 L 680.0459,278.4468 L 680.9456,277.4990 L 681.8195,276.6467 L 681.1315,275.5380 L 680.6647,274.3642 L 681.5333,273.6418 L 681.4060,272.5101 L 681.2078,271.2034 Z"/>
      </g>
      <g id="dag_TO" style="display:inline;" inkscape:label="dag_TO" inkscape:groupmode="layer">
        <path style="stroke:white;fill:none;display:inline;filter:url(#dropshadow);stroke-width:2;stroke-opacity:1;fill-opacity:0" d="M 141.0202,185.9153 L 140.2952,187.0274 L 140.4033,188.2921 L 139.3387,189.3994 L 139.0641,191.2962 L 137.7013,192.6403 L 137.5314,194.0774 L 136.6907,195.0759 L 137.0558,196.6936 L 136.4388,198.5764 L 136.2345,199.8009 L 135.2949,200.8274 L 134.2563,201.7669 L 133.3359,202.8099 L 132.5971,203.5671 L 132.7440,204.2931 L 133.9038,204.9590 L 134.9460,206.5048 L 135.0288,208.1677 L 136.6562,208.8296 L 137.3512,209.9437 L 137.7462,210.8386 L 138.7367,211.1198 L 139.7611,211.3531 L 140.5922,211.5892 L 141.9878,210.9210 L 142.2668,211.8853 L 142.6361,212.8503 L 144.0806,212.5405 L 145.4142,212.5627 L 145.2757,213.8692 L 146.0378,214.5789 L 147.5539,214.7529 L 147.9305,215.5146 L 148.3372,216.0557 L 148.8933,216.7806 L 149.2522,217.5951 L 149.5981,218.5142 L 150.2280,219.5099 L 150.3520,220.7809 L 151.0608,221.4891 L 151.6424,222.4353 L 151.4540,223.6650 L 152.8467,222.7508 L 154.0656,221.7441 L 155.6470,222.0187 L 157.2761,221.8482 L 158.7988,221.4641 L 160.0809,220.6526 L 161.3678,221.1641 L 162.7323,221.6517 L 163.7782,220.7114 L 164.5774,219.7787 L 165.4281,219.0491 L 166.4838,218.5328 L 166.9639,217.0960 L 168.0621,217.6370 L 168.9729,216.7904 L 168.4799,214.6336 L 169.1838,213.2715 L 169.9172,211.9714 L 169.4937,210.3134 L 170.5070,209.3005 L 171.0945,208.1554 L 171.0097,206.8197 L 171.4491,205.4031 L 171.4999,203.9993 L 171.3879,202.6675 L 172.4735,201.9897 L 172.0181,200.8328 L 172.7472,200.0385 L 172.5184,198.9756 L 173.6007,198.1108 L 174.6423,197.3813 L 174.9863,196.2603 L 175.3576,194.8112 L 175.7456,193.1234 L 175.5799,191.4111 L 175.2252,189.9370 L 175.9111,188.6390 L 176.5774,187.4938 L 176.6293,186.1658 L 176.6305,184.8568 L 177.1103,183.6694 L 177.6285,182.5069 L 177.7587,180.9606 L 178.0924,179.4687 L 177.8943,178.0118 L 178.8589,177.2149 L 178.4490,176.2769 L 178.5022,175.3807 L 177.9470,174.0067 L 176.0948,174.2401 L 174.3105,174.4633 L 172.6670,174.5016 L 171.7363,175.1102 L 170.5178,175.0824 L 169.3517,175.4213 L 167.8159,175.9881 L 166.0333,176.6901 L 164.2147,177.4169 L 162.5662,178.4611 L 161.3941,178.0906 L 160.1512,177.7408 L 158.9143,177.4967 L 157.5987,177.3875 L 156.2379,177.3174 L 154.7812,177.4452 L 153.4578,177.5241 L 152.4425,176.8010 L 150.7951,177.4929 L 149.3319,176.8947 L 147.5890,177.6939 L 147.0798,179.0783 L 145.8227,180.4308 L 144.2397,181.5865 L 143.1875,182.5533 L 142.8772,183.7141 L 141.7479,184.8467 Z"/>
      </g>
      <g id="dag_TO" style="display:inline;" inkscape:label="dag_TO" inkscape:groupmode="layer">
        <path style="stroke:white;fill:none;display:inline;filter:url(#dropshadow);stroke-width:2;stroke-opacity:1;fill-opacity:0" d="M 636.9355,334.2814 L 637.7645,335.7988 L 638.7514,337.2603 L 639.8564,338.6566 L 641.1605,340.1730 L 642.9877,341.4979 L 644.1607,343.1102 L 645.9426,344.3729 L 647.0315,346.3391 L 647.7934,347.4880 L 648.6976,349.2806 L 650.3203,351.1661 L 651.8754,354.1027 L 653.0894,356.2913 L 653.2766,358.9606 L 653.9893,360.9905 L 655.0163,362.3281 L 656.6092,363.3145 L 658.3531,364.4810 L 660.4165,366.1639 L 662.0702,366.4285 L 663.4631,367.4762 L 664.8015,368.2919 L 666.1410,368.4042 L 667.6380,368.2829 L 668.9718,368.3492 L 670.3751,367.9138 L 672.0051,367.4435 L 673.5225,367.6877 L 674.9673,367.9059 L 676.2626,368.5167 L 677.4054,367.3693 L 678.6587,366.5621 L 679.9047,365.1705 L 680.9550,364.0858 L 682.6293,363.4874 L 684.3687,362.2891 L 685.9012,361.3135 L 686.5314,360.0442 L 687.6888,358.5995 L 689.0149,357.3787 L 690.6826,356.6762 L 692.2611,355.7727 L 693.4903,354.6093 L 694.0242,352.7119 L 695.6703,352.2451 L 696.7554,350.8376 L 697.9350,349.4840 L 698.4850,348.2301 L 699.2682,347.1065 L 700.3258,346.1274 L 700.7277,344.9122 L 699.1146,343.8452 L 698.9949,342.5616 L 700.2040,341.2494 L 699.2283,340.4418 L 699.6083,338.8245 L 701.0527,337.1793 L 701.7490,335.8488 L 700.9745,334.9765 L 699.7145,333.7821 L 699.4419,332.3520 L 698.5172,331.0923 L 698.4209,329.6600 L 698.3877,328.7302 L 697.7174,328.0242 L 696.7078,326.8132 L 695.6309,325.3274 L 694.7725,323.7285 L 694.2591,322.1430 L 694.0088,320.7592 L 693.9355,319.6461 L 692.7930,319.3411 L 691.2659,318.9764 L 690.3256,318.0349 L 689.2630,317.1579 L 687.8519,316.2897 L 687.0521,315.2700 L 686.0150,315.1940 L 684.5135,315.0088 L 682.5332,314.9659 L 680.7192,314.2932 L 679.4144,313.6823 L 678.6903,312.5229 L 677.6945,311.3104 L 676.5953,309.9557 L 674.7040,309.4464 L 672.9672,308.9608 L 671.5508,307.6077 L 670.2437,306.4688 L 669.0633,305.5497 L 668.1785,304.6761 L 667.6356,303.8495 L 666.9766,303.7257 L 665.9282,304.2191 L 664.6204,304.1279 L 662.7739,304.3404 L 660.8095,304.4080 L 658.8890,303.8876 L 657.1371,304.3101 L 656.1082,304.5898 L 655.3769,305.3030 L 654.1782,305.5266 L 652.4924,305.0806 L 651.2307,305.2084 L 651.0209,306.4959 L 649.9217,307.1718 L 648.7688,307.8290 L 646.9781,307.7427 L 645.7515,308.1997 L 644.8359,309.1669 L 643.9086,309.4164 L 642.9227,309.8105 L 643.0574,311.7178 L 642.5667,312.7936 L 642.0869,313.9520 L 641.4085,314.8096 L 640.6002,315.5001 L 639.5633,315.8176 L 639.7053,317.7844 L 638.9408,318.6883 L 638.1370,319.2310 L 637.0831,319.5555 L 635.5025,318.8488 L 634.7148,319.2871 L 633.7728,319.6061 L 632.7286,319.9265 L 632.6671,321.1093 L 632.5671,322.1731 L 632.4302,323.2490 L 632.1324,324.2411 L 631.6926,325.1736 L 633.1637,327.0524 L 634.4003,328.6826 L 634.5491,329.8735 L 634.5067,331.1290 L 635.8916,332.6970 Z"/>
      </g>
    </g>
    <g inkscape:label="labels" inkscape:groupmode="layer" id="rois_labels" transform="translate(0,0)" style="display:inline;">
    <text x="681.2920630210037" y="205.7114026205474" style="font-family:Helvetica, sans-serif;font-size:14pt;font-weight:bold;font-style:italic;fill:white;fill-opacity:1;text-anchor:middle;filter:url(#dropshadow)" data-ptidx="216524">dag_V1</text><text x="637.5058995740546" y="189.56493089076343" style="font-family:Helvetica, sans-serif;font-size:14pt;font-weight:bold;font-style:italic;fill:white;fill-opacity:1;text-anchor:middle;filter:url(#dropshadow)" data-ptidx="210497">dag_V2</text><text x="726.9078395613768" y="231.27540637005907" style="font-family:Helvetica, sans-serif;font-size:14pt;font-weight:bold;font-style:italic;fill:white;fill-opacity:1;text-anchor:middle;filter:url(#dropshadow)" data-ptidx="238124">dag_V3.</text><text x="731.7591749838064" y="255.4580116531799" style="font-family:Helvetica, sans-serif;font-size:14pt;font-weight:bold;font-style:italic;fill:white;fill-opacity:1;text-anchor:middle;filter:url(#dropshadow)" data-ptidx="247240">dag_V3ab</text><text x="620.9496423361321" y="240.1403312445835" style="font-family:Helvetica, sans-serif;font-size:14pt;font-weight:bold;font-style:italic;fill:white;fill-opacity:1;text-anchor:middle;filter:url(#dropshadow)" data-ptidx="193945">dag_hV4</text><text x="702.9163044470235" y="268.50794754009127" style="font-family:Helvetica, sans-serif;font-size:14pt;font-weight:bold;font-style:italic;fill:white;fill-opacity:1;text-anchor:middle;filter:url(#dropshadow)" data-ptidx="213460">dag_LO</text><text x="671.9363531618877" y="336.8432152658885" style="font-family:Helvetica, sans-serif;font-size:14pt;font-weight:bold;font-style:italic;fill:white;fill-opacity:1;text-anchor:middle;filter:url(#dropshadow)" data-ptidx="229604">dag_TO</text></g>
  </g>
  <svg:g id="sulci" style="display:inline;" inkscape:label="sulci" inkscape:groupmode="layer" class="display_layer">
    <svg:g id="sulci_shapes" style="display:inline;" inkscape:label="shapes" inkscape:groupmode="layer" clip-path="url(#edgeclip)"/>
    <svg:g id="sulci_labels" style="display:inline;" inkscape:label="labels" inkscape:groupmode="layer"/>
  </svg:g>
  <svg:g id="cutouts" style="display:inline;" inkscape:label="cutouts" inkscape:groupmode="layer" class="display_layer">
    <svg:g id="cutouts_shapes" style="display:inline;" inkscape:label="shapes" inkscape:groupmode="layer" clip-path="url(#edgeclip)"/>
    <svg:g id="cutouts_labels" style="display:inline;" inkscape:label="labels" inkscape:groupmode="layer"/>
  </svg:g>
  <svg:g id="display" style="display:inline;" inkscape:label="display" inkscape:groupmode="layer" class="display_layer">
    <svg:g id="display_shapes" style="display:inline;" inkscape:label="shapes" inkscape:groupmode="layer" clip-path="url(#edgeclip)"/>
    <svg:g id="display_labels" style="display:inline;" inkscape:label="labels" inkscape:groupmode="layer"/>
  </svg:g>
</svg>
