<svg xmlns:svg="http://www.w3.org/2000/svg" xmlns="http://www.w3.org/2000/svg" xmlns:xlink="http://www.w3.org/1999/xlink" xmlns:inkscape="http://www.inkscape.org/namespaces/inkscape" width="1163.580810546875" height="1024.0" id="svgoverlay" version="1.1">
  <defs id="defs4">
    <clipPath id="edgeclip">
      <path id="clippath" d="M754.846680 814.303833 L754.024414 815.195251, 754.334167 816.490417, 754.496216 818.104126, 753.330933 819.088928, 753.752625 820.657532, 752.705444 822.128967, 752.628052 823.927002, 752.679871 825.435364, 752.682129 826.893250, 752.655396 828.450867, 752.555237 830.243042, 751.657654 831.482666, 752.140320 832.762085, 751.800720 834.096252, 751.835266 835.742554, 751.515869 837.122803, 752.354065 838.857605, 753.841553 840.814575, 754.627930 842.777832, 754.531372 844.440796, 755.766113 846.000000, 755.867004 848.037659, 756.756775 849.765991, 758.134094 850.833618, 758.754272 853.350342, 759.334351 855.686707, 759.777466 858.052551, 761.391724 858.717346, 762.834351 859.840820, 763.706482 862.305664, 764.356140 864.518799, 765.686218 865.800110, 766.576355 868.770081, 768.026611 871.325256, 768.647034 874.381592, 769.752686 877.179993, 770.518005 879.376648, 771.740967 881.179749, 772.174011 883.844360, 773.478333 885.890015, 774.496826 887.975098, 775.458069 888.473267, 776.715088 890.649658, 777.980530 893.731445, 779.007263 895.814453, 780.064941 897.286621, 781.450256 899.579407, 783.218323 902.315308, 784.854492 903.610291, 786.564697 906.210022, 788.472595 908.800903, 790.235229 910.979431, 791.969543 913.202087, 793.567200 914.607971, 795.745178 917.959839, 797.382385 920.508240, 798.239319 921.209412, 799.148499 922.253357, 800.697815 924.566895, 800.921753 925.959656, 803.676697 929.747375, 806.872986 933.651306, 809.605896 937.165649, 812.329346 940.429993, 814.895447 943.343262, 817.331482 944.613770, 819.887146 947.586609, 822.475281 949.175781, 825.464722 951.219238, 827.575928 953.394165, 830.026611 955.280945, 831.553467 957.197327, 832.604492 958.819824, 835.057617 960.491882, 835.738892 961.777283, 837.156616 963.179871, 838.273865 964.714783, 840.320068 965.982727, 841.920227 967.166138, 843.652466 967.996704, 846.632080 969.537964, 849.419067 971.476440, 852.192505 972.420532, 854.481873 973.726379, 856.305115 974.945068, 857.811340 974.508667, 861.042542 975.956787, 862.731384 977.657654, 866.059875 979.075439, 869.883545 979.801208, 873.529236 981.821106, 876.041565 983.200684, 878.623901 983.788940, 881.492188 984.347656, 884.211182 985.653625, 886.152222 985.284607, 889.363464 986.028015, 893.486877 986.767639, 898.379517 988.905029, 899.875366 990.891846, 898.895691 992.785400, 901.852783 994.417786, 903.352234 997.000732, 905.942017 998.830872, 908.228882 1000.331665, 911.591125 1000.779846, 914.126160 1003.588684, 917.829956 1005.305664, 919.788940 1007.941223, 923.465271 1010.354248, 926.566956 1009.095886, 930.075562 1009.222229, 932.832153 1011.201416, 932.444214 1013.680115, 934.747681 1015.335754, 937.531067 1015.004517, 940.362793 1016.443604, 943.682800 1017.699646, 945.742310 1019.747559, 948.710266 1019.942383, 952.238525 1019.003174, 956.998230 1019.421875, 958.551514 1022.303589, 962.304138 1023.351013, 966.286011 1021.654724, 969.314819 1023.890442, 973.076721 1024.000000, 976.376160 1021.842346, 980.563660 1019.862366, 984.359009 1021.452026, 988.518005 1020.140991, 990.198547 1016.878723, 992.485657 1013.925598, 996.462585 1013.427979, 998.498840 1010.849304, 1001.037109 1008.037170, 1004.894226 1006.165894, 1008.109863 1004.791687, 1010.894531 1003.332703, 1012.633606 1001.709473, 1014.263550 1000.686523, 1015.200500 999.235107, 1015.356323 997.519531, 1017.506836 995.944397, 1019.991150 994.171509, 1023.120239 993.483154, 1024.725586 992.084534, 1027.378052 991.744507, 1029.306274 990.503479, 1031.630981 990.338196, 1033.247803 989.580444, 1034.370361 988.642151, 1036.265869 987.373535, 1038.950562 987.322876, 1041.265869 986.545776, 1041.995972 985.359314, 1043.915527 984.381836, 1045.660156 983.623535, 1047.831299 982.981323, 1050.331299 982.596313, 1050.920166 981.743164, 1050.094116 980.928894, 1051.762451 979.958740, 1053.262817 978.951782, 1054.578735 977.978455, 1055.983398 977.024902, 1057.869629 976.098083, 1056.694946 974.900635, 1058.470581 973.902039, 1059.520996 972.843323, 1060.087402 972.137451, 1060.926880 971.443054, 1062.443848 970.385132, 1063.922729 969.410767, 1064.970581 968.459717, 1065.865112 967.371399, 1063.850952 966.172363, 1063.300781 964.913696, 1065.048096 964.061218, 1065.452393 962.853943, 1067.166626 961.882690, 1067.104858 960.752075, 1067.421021 959.451660, 1068.005493 958.179138, 1070.290039 957.702820, 1071.729126 956.747314, 1072.306152 955.293823, 1074.212158 954.223572, 1075.923950 953.130615, 1076.076782 951.638672, 1076.472534 950.393066, 1077.112427 949.169189, 1076.248901 947.558289, 1078.357300 946.691956, 1077.935181 945.190247, 1078.481567 943.935852, 1078.685791 943.033997, 1079.822632 942.590942, 1079.960449 941.671570, 1079.951416 940.304565, 1082.719849 939.675293, 1084.618774 938.580688, 1083.706299 937.291260, 1084.412720 936.219055, 1084.384766 935.239075, 1084.456177 934.192139, 1085.823120 933.478027, 1086.096436 932.357788, 1084.186157 930.971924, 1084.645142 929.611145, 1085.109009 928.433472, 1084.061646 926.883667, 1085.709595 925.788452, 1083.963623 923.911499, 1085.130493 922.537964, 1085.526245 920.960815, 1083.870239 919.282837, 1084.213013 917.652710, 1084.470825 916.008179, 1085.651001 915.113831, 1085.083618 913.819580, 1084.976318 912.719360, 1084.243896 911.000061, 1085.547119 909.036072, 1087.078979 907.212524, 1088.583984 905.657227, 1090.354248 904.232422, 1092.024902 902.565552, 1093.562012 901.258362, 1095.627441 900.670288, 1096.051758 899.060181, 1096.619507 897.415405, 1097.589233 895.719849, 1098.667725 893.989990, 1099.608887 892.426270, 1101.825684 891.437195, 1103.085815 889.417603, 1102.319702 887.182495, 1101.449829 884.838135, 1103.058350 881.901611, 1105.540894 879.492249, 1107.744995 878.046509, 1108.467163 875.683838, 1107.858521 872.774414, 1108.415894 870.089600, 1110.838989 868.943726, 1112.066772 867.312134, 1113.499634 865.548096, 1112.717896 863.667175, 1114.929810 861.677795, 1118.129517 860.183350, 1120.270142 858.113953, 1122.610962 856.578369, 1122.488525 854.259827, 1125.515747 852.987915, 1124.927612 850.196350, 1123.478638 847.710754, 1125.482178 845.896912, 1127.443726 844.148438, 1128.213623 841.888184, 1128.499756 839.923340, 1130.699219 838.440918, 1133.353149 837.324890, 1135.496338 836.106323, 1137.447388 834.884766, 1139.375000 833.905029, 1141.146851 832.714111, 1141.482910 830.628540, 1141.857178 828.682983, 1142.117798 826.799194, 1144.363770 826.028442, 1146.069580 825.416870, 1146.958130 824.333984, 1148.386963 823.191467, 1149.801636 822.190735, 1152.098877 821.996887, 1154.686279 821.896667, 1155.685181 820.566772, 1157.049072 819.025146, 1160.379028 818.222839, 1160.123901 815.686768, 1159.023804 813.447449, 1161.405029 812.529114, 1163.580811 811.520691, 1162.746338 809.937012, 1163.240601 808.506104, 1163.516113 806.745239, 1161.267212 805.564087, 1161.396606 803.933044, 1161.489014 802.134766, 1161.530029 800.199768, 1158.992798 798.822998, 1159.058960 796.994507, 1158.713745 794.977478, 1158.141479 792.824829, 1157.700928 790.544983, 1157.438477 788.096802, 1157.331055 785.443542, 1152.954590 783.134888, 1149.559082 780.351562, 1146.136597 778.436829, 1144.101929 775.499939, 1140.150635 774.916260, 1137.409058 773.443054, 1134.534424 771.906799, 1132.122192 770.718750, 1130.226929 768.704651, 1126.408813 767.225342, 1123.449219 767.280396, 1120.912598 767.218140, 1118.941162 765.571533, 1116.879395 763.986877, 1114.789917 762.407959, 1114.712769 760.542725, 1114.457886 758.612793, 1113.949707 756.743042, 1114.010742 755.087769, 1112.364868 753.308289, 1111.382690 751.180542, 1108.724365 750.530273, 1106.460205 749.901123, 1105.380127 748.228577, 1103.263916 747.428894, 1101.336792 746.465576, 1100.229004 746.942139, 1098.618530 746.638794, 1097.571167 745.288086, 1095.401001 744.559509, 1093.403687 743.340881, 1091.530151 742.662354, 1089.814941 741.734619, 1088.984131 742.296570, 1088.757812 743.043823, 1087.460571 742.969238, 1086.164062 742.870117, 1085.244507 742.081055, 1084.122925 741.933960, 1083.169189 741.112305, 1082.308350 741.288086, 1081.212524 741.044922, 1079.899292 740.464539, 1079.577515 740.912720, 1078.871826 740.936401, 1078.017578 740.942383, 1077.040527 740.368530, 1076.202271 740.253296, 1075.164917 739.946533, 1074.214233 739.464844, 1073.723145 739.522705, 1072.937378 739.113647, 1072.033081 738.664734, 1071.607178 738.124390, 1071.187256 737.583130, 1070.307861 737.212158, 1069.549927 736.570496, 1069.245728 736.025879, 1069.033936 735.406616, 1068.224976 734.693665, 1067.370605 733.999939, 1066.871826 733.178101, 1065.493896 732.152832, 1065.131592 731.254089, 1064.859619 730.398315, 1063.354736 729.490906, 1062.956665 728.537964, 1062.597290 727.647583, 1062.282715 726.809570, 1062.034302 726.018738, 1060.636963 725.224060, 1059.095337 724.220337, 1058.838989 723.290527, 1057.064331 722.089844, 1055.800415 720.818970, 1055.725586 719.840332, 1053.661133 718.688965, 1052.817017 717.296509, 1050.965454 716.566284, 1049.338257 715.397827, 1047.569946 714.114746, 1046.167969 713.855835, 1044.211304 712.690979, 1041.875854 711.616455, 1040.038086 710.966736, 1038.290039 709.764893, 1036.278320 708.197144, 1033.955200 706.816040, 1031.771118 705.394165, 1029.755127 704.420044, 1028.145020 702.972412, 1025.912598 701.375366, 1023.867126 699.972778, 1022.000854 698.797363, 1020.958374 697.502319, 1018.798462 696.584717, 1017.400818 694.991028, 1015.014893 693.990967, 1012.559265 692.740662, 1010.960876 693.035034, 1008.161377 691.629395, 1005.095093 690.150757, 1002.131653 689.354004, 1000.334717 687.806702, 998.236328 686.632385, 997.277588 687.212158, 995.524902 686.495239, 994.527344 687.302490, 992.630615 687.155396, 990.799744 686.974243, 989.627441 687.518982, 988.365112 688.154663, 984.910889 687.240723, 982.085327 685.507141, 979.199585 684.998718, 976.574158 683.311401, 973.552673 682.657227, 970.387024 681.730713, 967.798340 680.591553, 965.949402 680.493286, 964.714417 680.946777, 961.726990 680.053711, 959.477844 678.807739, 956.863708 678.552734, 954.233459 677.299316, 952.366882 677.530884, 950.119934 676.843262, 948.491821 675.985352, 946.583435 675.855591, 944.382202 675.537231, 942.020508 675.320312, 939.928406 674.305908, 937.886475 674.214966, 935.646973 673.969604, 933.236389 673.574951, 930.450623 672.911865, 927.782288 672.654846, 925.729736 671.488098, 923.905884 671.719727, 922.171570 671.713989, 921.862854 672.738464, 919.530457 672.169067, 918.470764 672.768860, 917.744629 673.558289, 915.771851 673.456177, 915.667847 674.550903, 913.530884 674.718018, 911.209778 674.794800, 909.071838 675.163208, 907.518188 675.591675, 905.621094 675.471985, 905.224976 676.431396, 904.480530 677.422546, 901.356201 677.662720, 898.436584 677.069641, 896.189941 676.420288, 894.095215 675.588623, 892.205933 676.048645, 889.962402 675.741455, 889.100342 676.780762, 886.849426 676.965332, 884.766846 676.607300, 883.207031 677.189087, 881.064880 677.007935, 879.556824 677.797485, 877.703735 678.463745, 875.794250 679.057373, 873.831726 679.595398, 872.096924 679.969116, 870.958557 680.705322, 868.350403 680.699707, 866.325928 681.173462, 865.227600 681.872437, 863.391296 682.272339, 861.083069 682.355469, 859.116455 682.225769, 858.314941 683.003479, 856.829346 683.227173, 855.456299 683.344727, 854.487671 683.878052, 852.880859 683.511108, 851.436829 683.970825, 851.078491 685.212830, 849.533325 686.212219, 847.723572 687.101135, 844.983398 687.152588, 843.028687 686.110535, 841.378235 686.224304, 839.932617 686.884644, 838.660278 687.998169, 836.736328 687.271362, 834.889893 687.773071, 834.568604 689.379211, 834.041748 690.737183, 832.191650 691.483398, 831.031921 692.830078, 830.926392 694.284363, 830.473145 695.981934, 831.205261 697.513000, 831.087463 698.768494, 831.156494 700.187622, 831.379578 701.739746, 830.311646 702.628296, 829.871094 704.005127, 827.865479 704.420044, 826.051147 704.628784, 825.791992 705.986572, 824.082336 706.239502, 824.346802 707.870911, 824.524658 709.384583, 824.957031 711.025391, 824.125977 712.484009, 823.451599 714.190430, 823.627502 716.664185, 822.392639 718.777954, 820.766541 719.488892, 820.390259 721.970276, 818.944946 724.604492, 817.417969 727.772156, 814.035217 730.311279, 812.054871 732.042480, 810.226990 733.603027, 808.739929 734.945190, 807.688232 736.376587, 806.088745 738.113525, 804.118713 739.159302, 802.713623 740.436890, 800.630493 741.030762, 799.312622 742.281006, 797.571838 743.651489, 795.854187 745.188049, 793.812500 745.735046, 792.393066 746.997559, 790.494324 748.447449, 788.317566 748.580078, 786.501343 749.931458, 784.335327 750.383484, 783.550659 751.527710, 781.807800 752.230042, 780.266357 753.460083, 780.452942 754.868164, 778.646545 755.728577, 776.740173 756.212646, 775.781433 757.695190, 777.128113 759.047424, 775.979797 760.546143, 774.345032 762.031982, 773.116821 763.756226, 774.120605 765.227417, 772.385925 765.859375, 772.422913 767.525879, 773.992126 768.880188, 773.527161 770.365723, 774.081726 772.811707, 771.525330 775.038147, 770.597534 776.900757, 767.764160 778.278320, 765.618408 779.665100, 763.731689 780.712219, 763.780518 782.246094, 763.599915 784.060608, 762.229797 785.956360, 760.341919 787.108826, 760.172546 788.791077, 758.712585 790.209045, 757.174377 791.193176, 756.160156 792.535522, 757.354431 793.446045, 757.582764 794.803223, 757.063904 796.373840, 756.296509 797.652954, 755.756470 799.081055, 753.861511 799.546875, 752.377625 800.532166, 752.718811 801.766968, 752.899170 802.969177, 751.870483 803.548706, 751.471497 804.523193, 752.448120 805.554810, 751.919617 806.444763, 752.165100 807.460205, 752.489197 808.766418, 753.037292 810.180603, 753.749634 811.582764, 754.383057 812.920532, 754.846680 814.303833Z M398.240173 159.822998 L396.738556 158.630493, 397.074982 156.118103, 397.369720 153.503784, 396.751740 151.238464, 396.173828 149.061951, 395.465118 146.694824, 395.438568 144.415588, 396.276794 142.278381, 396.449982 139.959717, 396.693359 137.863586, 397.067200 135.840942, 397.551483 133.704956, 397.808807 131.624695, 395.904083 130.974609, 396.171661 128.880310, 394.470398 127.964478, 394.994263 126.006287, 395.734131 124.130066, 394.387146 123.069702, 393.067230 121.810608, 390.790344 121.195679, 388.624451 120.536743, 386.608856 119.556091, 384.778931 118.083801, 383.066498 116.491943, 383.682770 114.047913, 381.733032 113.692200, 381.183594 112.102966, 380.152405 110.906372, 378.566223 110.462341, 376.405396 109.630371, 374.828217 108.062622, 374.076477 106.590027, 371.871460 106.056824, 370.959747 103.640564, 371.178467 101.205872, 371.742706 99.213318, 370.533966 98.473328, 368.746002 98.444336, 368.427765 96.454895, 366.398926 95.908508, 366.259949 93.634521, 366.318665 91.856934, 365.041504 91.076172, 363.436798 90.288818, 361.788330 89.420044, 361.790955 87.196838, 360.698151 85.765869, 359.587860 84.761047, 359.654877 82.958557, 357.553345 82.500854, 357.115326 80.044556, 355.501312 78.781616, 355.097839 76.360657, 356.224396 73.465515, 355.581024 71.337280, 357.975769 68.641479, 357.680267 66.417419, 359.659607 63.591797, 356.946899 62.133362, 355.834229 59.868958, 355.456848 57.553650, 355.718506 54.959900, 354.758636 53.163452, 355.482910 50.730347, 352.459137 50.250244, 353.021271 48.001038, 351.577087 46.640076, 348.700043 47.163086, 347.819641 45.714050, 348.416260 43.695618, 345.777130 43.447693, 345.220123 41.606384, 342.466431 41.477417, 341.411438 39.865417, 341.350494 38.205750, 339.858551 36.858276, 338.015442 36.451721, 336.489685 35.896423, 337.310791 33.803711, 335.751465 32.248291, 334.594696 30.832581, 334.930481 28.949585, 332.456116 27.976013, 329.812469 27.176453, 327.310455 25.960754, 323.957550 25.554199, 321.141510 25.304077, 318.630493 24.869690, 316.015106 24.153931, 313.015961 23.676270, 310.150574 23.213684, 307.844269 21.763489, 304.706787 23.354736, 302.100830 22.450378, 299.717743 23.493896, 297.116150 24.289978, 295.355255 22.959351, 293.119690 23.474976, 290.682098 22.639160, 287.410645 22.529907, 285.700348 24.264526, 282.986603 24.863892, 280.121918 25.359619, 277.716125 24.146423, 274.882080 25.164673, 274.313690 27.339111, 272.058350 28.791626, 269.430054 30.416077, 267.183075 31.999817, 263.991608 32.614319, 261.001526 34.715820, 257.773987 34.062927, 254.569092 36.319336, 250.165878 37.215637, 245.301178 36.723877, 244.188950 41.051025, 243.055115 44.275024, 242.172562 47.045410, 239.909302 49.662842, 236.017395 50.590210, 232.356552 51.135071, 230.595810 54.124084, 228.615311 57.480774, 224.413803 59.364014, 219.983475 61.466919, 216.763916 64.554932, 213.112762 64.394226, 211.302643 66.964417, 209.311615 68.851318, 207.622940 70.570312, 204.976410 71.596313, 201.342865 73.796875, 196.959534 75.091919, 193.985855 77.269958, 189.711243 78.752136, 185.242554 77.454834, 184.165695 74.755676, 181.420395 73.921753, 180.841797 71.736633, 178.940292 70.052368, 176.147446 68.910889, 173.627365 67.734680, 171.306274 66.860962, 169.699478 64.888306, 170.691193 61.903198, 168.269257 59.391785, 165.693924 58.433350, 164.339462 56.404541, 162.977936 53.703918, 161.790054 51.027954, 160.785294 48.930725, 161.295654 46.684692, 158.923111 45.037231, 159.651703 42.217346, 157.488144 40.425232, 155.426620 38.868286, 155.499588 36.693237, 156.669647 34.349304, 154.159805 32.724854, 154.693802 29.883057, 152.770737 29.335571, 151.196747 28.709961, 151.138351 26.205750, 150.975906 23.516541, 150.862808 20.950439, 148.907410 19.977051, 146.889740 20.709473, 144.908096 20.868774, 144.088013 19.132446, 141.931107 18.964661, 139.730209 18.398926, 137.258957 17.549622, 135.606949 15.851135, 134.225983 14.081787, 132.185974 12.848206, 130.540619 11.560059, 128.178909 12.025635, 126.910538 10.601257, 125.840736 9.450867, 125.814087 7.891968, 123.677315 7.208679, 121.835876 6.290222, 121.426941 3.943542, 117.158691 4.095093, 114.095612 2.615479, 110.759201 3.695312, 108.101006 1.834229, 105.309853 0.000000, 102.169868 1.061768, 100.063660 2.932678, 97.063919 4.902466, 94.467720 2.883728, 91.521370 3.599548, 89.471313 5.241211, 86.635986 4.491699, 84.030106 6.062744, 82.019241 7.372925, 79.551491 7.814026, 76.776505 6.024780, 73.579514 7.933472, 70.175278 7.040283, 66.502419 5.608826, 62.715107 7.278198, 59.682167 9.301636, 55.762417 10.645447, 52.081261 11.641724, 48.875896 12.155640, 45.753933 13.693909, 47.203392 16.789124, 44.971100 18.583801, 41.537292 19.160828, 38.313553 20.768433, 35.448093 21.516479, 33.218372 23.275696, 35.154106 25.847961, 36.040028 28.277832, 33.715317 29.749512, 31.158733 30.950500, 31.005184 33.186157, 27.984663 33.746643, 27.323301 35.930908, 26.658318 38.230469, 27.076674 40.224182, 26.044252 41.894958, 24.078876 43.034485, 21.321648 42.823914, 20.051888 44.880615, 16.711025 44.768311, 15.531181 46.781189, 13.985480 48.614136, 11.682837 50.228027, 12.858795 52.998535, 10.323490 54.561096, 7.932907 56.238464, 5.757201 57.460083, 5.005594 59.496155, 4.082521 61.736938, 6.180827 64.067993, 4.530257 66.096558, 4.021259 68.356018, 3.090084 69.884460, 4.126721 71.653442, 4.836104 73.129517, 4.199247 74.268677, 3.759614 75.771790, 1.440107 75.946350, 1.493200 77.582214, 0.000000 78.637878, 1.845816 80.845337, 0.739420 82.658203, 1.001988 84.765625, 2.991407 86.633179, 2.235189 88.678345, 4.136602 90.507935, 4.316566 92.497253, 4.584602 94.963501, 1.417315 95.399902, 1.258365 97.605774, 2.845697 99.652527, 2.959591 102.433594, 5.054076 105.780518, 6.636007 108.739807, 8.192379 111.612183, 11.849034 112.890076, 13.251659 115.333496, 15.034765 117.285950, 17.444450 119.085083, 19.618050 120.705627, 20.702379 122.894958, 20.456608 125.346436, 20.344889 127.959717, 18.641357 129.734680, 19.512589 132.681458, 19.286118 136.052673, 23.407372 138.868591, 25.894392 141.463562, 26.326582 143.765076, 29.546633 145.638672, 30.167286 148.481689, 32.129894 150.839783, 32.327709 153.127502, 33.870907 155.929199, 35.094753 158.930847, 37.931889 162.279358, 41.667130 164.528320, 42.095234 167.321594, 45.133148 169.785950, 48.605427 170.143982, 51.833050 170.585693, 55.453938 172.671387, 60.155331 173.754395, 64.726959 174.806641, 69.037102 177.152039, 71.709450 179.676147, 74.580116 180.683289, 77.769012 181.952759, 80.902138 183.412598, 83.810020 184.940063, 86.537613 186.307922, 88.967552 187.300049, 91.492317 189.650391, 94.286469 192.578735, 96.448738 197.463196, 97.519958 202.535706, 96.637695 206.388977, 95.478859 210.322266, 94.111511 213.800659, 92.297180 217.316406, 92.014290 221.228882, 90.692490 223.950867, 89.140007 226.323364, 87.997673 230.452454, 83.054855 233.455627, 81.962425 236.093323, 79.249924 238.353455, 79.861916 240.771301, 76.902390 243.507446, 73.173141 245.008057, 68.554947 246.650818, 68.021706 249.315674, 65.773773 251.349121, 66.141342 253.618469, 67.086548 255.581238, 67.561623 257.655823, 68.099144 260.468811, 70.349380 262.591614, 68.908257 265.583984, 68.226837 268.905029, 69.303589 271.335510, 67.960938 274.134766, 66.076950 277.745361, 64.596657 280.561646, 64.741447 282.995422, 63.393726 286.426147, 61.306389 289.164978, 58.162949 291.428101, 57.332623 294.161804, 55.659065 297.128906, 57.455280 299.020203, 55.077740 301.888184, 54.510445 304.868958, 55.332664 307.885925, 54.253605 310.816284, 55.245846 312.735046, 56.161804 315.263794, 58.438560 316.819885, 57.414505 319.643860, 56.701565 322.109375, 54.476387 324.183960, 54.629673 326.079834, 55.833824 327.374512, 58.540596 326.782532, 60.003757 328.307068, 58.174412 331.279602, 59.767342 333.060181, 58.409443 335.621826, 58.806919 337.734253, 57.338024 341.212769, 54.451553 344.268921, 53.178104 347.722961, 53.981880 350.534912, 52.667919 354.146057, 53.339691 357.165222, 49.864975 361.389404, 48.087273 365.593323, 46.244484 369.830505, 46.517593 373.304321, 46.653091 376.595581, 46.191063 380.025818, 48.472691 380.920959, 51.307453 379.176819, 53.271774 379.840637, 52.259380 383.014954, 51.250210 386.173950, 52.956509 387.793152, 54.382652 390.518616, 56.967293 392.255005, 60.927063 390.555298, 64.285179 390.028076, 67.386497 389.844604, 70.823036 389.309570, 73.391312 390.295044, 76.917313 388.359924, 80.276581 386.692993, 82.339714 387.980957, 85.802307 386.502197, 88.620110 385.571106, 90.999329 386.264587, 94.062401 385.722351, 96.363861 384.242676, 98.369385 384.688232, 99.490967 386.029785, 103.237274 384.950745, 106.660049 383.166382, 109.744827 381.987000, 113.115662 380.895508, 116.696625 379.583252, 119.137672 380.868774, 122.702599 379.623291, 125.904335 378.454773, 128.929169 377.005249, 132.046234 377.646912, 135.435974 375.409241, 138.351532 373.202454, 140.992188 371.268066, 143.503448 369.612305, 146.418060 369.944641, 149.045547 368.325195, 149.263321 366.565308, 150.127106 365.009644, 152.733719 364.651306, 153.542831 363.270508, 155.249756 362.535034, 157.068237 361.682373, 159.010849 361.914856, 160.428497 360.923035, 162.694809 360.517639, 164.880341 360.914001, 167.152283 360.386658, 170.024231 359.654663, 173.217773 358.883728, 176.593079 358.303162, 180.108078 358.016846, 181.575287 359.827209, 184.806839 359.060547, 186.998123 359.693481, 189.316269 358.818298, 191.687057 359.009033, 194.222107 359.359802, 196.885376 359.777100, 199.631668 360.125122, 202.203598 360.537842, 204.729874 359.114258, 207.398575 357.893127, 210.392639 356.816345, 213.452560 355.870972, 217.233749 355.762695, 221.363373 356.182922, 223.183197 358.126160, 224.103836 360.205444, 226.452591 360.161316, 229.246338 360.347900, 232.820160 359.237610, 234.527878 360.766357, 237.830505 360.033875, 240.802734 360.208069, 242.279312 361.507019, 246.058350 360.373169, 248.612854 362.330750, 249.491364 365.404419, 251.907089 364.864258, 253.717300 366.499084, 255.463409 368.529236, 256.898621 370.444763, 259.019318 369.679565, 261.540894 369.216736, 263.471527 370.044434, 264.875610 370.979370, 267.209869 369.677612, 269.675140 369.869263, 271.683014 370.421692, 273.382965 371.690125, 275.622467 370.237793, 278.198608 370.577820, 281.572021 369.179565, 284.907623 368.234619, 287.951385 364.334717, 292.316467 362.016541, 294.900085 363.859131, 298.556366 361.901367, 302.180908 360.295288, 303.926758 356.289795, 307.617950 354.638000, 309.925781 350.412415, 313.212433 349.838318, 315.230621 347.361572, 315.985077 344.269836, 318.916901 343.436096, 321.024963 341.381165, 320.827911 338.845825, 322.532013 336.425842, 321.263519 334.555359, 322.189911 332.259521, 321.210510 329.920044, 322.738007 325.897217, 323.783752 320.902344, 326.000885 315.651672, 329.924927 312.859741, 332.519745 308.769470, 337.079681 306.262085, 340.285126 307.553467, 342.900482 305.522217, 345.451660 303.892700, 347.757324 302.190613, 350.366852 300.058167, 352.463135 297.051514, 355.005768 294.047974, 358.806458 293.467712, 361.818451 291.659851, 364.873810 289.881165, 366.648468 287.442627, 369.113770 286.662720, 369.753845 283.445801, 373.010651 281.832703, 376.659760 280.355896, 376.034668 276.216614, 378.797028 273.882324, 377.876526 270.271729, 379.849884 267.428162, 381.505402 264.133301, 383.212952 260.208740, 385.049591 255.569824, 381.117798 251.701843, 378.455841 247.487244, 378.599396 242.760071, 378.808167 239.109558, 378.401154 235.659241, 378.481689 232.375427, 379.444489 228.891907, 381.929199 226.279968, 384.028015 225.052185, 384.781403 223.372314, 384.834045 221.491760, 385.276245 218.613159, 387.767883 215.590088, 390.284393 212.208130, 393.261932 209.551086, 392.881561 206.961548, 394.781677 204.416748, 396.348724 201.732544, 397.766907 198.905945, 398.642700 196.014954, 399.174988 193.030579, 399.470245 190.023376, 397.989410 187.603638, 399.116669 184.566040, 399.843323 182.191833, 401.643707 180.580078, 401.377350 178.389465, 401.499329 176.218689, 401.140564 174.288696, 398.949310 173.854553, 397.964233 171.969177, 398.739838 169.850708, 397.496704 168.521362, 396.332947 166.783020, 396.848450 164.271484, 397.671906 162.083008, 398.240173 159.822998Z "/>
    </clipPath>
    <filter id="dropshadow">
      <feGaussianBlur in="SourceAlpha" stdDeviation="2"/>
      <feMerge>
        <feMergeNode/>
        <feMergeNode in="SourceGraphic"/>
      </feMerge>
    </filter>
  </defs>
  <g inkscape:label="rois" inkscape:groupmode="layer" id="rois" transform="translate(0,0)" style="display:inline;" class="display_layer">
    <g inkscape:label="shapes" inkscape:groupmode="layer" id="rois_shapes" transform="translate(0,0)" style="display:inline;" clip-path="url(#edgeclip)">
      <g id="dag_LO1" style="display:inline;" inkscape:label="dag_LO1" inkscape:groupmode="layer">
        <path style="stroke:white;fill:none;display:inline;filter:url(#dropshadow);stroke-width:2;stroke-opacity:1;fill-opacity:0" d="M 239.8903,171.4910 L 240.9845,173.0880 L 241.8416,174.7156 L 243.5535,176.3620 L 245.5828,176.8538 L 248.1201,177.3721 L 250.8054,177.8771 L 253.4310,178.3271 L 255.8245,178.7070 L 258.0894,178.8538 L 256.6179,177.2428 L 256.2048,175.3248 L 255.9803,173.0763 L 254.0215,171.2133 L 254.6865,169.1302 L 255.7543,167.3115 L 257.0938,165.4353 L 258.4000,163.4324 L 259.6907,161.4913 L 262.5484,162.0771 L 264.6861,161.6208 L 265.6517,160.0641 L 266.7221,157.9742 L 268.6049,156.8254 L 270.2836,156.1945 L 271.8564,155.4985 L 273.7880,156.5192 L 275.5980,155.5417 L 277.8311,154.3522 L 279.6145,151.8493 L 281.5707,153.2908 L 282.5132,152.0273 L 285.1231,152.5835 L 286.9116,150.5114 L 289.3026,151.8716 L 291.8576,151.8691 L 294.7332,153.1232 L 296.9504,151.7327 L 299.7247,152.9735 L 301.8795,151.4481 L 304.0156,149.9871 L 306.7152,151.2213 L 308.9747,149.7151 L 306.1704,148.4140 L 305.3401,145.6562 L 304.2896,143.0247 L 303.5943,140.5135 L 301.2492,139.0917 L 299.0581,137.2848 L 296.9312,134.9491 L 293.8593,133.2161 L 291.2263,131.4800 L 288.6080,129.3391 L 287.3010,126.0840 L 286.1844,123.4796 L 283.4883,122.2058 L 282.8914,119.1724 L 282.2595,116.6486 L 280.1517,114.9037 L 277.3729,112.8914 L 274.1107,114.4319 L 270.9842,115.4918 L 269.4736,118.0838 L 269.1515,120.3828 L 267.6108,121.6071 L 265.8878,123.2235 L 263.5100,124.0342 L 260.9857,124.7418 L 258.1347,123.9050 L 256.4346,125.3885 L 255.0026,126.5652 L 252.9544,126.4166 L 250.4012,126.0980 L 248.8703,128.2488 L 246.7928,129.5566 L 245.1944,130.9694 L 243.2858,132.4574 L 240.6816,132.9841 L 238.2106,133.4298 L 235.2642,133.2797 L 233.8256,135.9832 L 232.5337,139.1737 L 230.1198,141.7446 L 227.0883,142.9062 L 227.0532,145.3288 L 225.5816,146.8615 L 223.7018,148.6077 L 224.3276,151.9523 L 223.1204,155.0008 L 224.8452,157.5096 L 227.8098,159.1055 L 229.9158,161.9456 L 231.9630,164.0275 L 233.4812,166.4480 L 235.1627,168.6697 L 237.4684,170.0891 Z"/>
      </g>
      <g id="dag_LO1" style="display:inline;" inkscape:label="dag_LO1" inkscape:groupmode="layer">
        <path style="stroke:white;fill:none;display:inline;filter:url(#dropshadow);stroke-width:2;stroke-opacity:1;fill-opacity:0" d="M 883.8871,834.0019 L 883.5275,833.6042 L 883.1615,833.0110 L 882.8357,832.2722 L 882.5849,831.3058 L 881.8668,830.4629 L 882.1905,829.4423 L 882.5031,828.3279 L 882.7867,827.1823 L 881.8969,826.4644 L 881.0933,825.7696 L 880.3556,825.0754 L 879.5140,824.5701 L 879.4814,823.7593 L 878.8619,823.1744 L 879.1469,822.2491 L 878.1559,821.6347 L 877.0891,821.5188 L 876.3889,820.8132 L 875.4567,820.4294 L 874.4995,820.6321 L 873.3644,820.9438 L 872.2059,821.3431 L 871.2629,820.6360 L 870.0840,821.0995 L 869.2236,820.5214 L 868.1669,820.5438 L 868.8494,819.5249 L 869.7552,818.8365 L 870.8039,818.7403 L 871.2470,817.9385 L 872.1393,817.5267 L 871.8909,816.8453 L 872.5464,816.6782 L 872.7734,815.9121 L 873.6067,815.3898 L 874.6028,814.7448 L 875.4529,814.0964 L 875.7466,812.9601 L 875.5507,811.6263 L 875.5270,810.3025 L 876.9207,809.6520 L 877.1607,808.2224 L 877.5583,806.8837 L 878.2014,805.5853 L 879.0917,804.3684 L 878.5938,802.9330 L 880.0193,801.7695 L 879.8150,799.8177 L 880.3707,797.8668 L 880.8461,796.3200 L 882.2758,797.1775 L 883.6837,797.7563 L 885.1730,797.3157 L 886.4373,798.3546 L 887.8499,799.5580 L 889.6714,799.8210 L 890.7726,800.3491 L 891.6392,800.9698 L 892.4998,801.3080 L 892.8240,801.8862 L 893.6985,802.3392 L 895.3428,803.2098 L 897.0922,804.3915 L 898.3242,804.8643 L 899.3773,804.7532 L 900.5933,804.7745 L 900.9398,805.8546 L 901.1564,807.0057 L 901.5229,808.2147 L 902.2244,809.4502 L 902.4111,810.7996 L 902.5668,811.9448 L 902.3936,812.7206 L 901.9829,813.2636 L 901.3804,814.1575 L 900.0580,814.6732 L 898.8817,815.3223 L 898.2883,816.3796 L 898.3080,817.5898 L 898.1077,819.1692 L 897.7510,820.9456 L 896.9190,822.3357 L 896.4037,823.8122 L 895.3792,824.9612 L 894.5380,825.8555 L 894.6559,827.0665 L 893.9834,828.2464 L 893.3668,829.2986 L 892.7488,830.2965 L 891.6123,830.2634 L 891.0253,830.9936 L 889.9838,831.1789 L 889.4922,832.2981 L 888.3644,832.4093 L 887.5491,833.0302 L 886.6865,833.5936 L 886.4977,834.4634 L 886.0214,835.4760 L 885.0635,835.2020 L 884.2501,835.2131 L 883.9976,834.5222 Z"/>
      </g>
      <g id="dag_LO2" style="display:inline;" inkscape:label="dag_LO2" inkscape:groupmode="layer">
        <path style="stroke:white;fill:none;display:inline;filter:url(#dropshadow);stroke-width:2;stroke-opacity:1;fill-opacity:0" d="M 277.7232,109.3789 L 278.0116,105.7828 L 278.4237,102.2599 L 277.2260,99.2060 L 276.3827,97.3456 L 275.6337,95.0361 L 276.1644,91.4647 L 273.2285,92.6230 L 271.1757,95.2057 L 267.1633,97.0781 L 263.7980,97.5469 L 261.9625,99.3903 L 259.8851,101.1989 L 258.0961,102.5502 L 255.5487,102.7634 L 252.8542,104.2420 L 250.3808,104.5734 L 249.0660,106.2004 L 246.3919,105.7516 L 243.6225,105.5087 L 241.3146,105.3741 L 239.3745,106.3790 L 236.9211,107.9172 L 233.9183,108.7209 L 231.8560,109.6671 L 229.4784,109.7108 L 226.7575,110.2279 L 224.3383,111.0831 L 222.7113,112.6339 L 221.1823,113.9841 L 219.5892,115.5182 L 217.0680,116.2385 L 215.3400,118.0759 L 214.0424,120.0181 L 212.6391,122.6279 L 209.6630,124.3824 L 206.3535,125.4277 L 206.2925,128.7292 L 204.4792,131.7072 L 201.6682,134.2217 L 202.2541,137.1916 L 204.7820,138.5826 L 207.1767,139.9165 L 208.9782,141.1161 L 209.7795,143.1815 L 211.4466,144.8524 L 213.6072,144.4857 L 215.7716,145.4596 L 217.3954,146.8188 L 219.1091,148.3937 L 221.4071,149.9816 L 221.1197,147.2791 L 223.0334,145.8296 L 224.8749,144.2618 L 223.9439,141.1810 L 226.9239,139.7348 L 229.3529,138.5681 L 230.2476,135.8152 L 231.7581,132.7764 L 233.7743,130.3131 L 236.6841,131.0320 L 238.9437,131.4095 L 240.9238,130.3124 L 243.2390,130.1602 L 244.5618,128.8072 L 246.1709,127.2958 L 247.8098,125.6253 L 249.2669,123.8878 L 251.7973,124.0115 L 254.2267,124.7354 L 255.6457,123.1865 L 257.2346,121.5146 L 259.7614,122.2747 L 261.8354,122.7389 L 263.5517,121.9410 L 265.3303,120.8040 L 267.1119,119.4149 L 266.6591,117.1360 L 268.3325,115.8389 L 268.3722,113.6218 L 271.1230,112.3983 L 274.2082,110.8784 Z"/>
      </g>
      <g id="dag_LO2" style="display:inline;" inkscape:label="dag_LO2" inkscape:groupmode="layer">
        <path style="stroke:white;fill:none;display:inline;filter:url(#dropshadow);stroke-width:2;stroke-opacity:1;fill-opacity:0" d="M 900.9423,829.3982 L 899.8031,829.9615 L 898.7385,830.3378 L 898.4199,831.5237 L 897.9155,832.1447 L 897.5053,832.6943 L 896.8607,833.6696 L 895.9808,834.4678 L 895.0381,834.4213 L 894.1373,833.9599 L 892.8663,833.5780 L 892.4557,832.3550 L 892.0227,831.2225 L 893.3256,831.3442 L 894.0016,830.2974 L 894.6202,829.2717 L 895.2760,828.2520 L 896.0506,827.2914 L 895.6979,826.1497 L 896.6613,825.2697 L 897.7502,824.5057 L 897.8029,823.2593 L 898.0868,822.2400 L 899.2448,821.8322 L 899.4167,820.2040 L 899.8422,818.4369 L 899.6230,816.6044 L 899.8959,815.5750 L 901.0126,815.6846 L 902.5868,815.0358 L 902.5406,813.8829 L 902.6514,813.2010 L 903.0363,812.6953 L 903.4261,812.1115 L 903.4183,811.2816 L 903.4314,810.1570 L 903.5462,808.9525 L 904.5411,809.6617 L 905.6501,810.3176 L 906.8436,810.3055 L 907.7270,811.0024 L 908.6570,812.0063 L 909.5010,813.0927 L 910.8728,812.9692 L 912.2160,812.9155 L 912.8369,813.8557 L 912.8031,814.9581 L 913.8690,815.5767 L 913.8899,816.8145 L 914.0726,818.1642 L 913.6129,819.5073 L 913.0286,820.8315 L 911.8157,821.8616 L 911.2326,823.0064 L 910.1792,823.6644 L 908.7122,823.9733 L 907.3054,824.2678 L 905.9550,824.4800 L 905.2896,825.6832 L 904.5530,826.7653 L 903.4911,826.7427 L 902.7212,827.4697 L 901.8587,828.3887 Z"/>
      </g>
      <g id="dag_TO" style="display:inline;" inkscape:label="dag_TO" inkscape:groupmode="layer">
        <path style="stroke:white;fill:none;display:inline;filter:url(#dropshadow);stroke-width:2;stroke-opacity:1;fill-opacity:0" d="M 58.2740,101.4091 L 59.3587,103.5500 L 60.7838,105.0814 L 61.0613,106.8250 L 62.6842,109.0343 L 63.0644,111.5524 L 64.4626,113.4630 L 64.5105,115.1757 L 66.6035,116.9100 L 68.6187,119.2522 L 71.0841,120.8713 L 72.4609,123.0697 L 74.2875,126.0037 L 76.9315,129.9415 L 79.0778,133.6056 L 81.7239,134.7778 L 84.5062,134.6550 L 88.2695,136.4008 L 91.0578,139.0920 L 94.2770,139.2049 L 97.6154,140.7113 L 100.2002,142.0460 L 102.9353,142.1855 L 106.0039,142.5013 L 108.2408,142.8096 L 109.9369,141.9120 L 112.1675,143.4614 L 114.4489,145.0219 L 116.8484,144.3608 L 119.2557,143.8892 L 120.9433,145.4926 L 123.4873,146.1048 L 126.4643,145.5191 L 128.2734,146.1379 L 129.8665,146.5525 L 132.1394,147.3167 L 134.3091,148.4527 L 136.4945,149.4576 L 138.9937,149.8611 L 141.0040,150.7813 L 142.9261,150.6169 L 144.8174,150.6788 L 146.3163,151.9238 L 146.4621,149.7763 L 146.3201,147.5905 L 147.8565,146.1758 L 148.9878,144.3813 L 149.7475,142.4778 L 150.0484,140.4114 L 152.0522,139.4438 L 154.0652,138.2815 L 154.0214,135.8361 L 153.6896,133.1067 L 152.8461,129.8821 L 152.4635,126.5831 L 150.7389,123.7253 L 152.9729,121.3087 L 153.4410,118.0180 L 149.8349,116.9393 L 149.0807,113.8061 L 148.3437,110.7668 L 145.2628,109.7830 L 144.7513,106.5025 L 143.4417,104.1365 L 141.0771,102.7526 L 139.1120,100.3328 L 136.8263,98.3904 L 134.4310,96.7490 L 134.2615,94.2729 L 131.7725,93.5585 L 131.0611,91.5677 L 128.9021,90.6141 L 128.5488,87.9628 L 128.2909,85.6521 L 126.6913,83.9645 L 124.7953,82.0633 L 122.7694,80.0038 L 120.2050,78.9100 L 117.7804,78.3364 L 116.5568,76.0892 L 115.5383,73.9768 L 113.4743,72.8297 L 111.4282,71.7987 L 110.3491,69.9411 L 109.4516,67.9323 L 107.4980,66.3153 L 105.7078,64.3459 L 102.9900,63.3416 L 102.6646,60.3383 L 98.8237,58.7577 L 96.2080,55.7762 L 92.0617,54.0886 L 88.7932,57.7488 L 85.3863,61.0170 L 81.5691,63.5306 L 81.7557,67.4501 L 78.5895,68.5438 L 77.3907,70.9350 L 75.9008,73.5549 L 74.2076,76.1320 L 72.5142,78.6175 L 71.4937,81.1030 L 68.5843,81.6825 L 65.8979,82.4819 L 63.6228,83.4368 L 61.6208,84.4481 L 59.7266,85.5229 L 58.1355,86.6869 L 56.9471,87.5721 L 55.2643,87.5540 L 54.8442,89.0559 L 53.0074,89.2313 L 52.8419,90.7036 L 54.2928,92.0252 L 55.2045,93.7662 L 55.4475,95.3754 L 55.7350,96.5942 L 56.7518,97.8045 L 57.3376,99.5182 Z"/>
      </g>
      <g id="dag_TO" style="display:inline;" inkscape:label="dag_TO" inkscape:groupmode="layer">
        <path style="stroke:white;fill:none;display:inline;filter:url(#dropshadow);stroke-width:2;stroke-opacity:1;fill-opacity:0" d="M 976.9266,829.4488 L 977.5775,828.6560 L 978.2183,827.7496 L 978.9358,826.6790 L 979.9189,825.3383 L 980.6006,823.7240 L 981.4615,822.6521 L 981.7670,821.1505 L 982.7087,820.2056 L 983.1970,819.1121 L 983.9744,817.8721 L 984.0984,816.1172 L 984.7426,814.2946 L 985.2697,812.5347 L 987.0397,811.9963 L 988.2318,810.3711 L 988.9166,808.3749 L 989.1467,806.0805 L 989.3970,803.8386 L 989.7505,801.1901 L 988.7795,798.9690 L 988.9232,797.1859 L 988.9548,795.1949 L 988.5981,793.0231 L 988.0267,790.9711 L 987.6345,789.5617 L 986.7531,788.4924 L 985.8656,787.1897 L 985.8684,785.5883 L 986.0013,783.5941 L 986.2959,781.4263 L 984.7624,780.3896 L 983.2933,779.1525 L 981.0090,778.1183 L 979.4005,777.2871 L 978.1634,775.7669 L 976.4328,774.6182 L 975.1129,773.7428 L 973.7343,773.8168 L 972.1078,773.5459 L 970.8126,772.9988 L 969.8892,772.1160 L 968.6880,771.2689 L 967.2997,770.7198 L 965.8640,770.7694 L 964.7034,769.5262 L 963.2520,769.1114 L 961.4216,768.6487 L 959.7894,768.6730 L 957.7175,768.4969 L 955.3829,767.9712 L 953.0674,768.0425 L 952.5042,770.3439 L 950.3054,771.6107 L 947.6389,771.4812 L 946.7867,773.3223 L 945.0328,774.1080 L 943.3521,774.0184 L 942.3002,774.1274 L 941.9315,774.8657 L 941.5410,775.7444 L 940.9005,776.1409 L 940.7385,776.8045 L 940.2411,777.2565 L 939.9127,777.6316 L 939.9400,778.2140 L 939.9186,778.9877 L 939.8458,779.9257 L 939.6371,781.0210 L 939.2237,782.2057 L 938.6440,783.4200 L 937.9463,784.4590 L 938.0490,785.8989 L 938.0450,787.8282 L 937.1758,789.4254 L 936.1555,791.3010 L 935.5950,793.5054 L 934.7126,795.3619 L 935.7695,797.3179 L 936.6054,799.2609 L 937.6067,801.2710 L 937.7635,803.3568 L 937.8232,804.7914 L 937.0898,805.8623 L 936.3802,807.1568 L 935.7703,808.2635 L 936.0550,809.4825 L 936.4597,810.4702 L 936.2265,811.3770 L 936.0164,812.3654 L 935.8567,813.3146 L 935.5541,814.4255 L 935.1309,815.9054 L 935.3876,817.1063 L 935.9538,817.7375 L 936.1631,818.4919 L 936.8873,819.1450 L 937.9072,820.1688 L 938.6656,821.9528 L 939.7601,823.1147 L 940.3260,824.0919 L 941.2132,824.7664 L 942.2032,825.7921 L 943.2156,827.0442 L 944.3950,827.7693 L 945.6891,827.5876 L 947.0386,827.9723 L 948.4601,828.3434 L 949.6019,829.2740 L 950.7234,829.8000 L 951.9799,830.0198 L 952.8192,830.5026 L 953.8140,830.9427 L 955.0557,830.3123 L 956.2082,830.3520 L 957.4463,830.4086 L 958.5712,830.6677 L 959.7214,831.0901 L 960.8953,831.7374 L 962.3099,831.1897 L 963.7252,831.4503 L 964.8533,831.7305 L 966.0153,832.0987 L 966.7770,832.9062 L 967.7490,833.0924 L 968.7562,833.3411 L 969.7393,833.5546 L 970.6404,833.2646 L 971.4652,833.0470 L 972.2941,832.8453 L 973.1216,832.7022 L 973.9282,832.6452 L 974.3240,831.9465 L 974.6763,831.3494 L 975.3000,831.1352 L 976.0493,830.9812 L 976.4051,830.2139 Z"/>
      </g>
      <g id="dag_V1" style="display:inline;" inkscape:label="dag_V1" inkscape:groupmode="layer">
        <path style="stroke:white;fill:none;display:inline;filter:url(#dropshadow);stroke-width:2;stroke-opacity:1;fill-opacity:0" d="M 329.4171,228.1791 L 331.3726,228.4209 L 333.7660,228.7435 L 336.2046,228.5184 L 338.4291,229.3122 L 340.2928,229.7216 L 339.1219,231.4787 L 339.2739,233.7200 L 339.3326,235.5659 L 339.2404,237.5500 L 339.8899,239.3472 L 340.3127,240.9404 L 339.1872,242.0778 L 339.2210,243.5558 L 338.7284,245.2145 L 339.7586,246.5807 L 338.7915,248.4921 L 337.5996,250.3603 L 338.2625,251.8570 L 336.4240,252.1934 L 334.2324,252.5057 L 333.0193,254.5582 L 331.4729,256.4722 L 330.0703,258.1674 L 327.9034,259.3706 L 324.9574,261.3870 L 323.3395,263.9745 L 320.6143,265.2914 L 318.7908,267.4832 L 318.6181,269.8111 L 315.9775,271.2747 L 313.0238,272.8370 L 310.3260,274.5837 L 308.0446,276.4756 L 305.6824,278.7048 L 304.9593,281.1087 L 303.4406,282.6177 L 301.6472,284.2131 L 300.1043,285.8419 L 298.4576,287.2088 L 296.6130,288.4939 L 294.8644,289.3418 L 293.0099,289.4295 L 291.6982,291.2992 L 289.8373,292.2456 L 288.8492,293.7130 L 287.4792,295.2405 L 285.7767,296.4274 L 284.0012,297.4360 L 282.0086,298.2566 L 281.2907,300.4497 L 278.8464,301.5140 L 276.3222,302.7039 L 275.6934,305.2841 L 272.8017,306.5490 L 272.6978,308.8990 L 271.1368,310.5455 L 269.0041,312.0875 L 266.0244,313.3832 L 263.2544,315.3224 L 260.8231,316.5017 L 259.3130,316.8929 L 257.8576,316.7250 L 255.7868,315.8530 L 254.0415,314.8933 L 253.5098,313.1990 L 252.8924,311.3624 L 252.0662,309.5681 L 253.2828,307.5573 L 252.1909,305.7495 L 250.9833,304.3565 L 250.4192,302.7706 L 249.9794,301.0720 L 249.2276,299.3906 L 250.4755,297.3550 L 250.3174,295.1155 L 249.4230,293.9963 L 249.4082,292.8270 L 249.7277,291.4807 L 248.6410,290.4979 L 249.0102,289.1378 L 249.3106,287.7786 L 249.5657,286.5023 L 249.7117,285.4260 L 248.9004,284.5187 L 249.4621,283.1782 L 248.2004,281.9914 L 247.0233,281.0312 L 246.7164,279.6745 L 246.3254,277.8601 L 246.7951,276.3683 L 248.1102,275.6007 L 247.7717,273.9119 L 247.6016,272.4020 L 248.6934,271.2902 L 249.9964,270.1343 L 249.5443,268.4645 L 249.1139,266.8232 L 248.6293,265.4918 L 248.9547,264.2252 L 249.1673,262.8358 L 248.2960,261.3856 L 247.2081,259.7090 L 246.1385,258.1932 L 246.8874,256.9490 L 246.0326,255.7774 L 245.4734,254.7505 L 245.9214,253.7995 L 244.9977,252.5631 L 244.2291,251.1391 L 243.4727,249.4490 L 244.0827,247.8176 L 244.4489,246.1373 L 244.9434,244.7702 L 245.3711,243.6335 L 244.7085,242.1913 L 244.2428,240.4710 L 244.4750,238.9756 L 244.7981,237.8721 L 244.2027,236.7942 L 244.7830,236.1626 L 245.3129,235.3317 L 245.2727,233.8000 L 245.2067,232.4509 L 245.1346,231.2101 L 246.2175,230.6870 L 246.0601,229.4017 L 247.2188,228.8556 L 247.1448,227.5723 L 247.1602,226.3371 L 248.1564,225.8703 L 248.4252,224.5505 L 249.3071,223.5004 L 249.1194,222.0732 L 250.6837,221.4337 L 252.1903,220.2436 L 252.2926,218.2454 L 253.7963,217.8963 L 254.8061,216.7061 L 257.3990,216.3042 L 258.8109,214.4005 L 261.1306,214.6174 L 263.0863,213.2906 L 265.4709,212.8434 L 267.5727,213.3851 L 269.9294,213.7195 L 271.8819,213.1469 L 273.8313,213.0359 L 275.8373,213.3268 L 276.7452,211.9074 L 278.8903,212.2912 L 281.0771,212.5795 L 282.9727,212.5847 L 285.0561,213.5532 L 287.0974,214.8652 L 288.9398,215.4882 L 290.4278,215.7057 L 292.0255,216.5417 L 293.8569,216.2988 L 295.4485,217.3942 L 297.0952,218.3407 L 298.6812,219.0023 L 300.1479,219.5073 L 301.6179,219.9480 L 303.1573,220.0259 L 304.5756,221.2938 L 306.1953,221.9852 L 307.4086,221.8671 L 308.8131,222.5198 L 310.1808,222.5032 L 311.2594,222.9609 L 312.4861,223.5222 L 313.8671,224.2787 L 315.4124,224.4667 L 316.5376,224.6360 L 317.3196,225.2762 L 318.0796,225.9572 L 319.4924,226.3231 L 321.1970,227.4295 L 322.5761,228.2975 L 324.1949,228.3912 L 326.2346,228.4280 L 327.8687,227.8167 Z"/>
      </g>
      <g id="dag_V1" style="display:inline;" inkscape:label="dag_V1" inkscape:groupmode="layer">
        <path style="stroke:white;fill:none;display:inline;filter:url(#dropshadow);stroke-width:2;stroke-opacity:1;fill-opacity:0" d="M 878.2529,845.1283 L 877.2330,845.3906 L 876.2975,845.1731 L 875.7243,844.9634 L 875.0070,845.0147 L 874.2185,844.7107 L 873.5887,845.0712 L 872.6262,845.0776 L 871.4117,845.1701 L 870.4529,845.2134 L 869.5952,845.6635 L 868.5833,845.4404 L 867.4574,845.3140 L 866.4177,845.1609 L 865.5041,845.1143 L 864.5652,845.1255 L 863.7930,845.3958 L 863.2632,845.9775 L 862.3319,846.2594 L 861.2829,846.3983 L 860.4732,846.8180 L 859.8574,846.7577 L 859.2625,847.0508 L 858.5522,847.2341 L 857.9179,847.3275 L 857.4460,847.7958 L 856.8109,847.5865 L 856.0293,847.7661 L 855.2112,847.5133 L 854.2490,847.7561 L 853.4811,847.9758 L 852.8130,848.0787 L 851.7281,848.1327 L 850.7267,848.4716 L 849.8010,848.6346 L 848.8126,848.8250 L 847.8508,848.6560 L 847.1287,849.3038 L 846.1711,849.5370 L 845.3389,849.8463 L 844.5098,850.1879 L 843.6917,850.6473 L 842.8523,851.2457 L 842.4577,852.0135 L 842.6085,852.7869 L 842.8911,853.7128 L 843.2343,854.7265 L 843.5274,855.8211 L 843.7433,856.9269 L 844.0951,858.0002 L 844.5079,859.1226 L 844.7173,860.1152 L 845.2581,860.7289 L 846.1602,860.9186 L 846.5739,862.0665 L 846.5609,863.0319 L 847.1276,863.5317 L 847.6970,863.9648 L 848.4381,864.4465 L 849.0669,865.5498 L 850.3568,865.6592 L 851.4515,866.1489 L 852.4277,867.2294 L 854.2141,867.8929 L 855.9196,868.4552 L 857.6942,868.9176 L 859.8831,869.2001 L 860.1487,871.6599 L 862.0874,872.3694 L 862.2180,874.0513 L 863.3324,875.1722 L 863.8735,876.5839 L 865.0399,877.3816 L 866.0369,878.4498 L 865.9154,879.9639 L 866.0193,881.6845 L 865.9634,883.4539 L 866.0338,885.0345 L 867.4048,885.9769 L 868.9576,887.0754 L 870.6165,888.3576 L 872.8380,887.5917 L 875.0157,887.7828 L 876.0088,889.5421 L 876.0461,891.0913 L 877.4025,890.7471 L 878.4189,891.9391 L 877.8720,893.0715 L 879.2948,893.2631 L 879.4302,894.7908 L 879.4089,896.0786 L 880.3455,896.8685 L 881.0337,897.6494 L 881.0251,898.7427 L 880.5765,899.6228 L 880.7520,900.4135 L 881.0065,901.1486 L 881.5981,900.6535 L 882.4508,900.9272 L 883.4031,901.0415 L 884.2563,901.5070 L 885.1348,902.0725 L 885.8701,901.3267 L 886.8085,901.4506 L 887.6790,901.0385 L 888.5336,900.5743 L 888.8018,899.6813 L 888.0978,898.9417 L 888.2238,898.0062 L 887.8138,896.9713 L 887.1816,895.8753 L 886.7996,894.7670 L 886.6763,893.6516 L 886.7726,892.4866 L 886.4258,891.4143 L 886.1785,890.1558 L 885.3465,888.9740 L 885.4946,887.1254 L 885.9296,884.8973 L 886.2442,883.0987 L 886.3924,881.2127 L 884.4641,879.6440 L 884.4841,877.2638 L 884.4480,875.6128 L 884.1564,874.1868 L 883.6876,872.8586 L 884.4651,871.7332 L 884.9562,870.5842 L 885.1637,869.6948 L 885.6516,869.1237 L 886.1602,868.4158 L 886.3076,867.5982 L 886.3383,866.8701 L 886.3313,866.1897 L 886.3099,865.5104 L 886.0976,864.9852 L 886.3004,864.4640 L 886.5236,863.8484 L 886.8060,863.1622 L 886.7467,862.4235 L 886.5723,861.7447 L 887.0642,861.2060 L 887.3819,860.7244 L 887.2949,860.2032 L 887.1830,859.5922 L 887.0646,858.9617 L 886.9719,858.3462 L 886.9509,857.6956 L 887.2465,857.1187 L 886.8350,856.6427 L 886.6965,856.2476 L 886.5266,855.9162 L 886.2916,855.4869 L 886.3901,854.9291 L 886.3598,854.3420 L 885.8148,853.9662 L 885.8755,853.1776 L 885.5214,852.4728 L 885.1268,851.8864 L 885.3930,851.1308 L 885.1837,850.3937 L 885.0496,849.7213 L 884.3261,849.4306 L 884.1948,848.6765 L 884.0424,848.0056 L 883.4204,847.5814 L 882.6689,846.9662 L 882.3669,846.1189 L 881.6163,846.0131 L 880.8870,846.3901 L 880.0323,845.9121 L 879.1196,845.4357 Z"/>
      </g>
      <g id="dag_V2" style="display:inline;" inkscape:label="dag_V2" inkscape:groupmode="layer">
        <path style="stroke:white;fill:none;display:inline;filter:url(#dropshadow);stroke-width:2;stroke-opacity:1;fill-opacity:0" d="M 332.5795,190.7974 L 330.8387,189.4955 L 328.8804,190.2874 L 326.9659,188.9565 L 325.0961,187.6428 L 323.4811,188.2684 L 321.5409,187.6404 L 319.1620,187.8513 L 317.8710,189.4210 L 315.4886,189.3170 L 312.7300,189.2014 L 309.4569,188.9570 L 306.8399,190.0867 L 304.5516,191.2578 L 302.2322,192.3369 L 300.6918,192.1754 L 299.5000,191.8788 L 297.8493,191.1426 L 296.4189,192.0700 L 295.0994,192.8588 L 293.3625,192.4551 L 291.4366,191.9048 L 289.6176,191.1685 L 287.7836,190.1944 L 286.2541,191.0164 L 284.5169,191.5200 L 282.5363,191.8406 L 281.5430,192.6105 L 280.5387,193.3472 L 278.4794,193.6339 L 276.2927,194.0741 L 274.6068,195.2159 L 273.0182,196.2625 L 271.9707,197.7462 L 271.4979,199.2587 L 270.1191,199.9171 L 268.7574,200.6583 L 268.4793,202.4794 L 267.7357,204.3914 L 265.7474,204.7988 L 265.8113,206.4474 L 265.1477,207.6032 L 264.6558,209.2416 L 263.9474,211.0355 L 266.4145,211.1559 L 268.4558,212.0703 L 270.1142,211.6913 L 272.2048,211.0906 L 274.6102,211.5115 L 275.5564,210.0674 L 277.6303,210.4454 L 279.6920,210.7593 L 281.7434,210.9464 L 284.0713,211.1884 L 285.9560,212.2372 L 286.7918,213.4200 L 288.2140,214.0013 L 289.7426,214.4860 L 291.2534,214.9420 L 292.6233,215.3252 L 293.8235,214.6938 L 295.3799,215.8672 L 296.8883,216.8416 L 298.3354,217.6514 L 299.7086,218.2512 L 301.0622,218.7283 L 302.2367,219.1082 L 303.3289,218.7479 L 304.6785,219.6566 L 306.4807,220.5198 L 308.3070,221.1071 L 309.7090,221.5461 L 310.9857,221.8554 L 312.2981,222.2990 L 313.6006,222.9181 L 314.8936,223.3586 L 316.3484,223.5595 L 317.5350,224.2444 L 318.5570,225.0389 L 320.0403,224.7526 L 321.4293,225.7479 L 323.2041,226.8164 L 325.0622,227.1726 L 326.8065,226.5155 L 328.8623,226.6860 L 330.5150,227.0189 L 332.6619,226.3893 L 334.8718,227.1019 L 336.5814,226.5595 L 338.2242,227.3728 L 340.2969,227.9459 L 339.7796,226.0076 L 340.8659,224.2195 L 341.4809,222.3322 L 343.3153,221.6280 L 343.6044,220.1226 L 344.6131,219.1074 L 344.5688,217.2897 L 346.6742,216.4032 L 346.8472,214.4791 L 346.8345,212.8904 L 347.6790,211.2933 L 349.0851,210.0125 L 349.5266,208.1404 L 350.7709,206.4515 L 350.5271,204.4106 L 350.8433,202.0911 L 352.3762,201.8320 L 352.1193,200.5181 L 353.7205,199.1647 L 353.2274,197.4624 L 351.7712,196.6073 L 350.1733,195.5886 L 348.7180,194.3043 L 346.4004,194.8112 L 343.8956,193.9798 L 342.4080,192.4536 L 340.2501,192.2255 L 337.9111,191.2790 L 335.8347,190.5518 L 334.1202,190.0756 Z"/>
      </g>
      <g id="dag_V2" style="display:inline;" inkscape:label="dag_V2" inkscape:groupmode="layer">
        <path style="stroke:white;fill:none;display:inline;filter:url(#dropshadow);stroke-width:2;stroke-opacity:1;fill-opacity:0" d="M 219.6188,227.1345 L 221.6568,226.9381 L 223.6710,226.6340 L 225.6587,226.3176 L 227.5591,226.1907 L 229.5497,226.3491 L 231.4148,226.0638 L 232.6544,225.5271 L 233.9922,225.7796 L 235.3175,226.1116 L 236.4320,225.7587 L 237.6861,225.3406 L 238.9775,226.1399 L 240.2422,226.8761 L 241.6426,227.6036 L 243.0492,227.8102 L 244.2614,227.8590 L 245.7274,227.9731 L 244.9500,228.7956 L 244.8271,229.9061 L 244.1139,230.6494 L 244.0491,231.6075 L 243.8515,232.8561 L 244.0197,234.2197 L 243.7204,235.4668 L 242.5387,236.4008 L 243.4787,237.7936 L 242.7475,239.0345 L 242.4107,240.5355 L 243.5840,241.3170 L 242.9514,242.0623 L 243.8858,243.4507 L 243.2710,244.7379 L 242.4401,246.1281 L 242.0385,247.8663 L 241.3878,249.3197 L 242.4332,250.8057 L 243.2891,252.2923 L 244.1859,253.8680 L 244.5149,255.4152 L 245.2037,256.7916 L 244.2290,257.9734 L 245.2007,259.4905 L 246.1416,261.1099 L 247.1918,263.0059 L 247.5050,264.6564 L 247.0335,266.1561 L 247.9148,267.7482 L 247.7855,269.4299 L 246.5925,271.0195 L 245.5449,272.8492 L 246.2166,274.9211 L 245.0569,276.2633 L 244.3423,277.5833 L 244.8251,279.0941 L 245.3889,280.7712 L 246.3458,282.2521 L 247.6672,283.4610 L 247.3475,284.8735 L 248.4965,285.7050 L 248.1222,286.8952 L 247.7337,288.2181 L 247.5002,289.5988 L 247.3212,290.7491 L 247.9733,291.9310 L 247.9244,293.6966 L 248.7609,294.8429 L 248.7000,296.1736 L 248.0620,297.8560 L 247.0341,299.6612 L 248.2009,300.8874 L 248.4495,302.4605 L 248.9324,304.2800 L 249.7271,306.1301 L 250.9138,307.8671 L 249.9404,309.7323 L 250.5845,311.4700 L 251.5385,313.0029 L 251.5488,315.1536 L 248.9761,316.2559 L 246.6735,315.8949 L 244.5780,315.3257 L 242.2258,315.7399 L 239.2726,315.9722 L 235.9085,316.1432 L 233.5518,315.1198 L 231.1600,315.3110 L 228.4783,315.1614 L 225.8580,314.7188 L 223.7911,314.3251 L 222.6619,313.0991 L 220.4051,313.4817 L 217.9515,313.7391 L 215.1893,313.9619 L 212.0988,314.1900 L 210.1949,314.8714 L 208.2513,315.3215 L 206.2837,316.5587 L 204.0169,316.3171 L 203.9600,314.1431 L 204.3366,312.0040 L 204.1573,310.3243 L 204.6965,308.4499 L 206.5047,306.3748 L 208.2329,304.1029 L 208.1899,301.6296 L 208.9681,300.0250 L 208.4132,298.9202 L 208.6694,297.4908 L 209.0949,295.7323 L 209.6564,294.2719 L 209.0479,292.6019 L 209.7280,290.8140 L 209.2792,289.0246 L 209.1910,286.6308 L 208.1819,284.2364 L 207.7002,281.9315 L 207.7734,279.3820 L 208.5775,276.8240 L 209.8210,274.5198 L 208.1915,272.3358 L 209.3425,270.4221 L 209.9898,268.3804 L 210.0965,266.1130 L 208.9100,264.3989 L 208.7915,262.6586 L 209.3165,260.8934 L 209.7802,259.3167 L 210.3022,257.7500 L 210.7760,255.9946 L 210.2363,254.2391 L 208.6574,252.7979 L 209.5364,251.1611 L 210.0087,249.2563 L 209.6186,247.8507 L 209.3563,246.6310 L 209.3272,244.6946 L 210.9888,243.5157 L 212.8301,242.7023 L 212.4426,240.6835 L 212.1880,238.4685 L 213.1676,237.1000 L 213.0040,235.5386 L 212.9175,233.4835 L 213.9917,231.6328 L 214.9526,229.8234 L 216.1367,228.2158 L 217.4627,226.8661 Z"/>
      </g>
      <g id="dag_V2" style="display:inline;" inkscape:label="dag_V2" inkscape:groupmode="layer">
        <path style="stroke:white;fill:none;display:inline;filter:url(#dropshadow);stroke-width:2;stroke-opacity:1;fill-opacity:0" d="M 870.1309,833.6252 L 871.2948,834.0864 L 872.4705,833.8888 L 873.3007,834.8687 L 874.2429,835.8921 L 875.2151,836.9075 L 876.5288,836.7175 L 877.6052,837.4803 L 878.9218,837.9763 L 880.0673,838.4475 L 880.2166,839.5161 L 880.3546,840.3672 L 879.8876,841.0923 L 879.3456,841.8436 L 879.4393,842.8956 L 879.0090,844.2858 L 877.7386,844.4276 L 876.7770,844.5853 L 876.1199,844.6540 L 875.5741,844.4512 L 874.8522,844.2411 L 874.1649,844.0891 L 873.4907,844.4315 L 872.7178,844.0157 L 871.8950,844.4167 L 870.8802,844.2264 L 869.5197,844.5728 L 868.2226,844.4377 L 867.0907,844.3510 L 865.9836,844.2936 L 865.1345,844.5457 L 864.4599,844.3212 L 863.7947,844.7646 L 863.1489,845.1981 L 862.5955,845.6019 L 861.8737,845.6284 L 861.0504,845.5052 L 860.2239,846.0686 L 859.3455,846.3607 L 858.7781,846.6857 L 858.0853,846.6766 L 857.2936,847.0454 L 856.5036,847.0533 L 855.7340,846.9500 L 854.8635,846.8434 L 853.9214,846.7167 L 853.2938,847.3831 L 852.3670,847.2816 L 851.4512,847.1733 L 850.9263,847.7250 L 850.1476,847.7962 L 849.2363,847.9060 L 848.3567,847.9774 L 847.5649,847.8917 L 847.1336,848.4491 L 846.3350,848.5739 L 845.4678,848.9592 L 844.6379,849.2659 L 843.6670,849.5436 L 842.8454,850.1826 L 843.3203,848.6970 L 843.5999,848.0034 L 844.0999,847.3115 L 844.4597,846.5400 L 844.6733,845.5840 L 845.3448,844.9565 L 845.3440,844.2325 L 844.8738,843.6070 L 845.2765,842.6801 L 845.6493,841.6300 L 845.6332,840.6283 L 845.6990,840.0357 L 845.7375,839.4023 L 845.9168,838.3907 L 846.3201,837.3528 L 846.9653,836.2867 L 846.2108,835.3244 L 847.3276,835.1731 L 848.3502,835.0485 L 849.3365,835.0281 L 849.8833,834.2250 L 850.9203,834.2475 L 851.8696,833.8497 L 852.6951,833.4637 L 853.3768,833.1934 L 854.0233,833.3902 L 854.7869,833.6223 L 855.4634,833.8435 L 856.1584,833.6271 L 856.8467,833.4186 L 857.5516,833.6500 L 858.4506,833.5986 L 859.3672,833.5383 L 860.5568,833.2567 L 861.7200,833.4897 L 862.7722,833.7095 L 863.7158,833.4417 L 864.7575,833.6896 L 865.7605,833.9609 L 866.7439,833.7404 L 867.7311,833.9459 L 868.7258,833.7383 Z"/>
      </g>
      <g id="dag_V2" style="display:inline;" inkscape:label="dag_V2" inkscape:groupmode="layer">
        <path style="stroke:white;fill:none;display:inline;filter:url(#dropshadow);stroke-width:2;stroke-opacity:1;fill-opacity:0" d="M 896.7798,849.8612 L 895.9756,850.1503 L 895.1735,850.3812 L 894.2892,850.5948 L 893.6113,850.9694 L 893.5131,851.5479 L 893.3292,852.1043 L 893.0686,852.6667 L 892.5765,853.0065 L 892.1600,853.2883 L 891.8073,853.6119 L 891.4811,853.9789 L 891.2044,854.3790 L 890.9724,854.8193 L 890.7258,855.2966 L 890.4233,855.8014 L 889.7682,855.7613 L 889.1437,855.6287 L 888.6604,855.4628 L 888.1497,855.5189 L 887.5280,855.5206 L 886.8770,855.3979 L 887.1176,856.0475 L 887.5145,856.5767 L 887.8523,857.0617 L 887.6033,857.5649 L 887.4254,858.0311 L 887.5663,858.5308 L 887.7109,859.1478 L 887.8331,859.7999 L 887.8742,860.4442 L 887.8501,861.1507 L 887.3936,861.9074 L 887.4016,862.6648 L 887.5357,863.2971 L 887.1232,863.7184 L 887.0115,864.3401 L 886.6301,864.9236 L 886.8693,865.3294 L 886.8569,865.8295 L 886.8962,866.4556 L 887.0224,867.2077 L 886.8756,868.0167 L 886.8779,868.7535 L 886.3322,869.1868 L 886.0186,870.0746 L 885.9044,871.5894 L 885.0802,872.9891 L 885.7313,874.5315 L 885.7848,876.2061 L 886.1063,877.8329 L 886.9495,879.4025 L 888.0012,880.5944 L 888.1735,882.2719 L 887.6671,884.1357 L 887.4097,885.8042 L 887.6987,887.3489 L 886.7830,888.6420 L 887.8399,889.7377 L 887.2212,890.7397 L 887.4916,891.5754 L 887.8726,892.3187 L 887.6063,893.1154 L 887.6495,894.0208 L 887.9190,894.9784 L 888.3546,895.9395 L 888.8929,896.7677 L 888.5648,897.3444 L 889.3444,897.6459 L 889.0938,898.7010 L 889.9154,899.4792 L 889.5813,900.5129 L 890.6843,900.2451 L 891.3606,900.7556 L 892.2646,900.7118 L 893.4553,900.2881 L 894.1706,901.2517 L 895.1821,901.3557 L 896.1293,901.4264 L 896.9874,901.3481 L 897.7820,901.2458 L 898.4325,901.1890 L 898.8668,900.7896 L 899.5976,901.1442 L 900.3749,901.4573 L 900.8697,900.9550 L 901.3459,900.4987 L 901.6848,900.0911 L 901.5666,899.5666 L 901.3727,898.9532 L 901.9570,898.5573 L 902.5192,898.2282 L 902.7076,897.6687 L 902.8809,897.0836 L 902.4969,896.4803 L 901.8347,895.8058 L 902.0901,894.9332 L 902.2768,893.9851 L 902.5743,892.9205 L 902.4462,891.6268 L 903.0464,890.5177 L 903.4868,889.3207 L 903.7722,887.8508 L 904.5262,886.8229 L 904.3239,885.6752 L 904.6095,884.1281 L 904.2952,882.8086 L 904.9467,881.8119 L 904.4169,880.6090 L 904.2570,879.1505 L 903.7180,877.7654 L 903.3595,876.4103 L 903.2097,875.1513 L 904.1440,873.9024 L 904.2454,872.2247 L 904.1313,870.7226 L 905.4106,869.7009 L 906.0555,868.3148 L 905.4106,867.3623 L 905.4117,866.2230 L 905.2949,864.9079 L 905.3311,863.7313 L 904.7901,862.5172 L 904.8980,861.1657 L 904.2106,860.2223 L 903.2876,858.9123 L 903.1164,856.8537 L 902.0706,854.9775 L 901.3513,853.3954 L 900.9153,851.8759 L 899.2753,851.2913 L 898.3960,850.2242 L 897.6344,849.5081 Z"/>
      </g>
      <g id="dag_V3." style="display:inline;" inkscape:label="dag_V3." inkscape:groupmode="layer">
        <path style="stroke:white;fill:none;display:inline;filter:url(#dropshadow);stroke-width:2;stroke-opacity:1;fill-opacity:0" d="M 206.2678,302.7531 L 205.8005,301.1784 L 207.2236,299.9379 L 206.7459,298.3148 L 206.5128,296.2248 L 207.6932,294.2913 L 206.5757,292.7399 L 207.0302,290.6455 L 206.6488,288.0775 L 206.0801,285.7714 L 205.2052,283.3409 L 204.6283,280.5312 L 204.5368,277.0706 L 206.5976,274.3732 L 205.3210,271.8166 L 207.0123,270.4818 L 207.5217,268.7068 L 208.2345,267.0734 L 207.6597,265.4429 L 207.1830,263.6951 L 206.8640,262.2697 L 207.4335,261.0514 L 207.8467,259.5247 L 208.1316,257.7959 L 208.9866,256.4911 L 208.4174,254.8058 L 206.6974,253.3046 L 206.7375,251.9501 L 207.6863,251.2034 L 207.7491,249.7060 L 207.8507,247.7238 L 207.2186,245.5795 L 206.6993,243.4208 L 208.7002,242.4815 L 210.5579,241.5482 L 210.0826,239.4717 L 209.4185,237.2808 L 211.2778,236.3054 L 210.9433,234.3733 L 210.6442,232.7261 L 211.4244,231.3596 L 209.6361,229.4497 L 207.9371,227.4246 L 205.1200,226.6856 L 201.8401,225.0924 L 198.7977,224.7595 L 195.8586,223.1018 L 193.2921,225.3762 L 192.7579,228.0046 L 190.8861,229.5721 L 189.1157,231.6198 L 187.5554,233.6415 L 185.5599,235.5452 L 182.2948,236.2729 L 181.8922,238.8930 L 182.5316,241.0543 L 181.5381,242.7861 L 179.5693,243.7809 L 178.8712,245.6368 L 176.9407,247.3699 L 175.0808,248.9731 L 173.3290,250.4436 L 172.1615,252.0228 L 171.1483,253.8678 L 170.9358,256.0640 L 170.3537,258.1447 L 169.5336,259.9204 L 169.9298,262.0146 L 170.2951,264.3734 L 168.7092,266.6912 L 167.9866,269.2107 L 168.1636,271.7382 L 167.9626,275.5297 L 167.2944,279.3743 L 165.8638,282.7506 L 165.4726,286.3516 L 164.9023,288.9230 L 162.4371,290.4261 L 163.2892,293.4412 L 163.3340,296.1835 L 163.7199,298.2250 L 162.5714,299.9572 L 164.2255,301.9105 L 162.8920,303.8760 L 161.6242,305.8603 L 160.4905,307.5331 L 161.0881,309.2198 L 159.2815,310.6309 L 159.4073,312.6653 L 160.1554,315.0187 L 157.7452,317.0346 L 155.6461,319.3375 L 159.2710,319.2546 L 162.6024,319.2736 L 164.4269,317.4558 L 166.9612,317.4841 L 168.8973,316.3093 L 171.4788,316.9820 L 173.6902,317.6379 L 176.2207,317.3636 L 179.7133,317.2063 L 183.0259,316.0621 L 185.3760,315.0000 L 188.1891,314.6921 L 191.3906,315.1268 L 193.9411,315.7097 L 197.0229,315.1803 L 200.9100,315.4354 L 201.6407,312.7708 L 202.6707,311.1130 L 202.3916,309.5828 L 202.0335,307.8124 L 203.6430,306.2729 L 205.1610,304.3947 Z"/>
      </g>
      <g id="dag_V3." style="display:inline;" inkscape:label="dag_V3." inkscape:groupmode="layer">
        <path style="stroke:white;fill:none;display:inline;filter:url(#dropshadow);stroke-width:2;stroke-opacity:1;fill-opacity:0" d="M 339.5368,189.6967 L 337.2878,189.1097 L 335.0251,188.3617 L 332.7976,188.7986 L 331.0397,187.3237 L 328.9770,188.0916 L 326.9957,186.6804 L 324.9848,185.5268 L 323.2895,186.5228 L 321.5347,185.5055 L 320.0312,186.1827 L 318.0463,185.3906 L 316.6773,187.3420 L 314.0562,187.0075 L 311.2033,186.5567 L 308.0360,185.7054 L 306.7542,187.7914 L 304.2410,188.3210 L 302.1286,189.9007 L 300.5562,190.9653 L 299.0825,190.4866 L 297.8064,189.4374 L 295.9706,189.9641 L 294.5287,191.2037 L 292.4826,190.4653 L 290.7784,190.3607 L 289.3227,189.1709 L 287.2346,188.1788 L 286.0951,189.2208 L 284.6772,189.7645 L 283.0509,190.0598 L 281.2139,190.0120 L 280.6336,191.5817 L 278.7533,191.7307 L 276.7490,192.0229 L 274.8149,192.1420 L 274.2428,193.5071 L 272.3362,193.8322 L 270.3081,195.4413 L 269.8728,197.8508 L 267.2809,195.9556 L 265.2651,192.7807 L 265.3204,190.2252 L 265.5161,188.9752 L 265.9121,187.8884 L 264.5947,186.3994 L 264.0256,184.0848 L 262.3731,181.4626 L 260.7672,178.7000 L 258.3657,176.7638 L 258.1279,174.4917 L 257.7585,172.5524 L 256.2523,171.0345 L 256.7264,169.3315 L 258.5929,168.2893 L 259.8697,165.9512 L 261.0479,163.9316 L 263.2612,164.4057 L 264.9731,163.6145 L 266.9583,162.4680 L 268.0390,160.4300 L 269.1951,158.8236 L 270.2764,157.7236 L 272.0846,157.5421 L 273.9866,158.1891 L 275.8124,157.8588 L 277.6476,156.7852 L 279.3500,156.2274 L 280.7851,154.8240 L 283.3816,154.4349 L 286.2140,155.0543 L 287.7863,153.2804 L 290.3334,153.9344 L 292.8516,154.5729 L 295.0554,155.3657 L 297.4637,154.7624 L 300.4275,155.5980 L 302.4688,154.1125 L 304.5389,152.6232 L 306.8807,153.5620 L 309.7227,153.0141 L 312.1948,154.6078 L 314.4316,154.6525 L 316.9381,154.7897 L 319.3110,155.2239 L 321.4121,156.0413 L 323.6985,157.0486 L 325.2338,158.6805 L 327.1830,159.2112 L 329.9456,159.6841 L 332.9371,161.3837 L 334.9562,161.5597 L 336.9715,161.7427 L 339.7360,160.6837 L 341.9949,159.9951 L 344.3336,160.9351 L 347.4813,162.2693 L 350.6758,161.7371 L 353.3289,160.7911 L 355.7965,162.5675 L 357.2364,164.5745 L 355.2137,165.4781 L 355.1668,168.4085 L 355.3319,171.2871 L 355.7285,173.5419 L 354.9608,175.8853 L 356.7919,176.7751 L 355.9455,178.7663 L 355.8429,181.9184 L 354.6801,184.3685 L 355.9258,186.2620 L 355.0392,188.7205 L 355.2469,190.5648 L 355.4276,192.1819 L 355.5411,194.5939 L 355.2943,197.2321 L 353.5438,195.6849 L 351.8433,194.6706 L 350.3823,193.9405 L 349.5685,192.4285 L 347.4771,192.6555 L 345.6122,192.8326 L 344.1328,191.6703 L 342.1444,190.1857 Z"/>
      </g>
      <g id="dag_V3." style="display:inline;" inkscape:label="dag_V3." inkscape:groupmode="layer">
        <path style="stroke:white;fill:none;display:inline;filter:url(#dropshadow);stroke-width:2;stroke-opacity:1;fill-opacity:0" d="M 906.4156,864.1894 L 906.5210,865.4680 L 906.7020,866.9329 L 907.4825,868.2417 L 906.7643,869.2630 L 906.7671,870.4110 L 905.5585,871.2761 L 905.8474,872.8905 L 905.7541,874.4672 L 904.5555,875.4417 L 904.8349,876.8224 L 904.9916,877.9996 L 905.7966,878.8298 L 905.3615,879.8517 L 905.7857,880.8234 L 906.3290,881.8803 L 905.6050,882.9337 L 906.3875,884.0752 L 905.6669,885.1333 L 905.9006,886.4546 L 905.2341,887.5981 L 905.3024,888.9852 L 904.5103,890.3582 L 903.8776,891.4113 L 903.4881,892.2653 L 903.9827,893.0958 L 903.3562,893.7744 L 903.2750,894.6405 L 903.1052,895.6948 L 903.5225,896.6739 L 903.5930,897.4971 L 903.3920,898.2922 L 902.7849,898.8248 L 902.1678,899.2331 L 902.2777,899.9059 L 902.2085,900.5961 L 902.9679,901.0024 L 903.8467,901.4694 L 904.9003,901.3847 L 905.7384,901.1932 L 906.1619,900.5838 L 907.2856,900.6852 L 907.7181,900.0737 L 908.6572,899.9124 L 909.8951,899.7126 L 911.0715,899.8118 L 912.0223,899.4463 L 913.4526,899.1509 L 913.3094,897.8384 L 914.5128,897.1833 L 915.7610,896.3304 L 916.1132,894.8315 L 916.1034,893.4144 L 915.9573,892.0552 L 915.7852,890.8606 L 916.6243,889.8849 L 917.8039,888.9161 L 917.5688,887.7418 L 918.2707,886.7027 L 919.1831,885.4006 L 918.3468,883.8851 L 919.1859,882.5627 L 919.6705,881.1738 L 920.1030,879.8126 L 919.0571,878.7878 L 919.4464,877.4484 L 919.8246,876.0934 L 920.2114,874.7705 L 920.5279,873.4929 L 920.6594,872.4012 L 919.9510,871.5518 L 918.9682,870.5686 L 918.5153,869.4026 L 918.2285,868.4477 L 918.0595,867.5360 L 918.0327,866.6577 L 918.2800,865.7930 L 918.6956,864.9937 L 919.1042,864.2155 L 919.1571,863.5905 L 918.9908,863.0662 L 918.9463,862.4491 L 918.5070,861.9001 L 918.8964,861.1458 L 918.6975,860.1119 L 917.8514,859.2349 L 917.7120,857.9987 L 917.0979,856.9659 L 917.2509,855.9076 L 917.4968,854.7573 L 916.8153,854.0587 L 916.8901,853.1886 L 916.2724,852.6456 L 916.3360,851.8129 L 915.7003,851.0729 L 915.0983,850.1479 L 914.4282,849.1537 L 913.5374,848.7213 L 912.9874,847.8615 L 912.7443,846.6035 L 912.5017,845.2959 L 911.1878,844.7805 L 910.6115,843.2289 L 909.3186,843.5406 L 908.3311,844.3098 L 906.7917,844.2861 L 905.9634,845.4750 L 904.9548,846.5126 L 903.7497,847.3859 L 902.4393,847.4810 L 901.3326,847.5035 L 900.7606,848.3621 L 900.0443,849.2286 L 899.3907,850.0505 L 900.5079,850.4225 L 902.1064,850.6440 L 902.5847,852.4113 L 902.4033,853.6529 L 903.6013,853.8203 L 903.7217,855.3327 L 904.8181,856.2324 L 904.7137,857.8083 L 904.7638,859.1364 L 905.6675,860.0966 L 906.0323,861.5235 L 906.2726,862.8890 Z"/>
      </g>
      <g id="dag_V3." style="display:inline;" inkscape:label="dag_V3." inkscape:groupmode="layer">
        <path style="stroke:white;fill:none;display:inline;filter:url(#dropshadow);stroke-width:2;stroke-opacity:1;fill-opacity:0" d="M 883.3192,834.2480 L 883.3618,835.0059 L 883.5931,835.8497 L 883.7812,836.7114 L 883.0931,837.5903 L 883.7789,838.4935 L 882.6764,838.7657 L 882.0656,839.5452 L 881.1865,839.9504 L 881.3223,838.8578 L 881.0337,837.7627 L 879.9675,837.3623 L 878.9210,836.7942 L 877.7297,835.8700 L 875.9373,835.5289 L 874.7631,834.5762 L 873.8414,833.6436 L 872.9933,832.7661 L 871.5498,832.8917 L 870.3825,832.4375 L 869.2115,832.6347 L 867.8055,832.9332 L 866.7283,832.8211 L 865.8743,833.1820 L 865.1664,832.6019 L 864.1885,832.7261 L 863.2255,832.8157 L 862.3988,832.9285 L 861.6282,832.4397 L 860.5959,832.0774 L 859.6340,832.5786 L 858.8561,832.9517 L 858.1168,832.9117 L 857.3042,832.8564 L 856.4734,832.8606 L 855.5266,833.0388 L 854.6411,832.8530 L 853.8493,832.5996 L 852.9539,832.6263 L 852.0045,832.9012 L 851.2545,833.4041 L 850.4244,833.4131 L 849.4602,833.4390 L 848.9059,834.2209 L 847.8016,834.1036 L 846.7387,834.4490 L 846.7945,833.4641 L 846.9261,832.3887 L 847.0923,831.3323 L 846.8948,830.2738 L 845.8857,829.7786 L 845.0455,829.6667 L 845.3056,828.8322 L 844.2835,828.3204 L 843.2770,828.9479 L 842.2430,828.5304 L 841.1153,828.0134 L 840.4438,827.2365 L 839.9455,826.6216 L 839.0397,826.6652 L 838.3987,826.3569 L 838.0633,825.7549 L 837.9324,824.9487 L 837.6534,824.3418 L 838.5291,824.1404 L 839.3503,823.6681 L 840.1115,823.7845 L 840.9847,824.0004 L 841.8965,823.2919 L 842.9949,822.6096 L 844.3588,822.0931 L 845.5939,822.3862 L 846.6575,822.6016 L 847.7562,822.7746 L 848.9900,822.8732 L 850.2062,822.4027 L 851.4713,822.0640 L 852.5635,822.2487 L 853.4689,822.4958 L 854.3329,821.9146 L 855.2376,821.4311 L 856.0574,821.8785 L 856.8960,822.3313 L 857.7991,821.8749 L 858.8154,821.5433 L 859.9525,821.2202 L 861.1129,820.7878 L 862.2820,821.2925 L 863.8161,821.0697 L 865.0926,821.3032 L 866.2574,821.4036 L 867.4502,821.4873 L 868.8000,821.5992 L 869.9384,822.2344 L 871.0611,821.7794 L 871.9875,822.4338 L 873.1057,822.0262 L 874.2263,821.6475 L 875.3075,821.2841 L 876.1812,821.8857 L 877.1995,822.4852 L 878.2477,822.5776 L 877.8670,823.3323 L 878.5083,824.1323 L 878.6473,825.1476 L 879.4893,825.3780 L 880.0154,826.0121 L 880.7389,826.7813 L 881.5883,827.5585 L 881.2609,828.7047 L 881.0518,829.8091 L 880.9716,830.6591 L 881.4161,831.3397 L 881.8653,832.1754 L 882.2760,832.9967 L 882.7440,833.7168 Z"/>
      </g>
      <g id="dag_V3ab" style="display:inline;" inkscape:label="dag_V3ab" inkscape:groupmode="layer">
        <path style="stroke:white;fill:none;display:inline;filter:url(#dropshadow);stroke-width:2;stroke-opacity:1;fill-opacity:0" d="M 321.0522,153.7952 L 322.8998,154.9572 L 325.0117,154.9532 L 326.2249,157.1007 L 328.3132,157.5912 L 330.3018,156.8388 L 332.6341,158.4261 L 335.0019,159.8363 L 337.4827,158.7851 L 340.4434,157.7382 L 343.4673,158.2329 L 346.5167,158.7782 L 348.9793,159.8841 L 351.1727,159.0539 L 353.6002,158.0184 L 355.7430,159.6553 L 357.6094,160.8796 L 358.0806,158.6274 L 358.5797,155.6736 L 357.5990,152.7759 L 356.3236,150.1722 L 353.3466,150.0224 L 352.2802,147.5933 L 350.1559,146.1736 L 348.2149,144.4736 L 345.6664,144.2372 L 344.2225,141.6079 L 342.4334,139.2661 L 340.6403,137.1268 L 337.6558,137.3416 L 336.7372,134.6739 L 336.1923,133.0707 L 334.4781,133.7224 L 333.1317,131.6260 L 330.4978,131.7584 L 329.4983,129.2275 L 328.4660,126.8997 L 326.9109,124.4924 L 326.3737,121.9056 L 324.4015,120.2216 L 322.0404,118.2435 L 319.9762,116.7770 L 318.8233,114.7048 L 317.1967,112.4490 L 315.6617,110.6478 L 313.0610,110.0575 L 313.2000,107.6516 L 311.5437,105.6081 L 308.1796,104.0390 L 304.8322,102.1037 L 305.9295,99.2181 L 304.2567,97.3195 L 302.9895,95.7327 L 300.7826,94.9860 L 300.7751,92.3456 L 298.2813,90.5796 L 295.7809,88.9225 L 295.9986,86.4430 L 293.9522,84.1289 L 296.3265,81.5353 L 295.1730,79.2370 L 292.1278,77.8068 L 287.9715,77.7833 L 285.0839,77.5591 L 283.5205,76.1167 L 285.1906,80.4478 L 284.8330,83.6788 L 284.3512,86.1486 L 283.4423,88.7467 L 282.5456,91.3101 L 279.8650,93.5347 L 278.6648,96.9174 L 280.5490,99.5988 L 281.9017,102.2225 L 281.0094,104.5406 L 281.9328,107.9561 L 280.8382,111.8064 L 283.2731,114.3620 L 285.0508,117.0650 L 286.5819,120.4388 L 289.4248,123.4886 L 290.4888,126.7705 L 291.4995,129.1285 L 293.7831,130.3705 L 296.4861,131.8133 L 299.1709,133.0701 L 299.6471,135.2452 L 301.4952,136.6421 L 303.5579,138.1682 L 305.2721,139.4130 L 306.0544,141.3043 L 307.0859,143.7001 L 308.5604,146.4907 L 311.3652,148.3436 L 311.3154,150.7814 L 312.8213,152.6178 L 315.5764,152.4410 L 318.4763,152.7805 L 358.4430,162.8393 Z"/>
      </g>
      <g id="dag_V3ab" style="display:inline;" inkscape:label="dag_V3ab" inkscape:groupmode="layer">
        <path style="stroke:white;fill:none;display:inline;filter:url(#dropshadow);stroke-width:2;stroke-opacity:1;fill-opacity:0" d="M 875.2681,792.7007 L 873.6099,792.6749 L 872.2028,792.6046 L 871.0483,793.3256 L 869.8082,794.3799 L 867.9787,794.2261 L 866.5753,795.6546 L 864.8793,796.5752 L 863.6154,796.3265 L 862.4079,796.7667 L 862.0699,797.8503 L 860.8926,798.3276 L 859.5609,798.2241 L 857.8858,798.0905 L 856.5638,799.2626 L 855.5844,798.8394 L 854.9019,799.6375 L 853.5108,800.2504 L 852.1014,800.8107 L 850.5811,801.1836 L 849.7457,802.2889 L 849.1141,803.1447 L 848.2010,803.8275 L 847.0915,804.8655 L 845.9055,805.4543 L 845.3965,806.3564 L 844.0392,806.8082 L 842.9906,807.7015 L 842.2002,808.5529 L 841.4172,809.6162 L 840.3411,809.3970 L 839.1725,809.7518 L 838.3820,810.3708 L 837.6797,811.0481 L 837.0229,810.6524 L 836.2990,811.4434 L 835.1791,812.0984 L 835.8002,812.6986 L 835.2812,813.8644 L 836.0566,814.7045 L 835.3778,815.5567 L 836.1484,816.0349 L 835.3381,817.3733 L 835.9084,818.5383 L 835.8485,819.9353 L 837.0591,820.6215 L 836.4006,822.1093 L 837.1105,822.9433 L 837.8282,823.5384 L 838.8498,823.0200 L 839.8754,822.9704 L 840.8685,823.0206 L 841.8470,821.9978 L 843.2742,821.3405 L 844.5763,820.6876 L 845.6037,821.2484 L 846.4307,821.7076 L 847.5068,821.6311 L 848.4614,822.0079 L 849.4315,821.6944 L 850.5972,821.2567 L 851.7808,820.8668 L 852.3836,821.4645 L 853.3701,821.4174 L 854.4617,820.9186 L 855.3173,820.6311 L 856.1056,820.8931 L 856.9986,821.3292 L 858.0347,820.8684 L 859.1337,820.5153 L 860.2303,820.1382 L 861.3047,819.7285 L 862.0142,820.2916 L 862.9875,820.2153 L 864.0841,819.8812 L 864.8278,820.4264 L 865.8408,820.4385 L 866.9946,820.5086 L 867.6860,819.6284 L 868.1612,819.0209 L 868.7354,818.3013 L 870.1691,817.7760 L 871.2347,817.1126 L 871.6297,816.0479 L 872.4999,815.0437 L 873.4612,814.2883 L 874.4986,813.5874 L 874.4238,812.3535 L 874.3081,811.0594 L 874.1885,809.7457 L 875.4770,808.7532 L 876.0257,807.2281 L 876.5168,805.7784 L 877.2178,804.1737 L 877.0590,802.7029 L 877.8804,801.2662 L 877.6732,799.4879 L 878.8000,798.4987 L 878.8298,797.4695 L 879.5437,796.7303 L 879.5345,795.6178 L 880.9124,794.9923 L 881.0544,793.7380 L 879.7451,792.8635 L 877.9506,793.5804 L 876.7735,792.6896 Z"/>
      </g>
      <g id="dag_hV4" style="display:inline;" inkscape:label="dag_hV4" inkscape:groupmode="layer">
        <path style="stroke:white;fill:none;display:inline;filter:url(#dropshadow);stroke-width:2;stroke-opacity:1;fill-opacity:0" d="M 128.3088,302.5736 L 128.4854,304.9448 L 128.9785,307.0923 L 129.9509,308.9742 L 130.9247,310.9870 L 131.4153,313.2529 L 132.0992,315.3976 L 130.0137,317.4510 L 127.7217,319.5151 L 128.7221,321.6876 L 126.7170,323.6100 L 126.7498,325.7537 L 126.7450,328.2274 L 126.6116,330.4258 L 128.5750,331.8698 L 133.0999,330.7607 L 137.0083,328.6981 L 140.2025,327.5145 L 143.7408,327.8875 L 147.7297,326.6805 L 151.2427,325.3265 L 155.1250,323.8311 L 157.4268,321.4191 L 154.2688,321.4596 L 151.6416,319.9424 L 153.4539,316.8895 L 156.6109,314.4633 L 156.0484,311.4248 L 158.0051,308.6783 L 158.6754,306.2471 L 159.7464,304.0682 L 161.1773,301.9719 L 159.5963,300.0188 L 160.8365,297.8207 L 160.2584,295.1826 L 158.9807,292.2149 L 159.0369,288.9318 L 162.1519,287.5148 L 162.1152,284.4788 L 161.8112,281.4852 L 164.0882,279.9196 L 164.3105,277.3802 L 163.9503,274.9202 L 164.8285,272.6132 L 165.3863,269.9095 L 166.0498,267.8228 L 165.1310,265.6743 L 167.1036,263.4432 L 167.2646,260.6813 L 167.6449,258.4345 L 168.4186,256.4068 L 169.1439,254.7724 L 168.5096,253.0847 L 170.0331,252.0333 L 170.3246,250.0853 L 172.1529,248.3135 L 173.9104,246.6582 L 175.7222,245.0634 L 177.2366,243.4771 L 178.6809,241.9847 L 180.2548,240.5807 L 179.1798,238.8041 L 179.3977,236.8802 L 179.5659,234.4437 L 182.4038,233.7001 L 184.7949,233.0096 L 185.8745,231.1791 L 187.0720,228.6627 L 189.5995,226.4378 L 189.8689,223.5052 L 187.4555,221.7258 L 185.6273,220.2510 L 184.8295,218.3514 L 183.7915,216.2147 L 182.9149,214.1251 L 181.7960,212.1248 L 180.5051,213.5248 L 178.8077,214.5767 L 177.3146,215.8079 L 175.4883,216.5529 L 173.6525,216.8021 L 172.2990,217.7618 L 170.3627,218.6607 L 168.1280,219.8236 L 166.9860,222.1324 L 165.8018,224.2131 L 162.4400,224.1972 L 159.4020,225.3925 L 156.2327,226.7581 L 154.7751,229.4733 L 152.4668,230.9937 L 153.3209,233.1805 L 151.7950,234.8683 L 149.9941,236.0574 L 149.7930,237.7437 L 149.7134,239.6746 L 147.1944,240.4540 L 147.0887,243.0420 L 145.9725,245.0576 L 145.5647,246.2383 L 145.3502,247.4571 L 145.2938,249.6077 L 144.0642,251.5354 L 143.1737,253.1990 L 140.9492,254.2191 L 141.3302,256.8151 L 138.7970,258.5297 L 136.5881,260.8829 L 136.2810,264.0146 L 135.8568,266.8901 L 132.9493,267.6516 L 131.1332,269.7202 L 130.7168,272.4377 L 130.2030,274.8909 L 129.1720,277.4262 L 128.2126,279.7302 L 125.4766,281.7253 L 122.3761,283.7665 L 122.4340,286.2562 L 122.8047,288.6661 L 123.7283,291.0388 L 125.2759,293.3884 L 125.9164,295.7112 L 127.0485,297.8386 L 127.9196,300.1807 Z"/>
      </g>
      <g id="dag_hV4" style="display:inline;" inkscape:label="dag_hV4" inkscape:groupmode="layer">
        <path style="stroke:white;fill:none;display:inline;filter:url(#dropshadow);stroke-width:2;stroke-opacity:1;fill-opacity:0" d="M 931.4380,874.2469 L 931.4883,876.1410 L 931.5154,877.8796 L 931.5325,879.5128 L 931.5295,881.2285 L 932.3042,882.7327 L 932.4174,884.2020 L 931.4414,885.4470 L 930.7014,886.4468 L 930.8693,887.6332 L 931.0131,888.9562 L 930.8832,890.0743 L 929.5339,890.7183 L 930.1850,892.2137 L 930.4897,893.5363 L 931.0086,894.8987 L 929.9906,896.0780 L 928.9465,897.3240 L 929.6807,898.6238 L 927.9744,898.5751 L 925.7683,898.5319 L 923.6209,899.2789 L 922.1044,898.9858 L 920.6910,898.5679 L 918.5517,898.8176 L 916.6350,898.6569 L 914.8876,898.5353 L 915.8152,897.6317 L 917.2902,897.4402 L 917.8445,895.8679 L 917.6552,894.1734 L 917.4892,892.6833 L 917.1829,891.2659 L 918.2931,890.3010 L 919.3571,889.3323 L 918.9428,888.0059 L 920.1560,886.9006 L 920.9257,885.6183 L 920.4030,883.9803 L 920.8509,882.2744 L 921.1701,880.8362 L 921.5845,879.5046 L 920.5500,878.4549 L 920.9407,877.0695 L 921.2663,875.6996 L 921.5855,874.3503 L 921.8885,872.8488 L 921.3501,871.4025 L 920.4219,870.3733 L 919.6394,869.4144 L 919.0690,868.6786 L 919.0444,867.7770 L 918.6699,867.0548 L 918.8420,866.3937 L 919.1727,865.6827 L 919.5737,864.9457 L 919.9180,864.2395 L 919.5795,863.7782 L 919.5968,863.2659 L 919.5589,862.6400 L 919.5065,861.8289 L 919.8206,860.7736 L 920.0704,859.5418 L 918.9484,858.7552 L 919.0876,857.4612 L 918.1339,856.7076 L 918.5054,855.5063 L 918.5374,854.3293 L 917.7004,853.7165 L 917.7401,852.7613 L 916.9966,852.3250 L 917.0643,851.5944 L 916.6708,850.9293 L 916.1454,850.0728 L 915.6021,849.1407 L 915.1121,848.1868 L 914.1098,848.0457 L 913.8591,846.9916 L 913.6737,845.7994 L 913.4658,844.6769 L 912.5066,843.5879 L 911.7171,842.1266 L 910.3989,841.5259 L 911.4722,841.0604 L 911.8521,840.2040 L 912.8511,839.9675 L 913.8990,839.6023 L 915.0352,839.1699 L 915.9894,839.2015 L 916.6584,838.7125 L 917.4184,838.1176 L 918.3348,838.4916 L 919.2392,838.9785 L 920.1719,838.5358 L 920.8415,839.2593 L 921.3275,839.8564 L 921.3464,840.6601 L 922.2206,841.0865 L 922.2526,842.2265 L 921.7892,843.1489 L 921.3467,843.9573 L 920.8783,844.7537 L 921.2297,845.5021 L 922.0593,845.9076 L 922.6791,846.6937 L 923.3588,847.4745 L 923.7379,848.5131 L 924.0566,849.4278 L 924.2093,850.3510 L 925.2127,850.9212 L 925.7313,852.0145 L 926.0552,853.0449 L 926.2857,854.2281 L 926.8558,855.2852 L 927.1725,856.2112 L 926.8748,857.4032 L 927.5051,858.4844 L 927.2712,859.5694 L 928.2574,860.0250 L 928.7161,860.9801 L 929.4660,861.9884 L 929.9653,863.3399 L 930.8705,864.9051 L 932.2624,866.2095 L 933.5302,867.3257 L 933.2609,868.9480 L 933.6557,870.5042 L 933.8016,872.2294 L 933.0269,873.6512 Z"/>
      </g>
    </g>
    <g inkscape:label="labels" inkscape:groupmode="layer" id="rois_labels" transform="translate(0,0)" style="display:inline;">
    <text x="887.6378064387235" y="813.5500691732427" style="font-family:Helvetica, sans-serif;font-size:14pt;font-weight:bold;font-style:italic;fill:white;fill-opacity:1;text-anchor:middle;filter:url(#dropshadow)" data-ptidx="219467">dag_LO1</text><text x="906.3815044411235" y="818.1955401782944" style="font-family:Helvetica, sans-serif;font-size:14pt;font-weight:bold;font-style:italic;fill:white;fill-opacity:1;text-anchor:middle;filter:url(#dropshadow)" data-ptidx="205165">dag_LO2</text><text x="961.7149518541211" y="800.5252368279263" style="font-family:Helvetica, sans-serif;font-size:14pt;font-weight:bold;font-style:italic;fill:white;fill-opacity:1;text-anchor:middle;filter:url(#dropshadow)" data-ptidx="229602">dag_TO</text><text x="872.1594986329477" y="862.4021840855007" style="font-family:Helvetica, sans-serif;font-size:14pt;font-weight:bold;font-style:italic;fill:white;fill-opacity:1;text-anchor:middle;filter:url(#dropshadow)" data-ptidx="213383">dag_V1</text><text x="895.4741285621263" y="874.0457874730769" style="font-family:Helvetica, sans-serif;font-size:14pt;font-weight:bold;font-style:italic;fill:white;fill-opacity:1;text-anchor:middle;filter:url(#dropshadow)" data-ptidx="207726">dag_V2</text><text x="861.2485016543374" y="826.9554626642998" style="font-family:Helvetica, sans-serif;font-size:14pt;font-weight:bold;font-style:italic;fill:white;fill-opacity:1;text-anchor:middle;filter:url(#dropshadow)" data-ptidx="235202">dag_V3.</text><text x="859.8003984636332" y="809.8111503000666" style="font-family:Helvetica, sans-serif;font-size:14pt;font-weight:bold;font-style:italic;fill:white;fill-opacity:1;text-anchor:middle;filter:url(#dropshadow)" data-ptidx="253785">dag_V3ab</text><text x="926.0535326314807" y="877.1580782559686" style="font-family:Helvetica, sans-serif;font-size:14pt;font-weight:bold;font-style:italic;fill:white;fill-opacity:1;text-anchor:middle;filter:url(#dropshadow)" data-ptidx="203399">dag_hV4</text></g>
  </g>
  <svg:g id="sulci" style="display:inline;" inkscape:label="sulci" inkscape:groupmode="layer" class="display_layer">
    <svg:g id="sulci_shapes" style="display:inline;" inkscape:label="shapes" inkscape:groupmode="layer" clip-path="url(#edgeclip)"/>
    <svg:g id="sulci_labels" style="display:inline;" inkscape:label="labels" inkscape:groupmode="layer"/>
  </svg:g>
  <svg:g id="cutouts" style="display:inline;" inkscape:label="cutouts" inkscape:groupmode="layer" class="display_layer">
    <svg:g id="cutouts_shapes" style="display:inline;" inkscape:label="shapes" inkscape:groupmode="layer" clip-path="url(#edgeclip)"/>
    <svg:g id="cutouts_labels" style="display:inline;" inkscape:label="labels" inkscape:groupmode="layer"/>
  </svg:g>
  <svg:g id="display" style="display:inline;" inkscape:label="display" inkscape:groupmode="layer" class="display_layer">
    <svg:g id="display_shapes" style="display:inline;" inkscape:label="shapes" inkscape:groupmode="layer" clip-path="url(#edgeclip)"/>
    <svg:g id="display_labels" style="display:inline;" inkscape:label="labels" inkscape:groupmode="layer"/>
  </svg:g>
</svg>
